<?xml version="1.0" encoding="UTF-8" standalone="no"?>
<!-- Created with Inkscape (http://www.inkscape.org/) -->

<svg
   xmlns:dc="http://purl.org/dc/elements/1.1/"
   xmlns:cc="http://creativecommons.org/ns#"
   xmlns:rdf="http://www.w3.org/1999/02/22-rdf-syntax-ns#"
   xmlns:svg="http://www.w3.org/2000/svg"
   xmlns="http://www.w3.org/2000/svg"
   xmlns:sodipodi="http://sodipodi.sourceforge.net/DTD/sodipodi-0.dtd"
   xmlns:inkscape="http://www.inkscape.org/namespaces/inkscape"
   width="53.39489mm"
   height="23.052513mm"
   viewBox="0 0 53.39489 23.052513"
   version="1.1"
   id="svg8"
   sodipodi:docname="leaf1.svg"
   inkscape:version="0.92.4 (5da689c313, 2019-01-14)">
  <defs
     id="defs2" />
  <sodipodi:namedview
     id="base"
     pagecolor="#ffffff"
     bordercolor="#666666"
     borderopacity="1.0"
     inkscape:pageopacity="0.0"
     inkscape:pageshadow="2"
     inkscape:zoom="1.4"
     inkscape:cx="592.94679"
     inkscape:cy="161.23566"
     inkscape:document-units="mm"
     inkscape:current-layer="svg8"
     showgrid="false"
     inkscape:window-width="1920"
     inkscape:window-height="1001"
     inkscape:window-x="-9"
     inkscape:window-y="-9"
     inkscape:window-maximized="1"
     fit-margin-top="0"
     fit-margin-left="0"
     fit-margin-right="0"
     fit-margin-bottom="0" />
  <metadata
     id="metadata5">
    <rdf:RDF>
      <cc:Work
         rdf:about="">
        <dc:format>image/svg+xml</dc:format>
        <dc:type
           rdf:resource="http://purl.org/dc/dcmitype/StillImage" />
        <dc:title></dc:title>
      </cc:Work>
    </rdf:RDF>
  </metadata>
  <path
     sodipodi:nodetypes="ccccccccccccsccc"
     inkscape:connector-curvature="0"
     d="m 170.26703,-6.1121381 c -0.74083,-0.017646 -1.411,0.1326692 -2.681,0.4325338 -3.13973,0.7408334 -6.31466,2.2926747 -7.69049,3.6685082 l -0.95239,1.05833336 c -0.34551,0.28770088 -0.57482,1.61086105 -0.62477,2.05879004 -0.12298,1.1901383 -0.0749,2.0489758 0.16591,3.232877 0.59972,2.8575001 1.30517,4.0924976 3.59823,6.2797197 2.29305,2.2225 6.52677,4.409423 10.47788,5.503024 2.50473,0.705555 3.73945,0.776559 11.11251,0.811836 13.15861,0.07056 19.861,-0.529512 26.42266,-2.293397 l 1.55237,-0.388091 -2.6107,-1.692921 c -1.44639,-0.917222 -4.83302,-2.9986466 -7.54941,-4.6214244 -2.71639,-1.6227779 -6.10302,-3.7397199 -7.54941,-4.6922199 -4.97417,-3.35138914 -14.35781,-7.3375701 -20.5667,-8.7839591 -1.55222,-0.3704167 -2.36386,-0.5559708 -3.10469,-0.5736097 z"
     style="fill:#000000;stroke:none;stroke-width:0.03527778"
     id="path837-1" />
</svg>
