<?xml version="1.0" encoding="UTF-8" standalone="no"?>
<!-- Created with Inkscape (http://www.inkscape.org/) -->

<svg
   xmlns:dc="http://purl.org/dc/elements/1.1/"
   xmlns:cc="http://creativecommons.org/ns#"
   xmlns:rdf="http://www.w3.org/1999/02/22-rdf-syntax-ns#"
   xmlns:svg="http://www.w3.org/2000/svg"
   xmlns="http://www.w3.org/2000/svg"
   xmlns:sodipodi="http://sodipodi.sourceforge.net/DTD/sodipodi-0.dtd"
   xmlns:inkscape="http://www.inkscape.org/namespaces/inkscape"
   width="53.394897mm"
   height="23.052525mm"
   viewBox="0 0 53.394897 23.052525"
   version="1.1"
   id="svg8"
   inkscape:version="0.92.4 (5da689c313, 2019-01-14)"
   sodipodi:docname="leaf1.svg">
  <defs
     id="defs2" />
  <sodipodi:namedview
     id="base"
     pagecolor="#ffffff"
     bordercolor="#666666"
     borderopacity="1.0"
     inkscape:pageopacity="0.0"
     inkscape:pageshadow="2"
     inkscape:zoom="1.4"
     inkscape:cx="-63.113597"
     inkscape:cy="36.684679"
     inkscape:document-units="mm"
     inkscape:current-layer="svg8"
     showgrid="false"
     fit-margin-top="0"
     fit-margin-left="0"
     fit-margin-right="0"
     fit-margin-bottom="0"
     inkscape:window-width="1920"
     inkscape:window-height="1001"
     inkscape:window-x="-9"
     inkscape:window-y="-9"
     inkscape:window-maximized="1" />
  <metadata
     id="metadata5">
    <rdf:RDF>
      <cc:Work
         rdf:about="">
        <dc:format>image/svg+xml</dc:format>
        <dc:type
           rdf:resource="http://purl.org/dc/dcmitype/StillImage" />
        <dc:title></dc:title>
      </cc:Work>
    </rdf:RDF>
  </metadata>
  <path
     sodipodi:nodetypes="ccccccccccccsccc"
     inkscape:connector-curvature="0"
     d="m 12.01399,0.0014 c -0.74083,-0.0177 -1.411,0.13267 -2.681,0.43253 C 6.19326,1.17476 3.01833,2.7266 1.6425,4.10244 L 0.69011,5.16077 C 0.3446,5.44847 0.11529,6.77163 0.06534,7.21956 c -0.12298,1.19014 -0.0749,2.04898 0.16591,3.23288 0.59972,2.8575 1.30517,4.0925 3.59823,6.27972 2.29305,2.2225 6.52677,4.40942 10.47788,5.50302 2.50473,0.70556 3.73945,0.77656 11.11251,0.81184 13.15861,0.0706 19.861,-0.52951 26.42266,-2.2934 L 53.3949,20.36553 50.7842,18.67261 C 49.33781,17.75539 45.95118,15.67396 43.23479,14.05119 40.5184,12.42841 37.13177,10.31147 35.68538,9.35897 30.71121,6.00758 21.32757,2.0214 15.11868,0.57501 13.56646,0.20459 12.75482,0.01904 12.01399,0.0014 Z"
     style="fill:#000000;stroke:none;stroke-width:0.03527778"
     id="path837-1" />
</svg>
