<?xml version="1.0" encoding="UTF-8" standalone="no"?>
<!-- Created with Inkscape (http://www.inkscape.org/) -->

<svg
   xmlns:dc="http://purl.org/dc/elements/1.1/"
   xmlns:cc="http://creativecommons.org/ns#"
   xmlns:rdf="http://www.w3.org/1999/02/22-rdf-syntax-ns#"
   xmlns:svg="http://www.w3.org/2000/svg"
   xmlns="http://www.w3.org/2000/svg"
   xmlns:sodipodi="http://sodipodi.sourceforge.net/DTD/sodipodi-0.dtd"
   xmlns:inkscape="http://www.inkscape.org/namespaces/inkscape"
   width="88.362175mm"
   height="111.56754mm"
   viewBox="0 0 88.362175 111.56754"
   version="1.1"
   id="svg8"
   inkscape:version="0.92.4 (5da689c313, 2019-01-14)"
   sodipodi:docname="rightArmMuscle.svg">
  <defs
     id="defs2" />
  <sodipodi:namedview
     id="base"
     pagecolor="#ffffff"
     bordercolor="#666666"
     borderopacity="1.0"
     inkscape:pageopacity="0.0"
     inkscape:pageshadow="2"
     inkscape:zoom="0.35"
     inkscape:cx="-341.60381"
     inkscape:cy="238.5882"
     inkscape:document-units="mm"
     inkscape:current-layer="layer1"
     showgrid="false"
     fit-margin-top="0"
     fit-margin-left="0"
     fit-margin-right="0"
     fit-margin-bottom="0"
     inkscape:window-width="1920"
     inkscape:window-height="1001"
     inkscape:window-x="-9"
     inkscape:window-y="-9"
     inkscape:window-maximized="1" />
  <metadata
     id="metadata5">
    <rdf:RDF>
      <cc:Work
         rdf:about="">
        <dc:format>image/svg+xml</dc:format>
        <dc:type
           rdf:resource="http://purl.org/dc/dcmitype/StillImage" />
        <dc:title></dc:title>
      </cc:Work>
    </rdf:RDF>
  </metadata>
  <g
     inkscape:label="Layer 1"
     inkscape:groupmode="layer"
     id="layer1"
     transform="translate(-71.898647,-100.45234)">
    <g
       id="g826"
       transform="translate(-123.97619,-103.56548)">
      <path
         style="fill:#d0d0d0;stroke-width:1"
         d="m 197.05789,315.38105 c -1.44598,-0.83064 -1.56622,-2.18816 -0.36201,-4.08702 3.26176,-5.14325 8.19716,-8.29136 15.41413,-9.8321 1.85076,-0.39511 3.87382,-0.46211 14.71351,-0.48726 10.66616,-0.0248 12.9254,-0.0975 14.93178,-0.48101 5.32499,-1.01775 8.76038,-2.69811 12.03045,-5.88446 2.34102,-2.28109 2.68526,-2.38087 6.68866,-1.93878 5.26641,0.58156 12.20831,-0.11978 13.31756,-1.34549 0.25119,-0.27756 0.56109,-1.06335 0.68866,-1.74619 0.14857,-0.79523 0.61046,-1.73215 1.28492,-2.60638 2.26549,-2.9365 3.74041,-7.69194 4.2648,-13.75056 0.56323,-6.50741 0.0895,-10.08688 -3.05793,-23.10763 -3.32844,-13.76943 -3.99464,-17.21231 -4.38352,-22.65389 -0.27925,-3.90755 -1.44054,-9.10023 -2.37235,-10.60793 -1.29357,-2.09303 -4.60643,-4.44182 -8.59196,-6.09164 -4.65759,-1.92802 -12.27989,-3.83244 -15.33901,-3.83244 -1.31299,0 -1.51242,0.0891 -2.81327,1.25677 -1.70727,1.53249 -4.04972,4.64322 -5.27273,7.00209 l -0.90778,1.75086 0.34244,1.67587 c 0.18834,0.92173 0.45459,1.79122 0.59167,1.93221 0.1598,0.16434 0.67089,0.026 1.42419,-0.38552 0.64623,-0.35301 1.11196,-0.70649 1.03495,-0.7855 -0.077,-0.079 -0.62665,-0.26571 -1.22145,-0.41489 -1.47953,-0.37109 -1.87002,-1.04475 -1.01305,-1.74769 0.55473,-0.45503 0.95031,-0.51714 2.77813,-0.43624 1.17221,0.0519 2.30989,0.17551 2.52817,0.27472 0.69347,0.3152 1.58368,-0.73578 2.00609,-2.3684 0.72991,-2.82107 2.93301,-5.76336 4.18196,-5.58509 0.78535,0.1121 0.86803,1.16571 0.16599,2.11527 -0.31426,0.42505 -0.63571,1.1693 -0.71435,1.65387 l -0.14297,0.88105 1.25217,-0.28654 c 1.10042,-0.25181 1.29422,-0.22904 1.5991,0.1879 0.52517,0.71822 0.18639,1.19349 -1.32819,1.86331 -0.94158,0.41641 -1.74427,1.05653 -2.54406,2.02879 -1.99576,2.42617 -3.54055,3.76781 -5.56667,4.83463 -3.30154,1.73837 -4.40104,2.51665 -4.58375,3.24461 -0.23322,0.92925 0.46282,1.94542 1.33255,1.94542 0.83755,0 1.1888,-0.18812 3.65498,-1.95752 3.07051,-2.20299 3.22285,-2.22032 13.92147,-1.58373 3.06544,0.1824 6.2934,-0.30428 7.78111,-1.17315 0.44496,-0.25986 1.16702,-1.10948 1.6046,-1.88804 0.9896,-1.76074 1.54183,-2.15743 2.15281,-1.54644 0.39166,0.39166 0.40188,0.58122 0.0911,1.69113 -0.19249,0.68751 -0.72251,1.8036 -1.17783,2.4802 -0.8205,1.21926 -0.8281,1.26171 -0.8566,4.78667 -0.0469,5.80226 -1.07443,9.79971 -4.4677,17.38117 -1.98128,4.42669 -2.62816,6.27974 -2.88631,8.26805 -0.2193,1.68902 -0.48944,2.11666 -1.33709,2.11666 -0.84281,0 -0.9818,-0.32996 -0.94053,-2.23291 0.0433,-1.99522 0.77955,-4.52283 2.89491,-9.93792 2.3921,-6.12353 3.48636,-11.01987 3.48636,-15.59999 0,-2.24114 -0.44194,-1.48309 -0.63629,1.09142 -0.35149,4.6561 -1.19161,7.54595 -4.25631,14.64086 -2.38245,5.51547 -2.88293,7.03195 -3.46026,10.48463 -0.32109,1.92023 -0.40561,3.41294 -0.29156,5.14918 0.15034,2.28871 0.24568,2.60426 1.49121,4.93534 1.98075,3.70709 2.99949,8.36186 2.00983,9.1832 -0.20948,0.17385 -0.7155,0.27773 -1.12448,0.23083 -0.67626,-0.0775 -0.77521,-0.22904 -1.09263,-1.67276 -1.56201,-7.10443 -5.38565,-11.16198 -12.38219,-13.13965 -2.85331,-0.80652 -7.50106,-0.79907 -10.55212,0.0169 -2.36094,0.63142 -5.88603,2.29646 -7.23235,3.41612 l -0.88237,0.73381 0.31261,2.13791 c 0.47842,3.27197 -0.12782,6.44416 -1.90649,9.97571 -0.85944,1.70641 -1.82053,2.81228 -2.4441,2.81228 -0.22154,0 -0.58526,-0.27846 -0.80827,-0.61881 -0.37839,-0.57749 -0.34349,-0.75294 0.52264,-2.62756 1.32475,-2.86725 1.80323,-5.14516 1.65229,-7.86613 -0.36378,-6.55785 -4.94456,-12.4155 -11.48892,-14.6914 -3.84273,-1.33637 -6.79316,-1.4316 -11.04233,-0.35643 -2.06632,0.52285 -2.10626,0.5232 -2.77812,0.0247 -0.95065,-0.7053 -1.2998,-2.19461 -0.72143,-3.07731 0.57753,-0.88142 1.60785,-1.39394 4.06625,-2.0227 7.85075,-2.00788 18.19963,2.44285 22.40057,9.63379 0.56489,0.96694 1.12519,1.75807 1.24513,1.75807 0.11994,0 0.78885,-0.33239 1.48648,-0.73864 1.81148,-1.05487 4.15443,-2.01947 6.2955,-2.59186 2.65221,-0.70904 9.29293,-0.71185 11.90625,-0.005 2.28036,0.61675 4.74409,1.70147 6.30714,2.77688 l 1.18086,0.81245 0.17377,-1.91283 c 0.4532,-4.98879 1.15871,-7.46422 3.97618,-13.95137 2.89727,-6.67088 4.10476,-10.84508 4.10476,-14.18987 0,-1.13557 -0.0157,-1.15597 -0.88912,-1.15597 -0.48901,0 -1.43153,-0.0743 -2.09449,-0.16521 -1.20027,-0.16452 -1.20772,-0.16062 -1.75931,0.92059 -0.79745,1.56311 -1.80929,2.0238 -4.38521,1.99655 -1.61739,-0.0171 -2.57448,-0.19311 -4.05756,-0.74619 -1.72993,-0.64513 -1.98877,-0.68105 -2.38125,-0.33049 -1.74441,1.55805 -4.75609,2.2188 -6.34047,1.39108 -0.9593,-0.50116 -2.07268,-1.70808 -2.41743,-2.62053 -0.40271,-1.06587 -0.34721,-2.91647 0.12269,-4.09087 0.36489,-0.91197 0.36285,-1.12424 -0.0211,-2.18817 -0.23385,-0.64802 -0.49116,-2.08521 -0.5718,-3.19376 -0.13084,-1.79853 -0.0708,-2.18105 0.55713,-3.55275 1.63305,-3.56705 5.69914,-8.7084 8.08397,-10.22174 0.91832,-0.58273 1.49129,-0.74643 2.6126,-0.74643 2.18286,0 7.58012,1.18643 11.90972,2.61801 7.04066,2.32798 12.04525,4.89672 14.74534,7.56845 1.34391,1.32981 1.67502,1.8452 2.03972,3.175 0.64626,2.35641 0.95951,4.58293 1.25927,8.95056 0.39336,5.73139 1.54454,11.15413 4.73465,22.30295 2.98056,10.41652 3.72096,14.49988 3.72241,20.52959 0.002,8.81967 -1.73297,15.80287 -4.88424,19.65762 -0.4773,0.58385 -1.25056,1.98093 -1.71836,3.10463 -1.64686,3.95593 -2.53115,4.25827 -12.65694,4.32736 -4.11764,0.0281 -7.91389,0.13125 -8.43609,0.22921 -0.61049,0.11453 -1.43266,0.62828 -2.30294,1.43905 -2.87919,2.68228 -6.24216,4.40859 -10.8785,5.58423 -4.74688,1.20368 -7.81276,1.39943 -18.65312,1.19096 -10.97132,-0.211 -12.1177,-0.0921 -15.59071,1.61757 -2.26992,1.11739 -5.33285,3.9729 -7.13055,6.64766 -0.61151,0.90986 -1.40032,1.84331 -1.75292,2.07434 -0.83729,0.54862 -2.50557,0.73043 -3.17478,0.34601 z m 53.31354,-88.07986 c 0,-0.14552 -0.23812,-0.26459 -0.52916,-0.26459 -0.29105,0 -0.52917,0.11907 -0.52917,0.26459 0,0.14552 0.23812,0.26458 0.52917,0.26458 0.29104,0 0.52916,-0.11906 0.52916,-0.26458 z m -15.2282,66.96799 c -3.458,-0.94015 -5.92664,-2.15253 -8.73488,-4.28982 l -1.34122,-1.02077 -2.70403,1.19004 c -4.5539,2.00417 -9.13919,3.09122 -14.58958,3.45881 -2.24285,0.15126 -2.58128,0.11437 -3.14247,-0.3426 -0.47366,-0.38569 -0.58237,-0.65877 -0.44038,-1.10617 0.23513,-0.74082 1.12801,-1.0929 2.77166,-1.0929 5.98974,0 15.52179,-3.8444 21.39551,-8.6291 1.56785,-1.27717 2.41638,-1.44311 3.22818,-0.63131 1.03804,1.03804 0.54637,2.01628 -2.00125,3.98176 l -1.50314,1.15967 0.8923,0.75162 c 1.25204,1.05464 4.80363,2.75337 6.84542,3.27415 3.45901,0.88226 8.05645,0.42969 11.63613,-1.14546 1.58645,-0.69808 2.84605,-0.71896 3.26211,-0.0541 0.48831,0.78038 -0.0543,1.3134 -2.52669,2.48203 -4.8586,2.29652 -9.41941,3.00055 -13.04767,2.01411 z m 30.65592,-8.39874 c -0.27825,-0.7251 0.23367,-1.15912 2.11026,-1.78914 5.07809,-1.70485 6.16108,-5.93916 4.29925,-16.80938 -0.77297,-4.51299 -0.6605,-5.12345 0.96902,-5.25919 0.77984,-0.065 1.05497,0.0419 1.37808,0.53497 0.46107,0.70368 1.63871,7.5203 1.90219,11.01055 0.489,6.47764 -1.82622,10.48473 -7.04838,12.19908 -2.03925,0.66945 -3.38081,0.71148 -3.61042,0.11311 z"
         id="path840"
         inkscape:connector-curvature="0" />
      <path
         style="fill:#b0b0b0;stroke-width:1"
         d="m 196.98599,315.08196 c -0.62262,-0.30007 -1.0199,-1.27881 -0.88239,-2.17389 0.14693,-0.95635 2.08371,-3.4735 4.2162,-5.47959 3.36551,-3.16603 6.99294,-4.85202 12.4808,-5.80094 2.72731,-0.47159 4.22592,-0.52485 14.45759,-0.51379 14.38742,0.0155 16.40674,-0.23449 21.43352,-2.6538 2.17157,-1.04514 3.11588,-1.69969 4.93122,-3.41806 1.50465,-1.42427 2.52786,-2.18188 3.10185,-2.29668 0.47109,-0.0942 2.41262,-0.0127 4.31451,0.18127 5.20319,0.53051 11.71626,-0.20554 12.9773,-1.46658 0.21253,-0.21253 0.51956,-1.0072 0.68228,-1.76594 0.18644,-0.86932 0.67295,-1.87373 1.31549,-2.71583 1.31403,-1.72214 1.92044,-2.95512 2.7526,-5.59671 1.02839,-3.2645 1.55849,-7.35282 1.5746,-12.14377 0.0173,-5.15609 -0.38511,-7.62877 -3.01341,-18.51476 -3.30251,-13.67843 -4.45852,-19.55748 -4.4754,-22.76024 -0.0105,-1.98777 -0.79166,-6.51702 -1.57438,-9.12813 -0.54433,-1.81588 -0.7592,-2.14617 -2.53058,-3.88987 -1.59635,-1.57142 -2.46081,-2.16175 -4.93053,-3.36706 -3.38771,-1.65332 -7.35535,-3.00221 -11.68534,-3.97271 -4.1588,-0.93214 -6.47533,-1.11625 -7.48373,-0.59478 -1.8012,0.93143 -6.12343,6.42867 -7.13295,9.07206 -0.35237,0.92266 -0.37259,1.34744 -0.12167,2.55612 0.16552,0.79726 0.46241,1.6704 0.65977,1.94031 0.34567,0.47272 0.40429,0.46573 1.59758,-0.19049 0.68131,-0.37467 1.24061,-0.7882 1.24288,-0.91896 0.002,-0.13076 -0.573,-0.42602 -1.27839,-0.65614 -2.40331,-0.78404 -1.51498,-1.93097 1.49561,-1.93097 0.94588,0 1.99082,0.14753 2.32208,0.32783 0.98892,0.53827 2.06785,-0.41757 2.42815,-2.15112 0.47827,-2.30116 2.77582,-5.74922 3.83089,-5.74922 0.75206,0 0.77078,0.78396 0.0526,2.20342 -0.83095,1.64235 -0.93324,2.70943 -0.23319,2.43259 1.03872,-0.41078 2.23805,-0.47681 2.44939,-0.13486 0.34317,0.55525 0.0171,1.00777 -0.95816,1.32962 -1.19779,0.39531 -2.2261,1.28632 -3.93107,3.40622 -1.39544,1.73503 -1.8013,2.02991 -6.88673,5.00347 -2.01124,1.17603 -2.12083,1.28837 -2.20033,2.25581 -0.0563,0.68531 0.0652,1.18264 0.37174,1.52135 0.77645,0.85797 1.74792,0.61633 3.9836,-0.99085 3.68301,-2.64765 4.84879,-2.86869 11.95064,-2.26594 4.54824,0.38601 4.99849,0.38235 7.34558,-0.0597 3.00651,-0.56627 3.93005,-1.13112 5.00968,-3.06405 0.80902,-1.44844 1.58805,-1.96279 1.86798,-1.23331 0.23438,0.61079 -0.32542,2.31543 -1.22754,3.73792 -0.80914,1.27588 -0.82683,1.37385 -0.90723,5.02302 -0.13281,6.02818 -1.03894,9.53766 -4.45404,17.25077 -2.05608,4.64372 -2.70232,6.52299 -2.96016,8.60821 -0.084,0.67933 -0.33913,1.38984 -0.56696,1.57892 -0.34933,0.28992 -0.49239,0.24726 -0.91307,-0.27226 -0.27437,-0.33882 -0.49678,-0.93028 -0.49425,-1.31434 0.009,-1.36368 0.75835,-4.22169 1.85386,-7.07031 3.3519,-8.71586 4.05173,-11.21716 4.50225,-16.09164 0.30521,-3.30216 0.21282,-4.39155 -0.37241,-4.39155 -0.25846,0 -0.39694,0.7186 -0.52262,2.71198 -0.27711,4.39526 -1.30141,7.96908 -4.07601,14.22136 -3.16659,7.1356 -3.83652,9.74695 -3.84951,15.00536 l -0.009,3.49599 0.93902,1.53109 c 1.49585,2.43902 2.54319,5.31169 2.98668,8.19193 0.13964,0.90692 0.0718,1.20284 -0.37899,1.65365 -0.30198,0.30198 -0.64967,0.54906 -0.77263,0.54906 -0.53195,0 -1.05525,-1.05469 -1.36885,-2.75888 -0.84394,-4.58618 -4.01059,-8.63133 -8.48691,-10.84138 -3.37192,-1.66479 -5.54395,-2.09118 -9.89671,-1.94283 -2.96489,0.10105 -3.77567,0.23104 -5.87485,0.94188 -2.6103,0.88393 -4.69946,1.95892 -6.12265,3.15042 l -0.885,0.74093 0.28969,1.56707 c 0.62734,3.39359 0.11042,6.46626 -1.70738,10.14909 -1.28879,2.61106 -2.09418,3.36475 -2.88989,2.70437 -0.54484,-0.45218 -0.52771,-0.55924 0.41071,-2.56639 2.01157,-4.30249 2.30267,-8.32805 0.88648,-12.25893 -3.1358,-8.70395 -12.44781,-13.44634 -21.77263,-11.08829 -2.00579,0.50722 -2.23061,0.51794 -2.81614,0.13429 -0.76305,-0.49997 -1.10974,-1.96379 -0.66286,-2.79879 0.17116,-0.31983 0.9262,-0.85263 1.67786,-1.18402 8.113,-3.5768 20.32023,1.0511 24.7639,9.38827 l 0.84781,1.59066 1.10664,-0.6877 c 7.77669,-4.83266 18.24905,-4.86552 25.2314,-0.0792 0.6083,0.41699 1.15627,0.75816 1.21772,0.75816 0.0614,0 0.19065,-1.12308 0.28714,-2.49573 0.3001,-4.26922 1.38942,-7.81675 4.77948,-15.56513 0.8125,-1.85706 1.77715,-4.41127 2.14366,-5.67602 0.73138,-2.52386 1.36798,-7.40845 1.01036,-7.75246 -0.12408,-0.11938 -1.17811,-0.2551 -2.34227,-0.30162 l -2.11667,-0.0846 -0.52917,0.99456 c -0.80868,1.51992 -2.32522,2.15237 -4.72241,1.96943 -1.04069,-0.0794 -2.6808,-0.44192 -3.64469,-0.80554 l -1.75253,-0.66113 -1.15789,0.77488 c -1.71496,1.14768 -3.7054,1.67465 -4.87159,1.28978 -2.75947,-0.91071 -4.01466,-3.52793 -3.04303,-6.34507 0.49414,-1.43273 0.49386,-1.47544 -0.0197,-2.9999 -0.28653,-0.85056 -0.53976,-2.33964 -0.56274,-3.30907 -0.0346,-1.46134 0.0853,-2.01134 0.70156,-3.21782 2.07317,-4.05861 6.18597,-9.07495 8.35739,-10.19341 1.18159,-0.60863 3.04218,-0.56859 6.48362,0.13952 9.97638,2.05272 20.57724,6.94879 23.21566,10.7223 0.98811,1.4132 1.70027,4.92085 2.0512,10.10288 0.43751,6.46056 1.02634,9.28146 4.86512,23.30738 2.66291,9.7296 3.25817,12.50513 3.60928,16.82891 0.29397,3.62026 0.006,9.06908 -0.67289,12.7496 -0.77099,4.17735 -2.22827,7.7303 -4.22576,10.30267 -0.65724,0.8464 -1.19508,1.66692 -1.19519,1.82338 -1.1e-4,0.15647 -0.35137,1.02676 -0.78056,1.934 -1.46071,3.08765 -3.39296,3.63195 -12.58069,3.54388 -8.27374,-0.0793 -8.56353,-0.0361 -10.30101,1.53742 -3.9468,3.57423 -8.70112,5.58258 -15.41278,6.51073 -2.54653,0.35216 -5.03768,0.41291 -13.96063,0.34043 -12.07334,-0.0981 -12.49677,-0.0531 -16.02037,1.70074 -2.02527,1.00808 -5.42274,4.22957 -7.10948,6.74123 -1.51935,2.26241 -3.03738,2.94333 -4.73638,2.12453 z m 53.80396,-87.51619 c 0.20638,0 0.37523,-0.11906 0.37523,-0.26458 0,-0.14552 -0.67865,-0.26459 -1.50812,-0.26459 -0.90653,0 -1.40786,0.0953 -1.25677,0.23891 0.32672,0.31053 1.21401,0.51933 1.66205,0.3911 0.19381,-0.0555 0.52123,-0.10084 0.72761,-0.10084 z m -15.89664,66.4396 c -3.13313,-0.85179 -6.39616,-2.56361 -9.13729,-4.79352 l -0.67061,-0.54555 -2.10751,0.97402 c -4.60174,2.12678 -9.51972,3.36317 -14.71319,3.69893 -2.85913,0.18485 -3.93078,-0.0356 -3.93078,-0.80868 0,-0.81728 0.76317,-1.11996 3.26781,-1.29601 6.74848,-0.47438 15.05536,-3.88952 20.7561,-8.53331 1.50734,-1.22788 2.38619,-1.4355 3.09135,-0.73034 0.95759,0.95759 0.15113,2.12968 -3.04399,4.42407 l -0.65564,0.47082 1.00792,0.88486 c 0.55436,0.48667 1.82827,1.31593 2.83091,1.84281 4.83384,2.54011 10.52131,2.67977 16.01381,0.39324 1.5959,-0.66438 2.04348,-0.75525 2.50454,-0.50849 1.57676,0.84385 -0.51135,2.34909 -5.55614,4.0052 -3.29206,1.08071 -6.88727,1.27503 -9.65729,0.52195 z m 31.13628,-8.53261 c 0.0656,-0.43886 0.47069,-0.69134 1.80434,-1.12448 2.245,-0.72912 3.53475,-1.74703 4.36577,-3.44557 1.40276,-2.86713 1.46162,-6.03774 0.24925,-13.42529 -0.36155,-2.20312 -0.58515,-4.23321 -0.49689,-4.51132 0.24824,-0.78211 1.3787,-1.10429 2.1353,-0.60855 0.34415,0.2255 0.62574,0.45527 0.62574,0.51059 0,0.0553 0.3012,1.86827 0.66934,4.02879 1.2392,7.27263 1.16086,11.30251 -0.2742,14.10586 -0.61596,1.20327 -2.06969,2.73926 -3.30556,3.49262 -1.21079,0.73808 -3.7104,1.54328 -4.79082,1.54328 -0.93988,0 -1.05675,-0.0673 -0.98227,-0.56593 z"
         id="path838"
         inkscape:connector-curvature="0" />
      <path
         style="fill:#8f8f8f;stroke-width:1"
         d="m 197.26555,315.01044 c -1.76265,-0.75309 -1.36177,-2.48519 1.32085,-5.70705 3.27443,-3.93265 8.042,-6.48064 14.2142,-7.59667 2.16125,-0.39079 4.05208,-0.44448 13.49067,-0.38311 11.82545,0.0769 15.28496,-0.15876 18.95417,-1.29105 3.55573,-1.09727 7.1362,-3.30387 9.52999,-5.8732 1.29837,-1.39358 2.07457,-1.56302 5.25329,-1.14669 4.41732,0.57855 11.26952,0.0609 13.33535,-1.00735 0.94448,-0.48841 1.22343,-0.94891 1.46734,-2.42234 0.11199,-0.67653 0.62178,-1.67402 1.35221,-2.64584 1.58061,-2.10296 2.702,-4.88823 3.50421,-8.70366 0.58492,-2.78198 0.67041,-3.86277 0.69068,-8.73125 0.0271,-6.50478 0.0193,-6.55242 -3.41323,-20.90208 -2.87204,-12.00654 -3.49995,-15.20233 -3.85742,-19.63256 -0.50775,-6.29289 -1.63014,-11.106 -3.01247,-12.91833 -1.0603,-1.39012 -3.40073,-3.14454 -5.96562,-4.47191 -4.03048,-2.08584 -11.1332,-4.22049 -16.35535,-4.91543 -2.13665,-0.28434 -2.23325,-0.27339 -3.34727,0.37947 -2.59742,1.52219 -7.3378,8.18976 -7.3378,10.32095 0,1.05914 0.47215,2.8082 0.92538,3.42803 0.3372,0.46115 0.42634,0.44353 1.86528,-0.36856 1.72967,-0.97616 1.68565,-1.41391 -0.17926,-1.78272 -1.33278,-0.26357 -1.63333,-0.98936 -0.57614,-1.3913 0.93566,-0.35573 2.88123,-0.33558 4.14458,0.0429 0.96381,0.28876 1.07688,0.26236 1.78605,-0.41708 0.45002,-0.43114 0.82022,-1.11959 0.9127,-1.69734 0.32756,-2.04623 2.62114,-5.6022 3.61339,-5.6022 0.77729,0 0.90022,0.51483 0.31268,1.30953 -0.58552,0.79195 -1.24258,2.87949 -0.98684,3.13524 0.0869,0.0869 0.6502,0.0267 1.25175,-0.13391 2.25934,-0.60305 2.44678,0.32555 0.28478,1.41083 -1.13718,0.57083 -1.91824,1.25571 -3.13053,2.74498 -1.6591,2.03819 -2.88844,2.96505 -6.97941,5.2621 -1.63996,0.92083 -2.29636,1.44522 -2.47323,1.97581 -0.32849,0.98548 -0.0451,1.93131 0.73109,2.43987 0.88848,0.58216 1.87529,0.21733 4.32084,-1.59743 1.06355,-0.78923 2.37324,-1.58925 2.91042,-1.77782 1.12484,-0.39488 4.96786,-0.43104 10.64734,-0.10019 3.21045,0.18702 4.17718,0.15137 5.82084,-0.21463 2.47943,-0.5521 3.33011,-1.11157 4.36171,-2.86856 0.45187,-0.76961 1.03884,-1.44113 1.30439,-1.49227 0.77489,-0.14923 0.35951,1.8457 -0.76296,3.66425 -0.94735,1.53483 -0.94777,1.53688 -0.94883,4.67063 -0.002,5.95197 -0.99828,9.85114 -4.60958,18.041 -2.05414,4.65847 -2.79769,6.89114 -2.79769,8.40064 0,0.95099 -0.57519,1.5725 -1.22465,1.32328 -0.37334,-0.14326 -0.41607,-0.46832 -0.29083,-2.21241 0.15389,-2.14323 0.57931,-3.52204 3.23108,-10.47209 1.97852,-5.18556 2.76043,-8.63853 2.96575,-13.09703 0.15548,-3.37629 0.14035,-3.5287 -0.3411,-3.43637 -0.43729,0.0839 -0.54555,0.49673 -0.82016,3.12768 -0.52222,5.0032 -1.2787,7.54621 -4.27273,14.36331 -3.07058,6.9914 -3.85711,10.23565 -3.70539,15.28383 0.09,2.99547 0.11693,3.11446 1.0491,4.6417 1.29357,2.11932 2.27398,4.6827 2.66654,6.9719 0.3477,2.02761 0.1804,2.71489 -0.70313,2.88855 -0.69378,0.13637 -0.86591,-0.17071 -1.31167,-2.33991 -1.71652,-8.35316 -9.57304,-13.78164 -19.02067,-13.14237 -3.94727,0.26709 -7.23047,1.35103 -10.50145,3.46701 l -1.82093,1.17795 0.15153,3.25652 c 0.17082,3.6713 -0.15063,5.45433 -1.50837,8.3666 -1.12047,2.40334 -1.79488,3.26956 -2.47024,3.17281 -0.83961,-0.12028 -0.82603,-0.80249 0.0528,-2.65171 1.31155,-2.7599 1.69946,-4.72063 1.559,-7.88015 -0.14025,-3.155 -0.79641,-5.24449 -2.46702,-7.85607 -3.8812,-6.06729 -12.00843,-9.45737 -18.89659,-7.88224 -1.0914,0.24958 -2.37664,0.51316 -2.85607,0.58574 -1.1961,0.18108 -1.90643,-0.49055 -1.90643,-1.80256 0,-1.25139 0.7488,-1.89628 3.0143,-2.59602 6.66764,-2.05942 15.14301,0.45753 20.58137,6.1121 0.97216,1.0108 2.16278,2.60219 2.64584,3.53642 0.48306,0.93422 0.97653,1.69903 1.09661,1.69957 0.12008,5.3e-4 1.01305,-0.46919 1.98438,-1.04383 3.30965,-1.95803 7.96072,-3.18265 12.10235,-3.18653 4.4602,-0.004 9.47246,1.51849 12.5235,3.80448 0.49466,0.37062 0.98262,0.62242 1.08435,0.55954 0.10174,-0.0629 0.25778,-1.39837 0.34675,-2.96777 0.20697,-3.65046 1.06372,-6.81564 3.13574,-11.5847 3.70588,-8.52965 4.52234,-11.22821 4.56288,-15.08125 l 0.0251,-2.38125 -2.30455,-0.0763 -2.30455,-0.0763 -0.54232,1.06303 c -0.73344,1.43766 -1.79439,1.9435 -4.04676,1.9294 -1.26579,-0.008 -2.43437,-0.22964 -3.90074,-0.7401 l -2.09356,-0.72879 -1.0947,0.72444 c -2.39444,1.58456 -4.22024,1.83558 -5.95531,0.81876 -1.98433,-1.16289 -2.72916,-3.64396 -1.79491,-5.97889 0.40735,-1.01807 0.40627,-1.18716 -0.0161,-2.527 -0.24895,-0.78975 -0.51378,-2.23595 -0.58851,-3.21376 -0.12472,-1.6318 -0.0611,-1.92997 0.77429,-3.62992 1.82558,-3.7148 5.69738,-8.43474 8.07539,-9.84435 1.03154,-0.61147 1.31082,-0.65925 2.91041,-0.49789 6.36744,0.6423 15.8888,3.8048 21.87772,7.26664 2.65616,1.53537 5.19984,4.00396 5.62282,5.45685 0.59446,2.04188 1.14207,5.85657 1.38634,9.65737 0.36612,5.69677 1.02007,8.66368 5.54018,25.13534 2.55465,9.3094 2.78015,10.71389 2.78241,17.33021 0.002,4.44339 -0.1085,6.41564 -0.46496,8.33437 -0.91826,4.94273 -2.19818,8.26335 -4.257,11.04435 -0.62027,0.83785 -1.40109,2.21112 -1.73516,3.05171 -1.11477,2.80505 -1.81372,3.33684 -5.31923,4.04715 -1.87248,0.37941 -3.11368,0.42425 -7.78628,0.28124 -7.35054,-0.22497 -8.12079,-0.10366 -10.09798,1.5904 -6.74783,5.78153 -14.21202,7.46409 -29.85657,6.73022 -9.33678,-0.43799 -12.97426,0.0775 -16.46427,2.33319 -2.32979,1.50581 -3.5531,2.6948 -5.63509,5.47695 -1.01623,1.35798 -2.05554,2.57557 -2.30958,2.70574 -0.92496,0.47398 -1.80309,0.53312 -2.63548,0.17747 z m 53.84672,-87.49759 c 0.17462,-0.17462 0.3175,-0.41275 0.3175,-0.52916 0,-0.2992 -3.11105,-0.26462 -3.29725,0.0367 -0.41399,0.66986 2.34619,1.12608 2.97975,0.49251 z m -15.16423,66.62044 c -3.4243,-0.78108 -6.34795,-2.24499 -10.58266,-5.2989 -0.23182,-0.16718 -1.02745,0.0661 -2.46165,0.72167 -4.4291,2.02459 -8.72434,3.12835 -14.12921,3.63082 -3.43641,0.31947 -4.27306,0.14277 -4.12591,-0.87139 0.0972,-0.67004 0.83737,-0.92179 2.81876,-0.95876 5.57486,-0.10401 14.24951,-3.49996 20.04251,-7.84623 1.44151,-1.08152 2.76976,-1.96714 2.95166,-1.96806 0.37455,-0.002 1.38906,0.93703 1.38906,1.28557 0,0.45445 -1.12582,1.64418 -2.70772,2.86142 l -1.61371,1.24173 0.98582,0.85218 c 1.34887,1.166 4.1266,2.58129 6.51061,3.31724 1.57917,0.48749 2.57867,0.61042 4.89479,0.60204 3.10855,-0.0113 5.11484,-0.42036 7.72718,-1.57566 1.69364,-0.74901 2.26633,-0.8031 2.71965,-0.25689 0.46486,0.56012 -0.43239,1.28212 -2.99558,2.41049 -4.27967,1.88399 -8.3748,2.54815 -11.4236,1.85273 z m 30.15041,-8.38457 c -0.27206,-0.4402 0.38752,-0.88962 2.03211,-1.3846 1.94404,-0.58512 3.67461,-2.10806 4.47471,-3.93786 0.83181,-1.90233 1.00545,-6.35977 0.39978,-10.26257 -1.02435,-6.60064 -1.05542,-6.89803 -0.76858,-7.35625 0.44822,-0.71602 1.58382,-0.71708 2.03768,-0.002 0.4532,0.71411 1.43447,6.40314 1.71803,9.96036 0.59914,7.51646 -1.62116,11.34074 -7.49679,12.91261 -1.61546,0.43217 -2.16332,0.44822 -2.39694,0.0702 z"
         id="path836"
         inkscape:connector-curvature="0" />
      <path
         style="fill:#6f6f6f;stroke-width:1"
         d="m 196.75594,314.46809 c -0.8177,-0.81771 -0.71437,-1.48911 0.50304,-3.26845 3.66246,-5.35299 9.21948,-8.49404 16.91562,-9.56142 1.35745,-0.18826 6.90237,-0.32067 14.501,-0.34628 11.91219,-0.0401 12.38299,-0.061 14.81667,-0.65756 1.38244,-0.33886 3.72219,-1.19805 5.19944,-1.90932 2.17836,-1.04883 3.11498,-1.69935 4.95648,-3.44249 2.6897,-2.54602 2.94628,-2.6176 7.50241,-2.09281 4.98763,0.57449 11.67649,-0.23798 13.02,-1.58149 0.26767,-0.26767 0.61808,-1.09936 0.77867,-1.84819 0.17988,-0.83872 0.68713,-1.89078 1.32105,-2.73989 2.90972,-3.89747 4.32735,-9.76884 4.32548,-17.91483 -10e-4,-5.41986 -0.41418,-7.78852 -3.73613,-21.43125 -2.05912,-8.45648 -3.10154,-13.537 -3.44724,-16.80105 -0.15413,-1.45521 -0.40333,-3.8205 -0.55378,-5.2562 -0.15046,-1.43571 -0.58621,-3.85813 -0.96835,-5.38316 -0.77855,-3.10702 -1.6255,-4.49145 -3.92408,-6.41428 -2.76029,-2.30907 -9.50593,-5.06891 -15.79878,-6.46375 -4.21915,-0.93519 -6.52928,-1.12209 -7.52229,-0.60859 -1.82069,0.94152 -5.95945,6.09206 -7.26261,9.03806 -0.4144,0.93682 -0.50112,1.49863 -0.36112,2.33957 0.24873,1.49408 0.9048,3.09106 1.26986,3.09106 0.65855,0 3.09061,-1.47273 3.02297,-1.83056 -0.039,-0.20644 -0.65765,-0.56363 -1.37473,-0.79375 -1.6908,-0.54259 -1.80603,-0.96958 -0.36697,-1.3598 1.09684,-0.29743 3.04472,-0.11795 4.2134,0.38822 0.67888,0.29403 1.99736,-0.99401 2.2083,-2.1573 0.40558,-2.23669 2.72901,-5.88848 3.74651,-5.88848 0.52612,0 0.45084,0.72534 -0.16505,1.59028 -0.29213,0.41025 -0.60838,1.30941 -0.70277,1.99812 l -0.17164,1.25221 0.76892,-0.2166 c 1.09153,-0.30747 2.20337,-0.30441 2.25421,0.006 0.0238,0.14552 -0.41969,0.48782 -0.98557,0.76066 -1.46648,0.70706 -2.06887,1.23241 -3.57813,3.12047 -1.48463,1.85724 -2.95834,3.01008 -5.52055,4.31854 -0.94588,0.48304 -2.2258,1.24749 -2.84427,1.69877 -0.99824,0.72839 -1.12448,0.93913 -1.12448,1.87718 0,0.7039 0.17667,1.23334 0.52917,1.58584 0.99651,0.99651 2.12771,0.64096 5.15937,-1.62167 2.61648,-1.95277 4.15844,-2.18668 10.75178,-1.63102 4.6007,0.38773 5.10103,0.38494 7.47061,-0.0417 2.80059,-0.50425 3.91632,-1.08732 4.84651,-2.53272 1.21519,-1.88825 1.46096,-2.16031 1.7187,-1.90257 0.38132,0.38132 -0.16671,2.10689 -1.15372,3.63273 -0.80721,1.24787 -0.8492,1.43532 -0.7803,3.48317 0.19977,5.93694 -1.13875,11.28572 -4.85872,19.41566 -1.45772,3.18583 -2.28043,5.64996 -2.68882,8.05335 -0.25345,1.4916 -0.84502,1.78007 -1.25569,0.61233 -0.36159,-1.02817 0.34171,-4.25835 1.68871,-7.75608 3.34875,-8.69563 4.0505,-11.2072 4.49208,-16.07727 0.34939,-3.85333 0.13451,-5.18423 -0.75975,-4.70564 -0.38816,0.20773 -0.50204,0.73942 -0.63773,2.97728 -0.26767,4.41471 -1.26128,7.87933 -4.08205,14.23376 -3.15034,7.09681 -3.86994,9.92915 -3.84797,15.14565 l 0.0142,3.37169 1.03953,1.78768 c 1.23113,2.11718 1.7776,3.38884 2.30315,5.35956 0.70441,2.64139 0.76882,3.58599 0.27802,4.07679 -0.84665,0.84666 -1.19776,0.39127 -1.81726,-2.357 -1.42065,-6.30232 -6.39973,-11.02215 -13.11854,-12.4355 -2.35514,-0.49542 -6.72284,-0.50479 -9.01284,-0.0193 -2.58683,0.54838 -5.50855,1.76713 -7.65128,3.19161 -1.80864,1.20239 -1.89778,1.30873 -1.75168,2.09004 0.75762,4.05175 0.33675,7.32881 -1.40337,10.92716 -1.06976,2.21213 -1.66986,2.99291 -2.30035,2.99291 -0.71045,0 -0.67636,-0.72571 0.11368,-2.4202 1.85728,-3.98354 2.28688,-7.29273 1.40378,-10.81334 -0.77764,-3.1002 -1.95362,-5.28616 -4.05333,-7.53451 -2.17992,-2.33423 -4.43632,-3.84193 -7.38099,-4.93191 -1.89473,-0.70133 -2.70142,-0.84404 -5.40996,-0.95708 -2.67334,-0.11158 -3.53956,-0.0427 -5.40818,0.4298 -2.71227,0.68587 -2.51707,0.68688 -3.17228,-0.0164 -1.14103,-1.22476 -0.59192,-2.56727 1.36964,-3.34859 4.04031,-1.60934 9.03894,-1.4714 13.7626,0.37979 4.2076,1.64894 8.69027,5.40217 10.46776,8.76439 0.47822,0.90456 0.95395,1.69552 1.05719,1.75768 0.10324,0.0622 1.05364,-0.39591 2.112,-1.01794 7.42645,-4.36478 17.58511,-4.18543 24.31713,0.42931 0.60831,0.41699 1.23338,0.75816 1.38907,0.75816 0.16886,0 0.28305,-0.62643 0.28305,-1.55284 0,-3.73146 1.16284,-8.15835 3.62308,-13.79299 3.32599,-7.61744 4.23099,-10.63241 4.36806,-14.55209 l 0.0786,-2.24895 -2.36736,-0.1323 c -2.51415,-0.14049 -2.50205,-0.1451 -3.34266,1.2727 -1.07148,1.80717 -3.93735,2.14066 -7.55973,0.87969 l -2.15725,-0.75095 -1.41462,0.87465 c -2.04867,1.26668 -3.54884,1.57558 -4.94291,1.01778 -2.55832,-1.02364 -3.55901,-3.9275 -2.25038,-6.53035 0.32043,-0.63732 0.29762,-0.91842 -0.19261,-2.37364 -0.30752,-0.91285 -0.57305,-2.42282 -0.59405,-3.3781 -0.0339,-1.54288 0.0745,-1.93928 1.01471,-3.71087 2.16223,-4.07404 6.04042,-8.59974 8.17979,-9.54551 0.92989,-0.41107 1.36069,-0.44033 3.19165,-0.21672 2.88918,0.35284 8.12208,1.66069 11.49425,2.87274 9.01586,3.24054 14.25624,6.60701 15.19253,9.75983 0.53007,1.78495 1.12874,6.13068 1.46335,10.6225 0.33717,4.5262 1.07146,7.98103 3.88993,18.30222 4.08611,14.96329 4.85247,19.28042 4.47727,25.22175 -0.51284,8.12099 -1.88291,13.07924 -4.66934,16.89824 -0.73796,1.01142 -1.50704,2.30745 -1.70907,2.88007 -0.70255,1.99124 -1.49253,3.09056 -2.60481,3.6248 -2.14751,1.03148 -3.4531,1.17328 -10.2039,1.10826 -8.42312,-0.0811 -8.69374,-0.0413 -10.4333,1.53402 -3.94842,3.57571 -8.70075,5.58253 -15.42053,6.51181 -2.55687,0.35359 -5.0302,0.4139 -13.96063,0.34043 -12.03068,-0.099 -12.44362,-0.0558 -15.98826,1.67208 -2.04716,0.99792 -5.1992,3.92233 -7.05219,6.54292 -0.71756,1.01481 -1.6211,2.03203 -2.00788,2.2605 -1.06268,0.62774 -2.2548,0.52604 -3.0402,-0.25936 z m 54.62091,-86.95524 c 0.60705,-0.60705 0.30604,-0.74083 -1.66688,-0.74083 -1.9541,0 -2.43151,0.24244 -1.52135,0.77256 0.64311,0.37457 2.80343,0.35308 3.18823,-0.0317 z m -16.74813,66.18464 c -2.60634,-0.75714 -5.83365,-2.40748 -7.78875,-3.98292 l -1.66605,-1.34252 -2.28406,1.04936 c -4.66286,2.14224 -9.56218,3.37082 -14.59091,3.65887 -2.63707,0.15105 -3.09473,0.11631 -3.40583,-0.25854 -0.58343,-0.70299 0.0755,-1.2268 1.54325,-1.2268 3.55403,0 10.35856,-1.85579 14.59602,-3.98076 2.55859,-1.28306 5.28631,-2.9998 7.39509,-4.65423 1.54088,-1.20889 2.34403,-1.42033 2.8911,-0.76115 0.59906,0.72182 0.0531,1.63267 -1.84736,3.08202 -1.01967,0.77764 -1.85395,1.54981 -1.85395,1.71594 0,0.4278 1.50552,1.52275 3.78236,2.75086 4.9445,2.66703 11.0037,2.81992 16.43475,0.4147 1.54561,-0.6845 2.53705,-0.70238 2.53705,-0.0458 0,0.53858 -0.79038,1.09371 -2.77812,1.95126 -3.43661,1.48261 -5.378,1.96464 -8.33438,2.06933 -2.22264,0.0787 -3.14844,-0.009 -4.63021,-0.43966 z m 31.68229,-8.2494 c 0.0598,-0.17932 0.83689,-0.57679 1.72693,-0.88327 3.07841,-1.06005 4.51516,-2.76543 5.25395,-6.2363 0.49954,-2.34687 0.37749,-4.58703 -0.58867,-10.80466 l -0.67744,-4.35962 0.57922,-0.46903 c 0.69037,-0.55902 0.81013,-0.57029 1.40875,-0.13257 0.58502,0.42778 1.71526,6.96161 1.94207,11.22697 0.26182,4.92367 -0.75983,7.86072 -3.43668,9.87981 -2.02328,1.52612 -6.55692,2.82503 -6.20813,1.77867 z"
         id="path834"
         inkscape:connector-curvature="0" />
      <path
         style="fill:#4f4f4f;stroke-width:1"
         d="m 197.32247,314.8267 c -1.23384,-0.69967 -1.22523,-1.65695 0.0319,-3.55095 2.79552,-4.21162 7.40348,-7.37176 12.71313,-8.71866 4.12217,-1.04568 7.29194,-1.23844 17.15286,-1.04314 9.86524,0.19539 13.05351,0.002 17.15502,-1.03795 3.96825,-1.00663 6.9051,-2.66833 10.05223,-5.68766 l 1.80724,-1.73385 2.42609,0.12513 c 4.73566,0.24426 11.13468,0.14088 12.48025,-0.20162 3.04248,-0.77443 3.57923,-1.25119 3.94996,-3.50847 0.0844,-0.51413 0.64646,-1.5857 1.24894,-2.38125 2.64557,-3.49341 4.00683,-8.51823 4.36995,-16.13084 0.26858,-5.63056 -0.21272,-8.69323 -3.51346,-22.35729 -2.59887,-10.75856 -3.48642,-15.19152 -3.8141,-19.05 -0.59403,-6.99479 -1.63716,-11.64337 -3.01939,-13.45561 -3.20957,-4.20802 -12.10356,-8.07451 -21.98611,-9.55804 -2.27136,-0.34096 -2.65369,-0.3376 -3.57618,0.0315 -1.25408,0.50178 -3.70754,3.06582 -5.55895,5.80949 -2.4113,3.57339 -2.71067,4.6651 -1.96649,7.17104 0.60047,2.022 0.88089,2.13587 2.67634,1.08674 0.83365,-0.48712 1.56282,-1.02699 1.6204,-1.19972 0.11278,-0.33835 -1.53054,-1.13021 -2.34551,-1.13021 -0.7257,0 -0.60785,-0.75581 0.14741,-0.94536 0.67742,-0.17003 3.25776,-0.0188 4.38282,0.25694 1.06061,0.25989 2.04028,-0.75914 2.5271,-2.62864 0.46752,-1.79541 1.45023,-3.60531 2.56453,-4.72322 1.12014,-1.12377 1.51001,-0.55622 0.64321,0.93635 -0.73737,1.26966 -1.15406,2.99165 -0.77989,3.22289 0.13198,0.0816 0.7459,-0.026 1.36425,-0.23903 1.07651,-0.37089 1.6183,-0.32703 1.6183,0.13099 0,0.11717 -0.53826,0.41859 -1.19614,0.66984 -0.84633,0.32321 -1.60077,0.93275 -2.57969,2.08422 -2.23358,2.62729 -3.4534,3.68453 -5.52132,4.78546 -3.83643,2.04247 -4.68043,2.68573 -4.8734,3.71432 -0.20216,1.07764 0.32636,2.11192 1.30769,2.55904 0.8035,0.3661 1.89263,-0.1112 4.2409,-1.85852 2.56662,-1.90979 3.9259,-2.25837 7.94722,-2.03802 9.00779,0.49358 8.98656,0.49348 11.11796,0.0527 2.71041,-0.56053 3.52437,-1.0614 4.57804,-2.81709 0.47633,-0.79369 1.00052,-1.48882 1.16486,-1.54473 0.57419,-0.19534 -0.0102,1.8844 -0.96342,3.42878 l -0.9352,1.51514 v 3.2989 c 0,5.68626 -1.21812,10.5067 -4.42815,17.52342 -2.08999,4.56846 -2.42487,5.49847 -2.81622,7.82114 -0.23222,1.37818 -0.44537,1.96844 -0.71084,1.96844 -0.52002,0 -0.64434,-1.97899 -0.24102,-3.83645 0.17379,-0.80037 1.18223,-3.72 2.24097,-6.48808 2.2621,-5.91426 2.89996,-8.0748 3.43816,-11.64565 0.45499,-3.01871 0.52744,-6.89197 0.13348,-7.13545 -0.14682,-0.0907 -0.48713,-0.0951 -0.75623,-0.01 -0.40986,0.13009 -0.51893,0.54795 -0.67189,2.57424 -0.37148,4.92095 -1.33285,8.33013 -4.12694,14.63483 -3.22651,7.28046 -4.18442,11.3239 -3.87898,16.37353 0.14802,2.44714 0.22576,2.72766 1.2099,4.36562 1.96889,3.27693 3.34277,8.78502 2.29184,9.1883 -0.67775,0.26008 -0.96096,-0.19227 -1.36877,-2.18627 -0.97809,-4.78248 -4.16425,-8.86374 -8.63296,-11.05827 -3.43512,-1.68695 -5.22167,-2.09602 -9.19902,-2.10631 -2.62702,-0.007 -3.76507,0.11491 -5.53289,0.59169 -2.52086,0.67987 -5.38638,2.01064 -7.21744,3.35182 l -1.24096,0.90896 0.15442,3.26807 c 0.18092,3.82908 -0.0628,5.16969 -1.50778,8.29296 -1.0211,2.20712 -1.94162,3.41359 -2.39208,3.13519 -0.44049,-0.27223 -0.28162,-1.07656 0.5395,-2.73155 2.47196,-4.98225 2.02143,-11.08296 -1.17334,-15.88858 -3.80129,-5.71796 -11.02959,-8.98091 -17.74438,-8.01005 -1.21533,0.17572 -2.71375,0.49733 -3.32982,0.71469 -0.98157,0.34632 -1.19277,0.34762 -1.70727,0.0105 -0.79646,-0.52186 -1.04614,-1.63334 -0.54032,-2.40531 0.85164,-1.29978 5.50563,-2.42441 8.87122,-2.14374 7.23566,0.60344 14.13712,4.92833 17.04648,10.6824 0.38628,0.76399 0.82833,1.38907 0.98234,1.38907 0.15401,0 1.07474,-0.47119 2.04607,-1.04708 7.37029,-4.36979 17.33261,-4.23932 24.15477,0.31634 0.87048,0.58129 1.666,0.9737 1.76782,0.87202 0.10181,-0.10167 0.26409,-1.51451 0.36061,-3.13964 0.2089,-3.51743 0.85951,-6.14041 2.50206,-10.08721 3.48325,-8.36976 4.1021,-9.97179 4.60358,-11.91756 0.71845,-2.78757 1.01299,-7.13917 0.4953,-7.31766 -0.20245,-0.0698 -1.37544,-0.11876 -2.60664,-0.1088 l -2.23854,0.0181 -0.58558,1.04038 c -0.32208,0.57221 -0.92208,1.22516 -1.33334,1.45099 -1.1814,0.64874 -4.06073,0.48706 -6.4937,-0.36462 l -2.04179,-0.71475 -1.60891,0.99307 c -2.79778,1.72689 -5.04853,1.48395 -6.68155,-0.7212 -0.74959,-1.01222 -0.88264,-2.84248 -0.3203,-4.40629 0.44289,-1.23163 0.44374,-1.36891 0.0161,-2.59628 -0.24833,-0.71274 -0.51878,-2.132 -0.601,-3.15393 -0.14054,-1.74675 -0.0935,-1.9686 0.78598,-3.70416 1.90261,-3.75472 5.58172,-8.27362 7.78942,-9.56741 1.07013,-0.62714 1.33168,-0.67056 3.06912,-0.50946 2.78385,0.25812 7.42071,1.35833 11.24365,2.66783 6.76379,2.31685 11.58905,4.81142 14.08696,7.2827 1.20528,1.19244 1.54979,1.74187 1.90783,3.04271 0.63368,2.30224 0.95615,4.61374 1.24821,8.94721 0.34232,5.07917 1.17046,9.16592 3.83377,18.919 4.30854,15.77791 4.63352,17.43624 4.63511,23.6523 0.002,8.59672 -1.60724,15.04611 -4.8496,19.43341 -0.62756,0.84915 -1.34035,2.0797 -1.58398,2.73454 -1.50429,4.0432 -3.05127,4.54153 -13.84604,4.46024 -7.66349,-0.0577 -7.76018,-0.0403 -9.61723,1.73538 -3.18719,3.04747 -7.67424,5.05038 -13.75834,6.14139 -2.62993,0.47161 -8.46877,0.59153 -19.84375,0.40756 -4.1322,-0.0668 -5.86657,0.008 -7.28244,0.31453 -4.60586,0.99687 -7.96341,3.42189 -11.36269,8.20678 -1.60385,2.25761 -2.94743,2.96418 -4.24132,2.23046 z m 54.17447,-87.22226 c 0.14722,-0.14723 0.19607,-0.45428 0.10855,-0.68234 -0.25396,-0.66181 -4.14447,-0.51336 -4.14447,0.15814 0,0.80567 3.32286,1.23725 4.03592,0.5242 z m -16.07621,66.12091 c -3.6052,-0.94571 -6.43133,-2.34877 -8.92124,-4.42903 -0.57692,-0.48201 -1.19963,-0.87638 -1.3838,-0.87638 -0.18416,0 -1.33375,0.45896 -2.55465,1.01992 -4.16344,1.91293 -8.2286,2.96863 -13.42603,3.48668 -3.35705,0.33461 -4.27191,0.22496 -4.27191,-0.51203 0,-0.57811 0.68822,-0.81086 2.41274,-0.81596 1.88111,-0.006 5.66446,-0.73866 8.30173,-1.60863 3.66968,-1.21055 8.91933,-3.93911 11.9074,-6.18902 1.45521,-1.09571 2.78616,-1.99296 2.95767,-1.99388 0.33847,-0.002 1.14338,0.71392 1.14338,1.0167 0,0.43486 -0.86028,1.34872 -2.29872,2.44188 -0.84576,0.64274 -1.62872,1.28799 -1.7399,1.43388 -0.28723,0.37686 1.59335,2.00076 3.48395,3.00844 5.03745,2.68494 10.13695,3.03134 15.47451,1.05119 1.18018,-0.43783 2.4591,-0.85704 2.84205,-0.93159 0.93184,-0.18138 1.27132,0.39773 0.56733,0.96778 -0.87224,0.7063 -5.8539,2.57709 -8.06546,3.02887 -2.6005,0.53123 -4.11598,0.50794 -6.42905,-0.0988 z m 30.95684,-8.21769 c -0.0906,-0.14655 -0.008,-0.31591 0.18282,-0.37635 0.19113,-0.0604 0.96312,-0.30415 1.71554,-0.54158 1.59256,-0.50253 3.59282,-2.15174 4.30652,-3.55071 1.26759,-2.48469 1.36057,-7.09236 0.2716,-13.45931 -0.69332,-4.05363 -0.64228,-4.92731 0.2942,-5.03617 0.37625,-0.0437 0.81081,0.0753 0.96568,0.26459 0.15487,0.18925 0.60446,2.30863 0.9991,4.70973 0.94921,5.77527 0.9949,10.01906 0.13212,12.27159 -1.01299,2.64472 -2.97254,4.40587 -6.05913,5.44566 -1.77198,0.59694 -2.56066,0.67348 -2.80845,0.27255 z"
         id="path832"
         inkscape:connector-curvature="0" />
      <path
         style="fill:#2e2e2e;stroke-width:1"
         d="m 196.9256,314.34911 c -0.65432,-0.65432 -0.65612,-0.83434 -0.0207,-2.06106 2.02774,-3.91445 6.99961,-7.75143 12.04814,-9.29802 4.12534,-1.26377 6.07397,-1.40828 19.45794,-1.44306 12.25194,-0.0318 12.63086,-0.0483 15.08125,-0.65533 2.69187,-0.66687 6.12011,-2.13445 7.9879,-3.41952 0.63213,-0.43492 1.87243,-1.52289 2.75623,-2.41772 1.9604,-1.98485 2.36504,-2.07821 6.97152,-1.60854 5.1715,0.52728 11.33274,-0.19663 12.95919,-1.52263 0.32156,-0.26216 0.73684,-1.12157 0.96397,-1.99488 0.22692,-0.87252 0.8009,-2.06078 1.33074,-2.7549 2.47364,-3.24066 3.8681,-8.07803 4.30984,-14.95083 0.40389,-6.28379 -0.0942,-9.77311 -3.27793,-22.96101 -3.18146,-13.17873 -3.7255,-16.07448 -4.34949,-23.15105 -0.34896,-3.9574 -1.49118,-8.4197 -2.54413,-9.93911 -2.3542,-3.39712 -8.51579,-6.55805 -16.98459,-8.7132 -4.36331,-1.11038 -7.72007,-1.50661 -8.83859,-1.0433 -1.85417,0.76802 -6.02531,5.8116 -7.53688,9.11331 -0.53671,1.17233 -0.63511,1.69082 -0.49056,2.58482 0.27917,1.72655 1.07893,3.36895 1.63467,3.35697 0.71696,-0.0154 3.38831,-1.69083 3.38831,-2.12503 0,-0.22665 -0.60841,-0.57586 -1.5183,-0.87143 -0.83506,-0.27128 -1.45736,-0.59182 -1.38289,-0.71232 0.39413,-0.63772 3.26041,-0.56032 4.92287,0.13293 0.69225,0.28866 2.25055,-1.25046 2.46531,-2.43498 0.26343,-1.45293 1.26549,-3.52151 2.24791,-4.64042 1.28716,-1.466 1.89745,-1.19038 0.79437,0.35876 -0.29729,0.4175 -0.61374,1.37725 -0.70322,2.13279 l -0.16269,1.37369 0.90166,-0.20173 c 0.49591,-0.11095 1.16954,-0.26253 1.49696,-0.33685 1.03956,-0.23596 0.62143,0.30103 -0.72644,0.93293 -0.94298,0.44209 -1.77388,1.18222 -3.02515,2.69466 -1.79565,2.17044 -2.99604,3.13536 -5.4295,4.36447 -1.79204,0.90513 -3.48286,1.99456 -3.90737,2.51759 -0.57434,0.70764 -0.40898,2.33571 0.31029,3.05498 1.13289,1.13289 2.0099,0.9146 4.92175,-1.22504 3.12535,-2.29652 4.44845,-2.52889 11.02756,-1.93669 4.4735,0.40267 5.01195,0.40267 7.39547,-3e-5 3.24451,-0.54816 4.48648,-1.24018 5.47051,-3.04817 0.67596,-1.24195 1.22695,-1.7223 1.22695,-1.06964 0,0.49459 -0.80582,2.22248 -1.51611,3.25093 -0.64569,0.93493 -0.69304,1.19207 -0.63333,3.43958 0.16091,6.05604 -1.07907,10.99152 -4.80785,19.13675 -1.6387,3.57961 -2.56771,6.33344 -2.56771,7.61134 0,0.46618 -0.16889,1.07857 -0.37532,1.36087 -0.35898,0.49094 -0.384,0.47875 -0.57513,-0.28016 -0.28684,-1.13896 0.42375,-4.25326 1.75066,-7.6726 3.42697,-8.83107 4.49145,-13.13084 4.49145,-18.14228 0,-3.06104 -0.20264,-3.48824 -1.29254,-2.72484 -0.47655,0.33379 -0.55954,0.65924 -0.55954,2.19434 0,4.19198 -1.00029,7.764 -4.36316,15.58085 -2.47908,5.76252 -3.16788,8.07325 -3.54604,11.89597 -0.36656,3.70545 -0.0466,6.28813 0.98721,7.96826 1.20733,1.96217 2.04548,4.10396 2.5776,6.58676 0.43903,2.04847 0.44085,2.22141 0.0278,2.6345 -0.59826,0.59826 -0.87573,0.24605 -1.1971,-1.5196 -1.50404,-8.26347 -8.70292,-13.75212 -18.0342,-13.74983 -4.59154,0.001 -8.74636,1.22825 -12.30312,3.63371 -2.06812,1.39869 -1.91854,0.92359 -1.56777,4.97942 0.23411,2.70698 -0.31066,5.32475 -1.71024,8.21809 -1.06198,2.19542 -1.73116,2.99549 -2.15279,2.57386 -0.1556,-0.15561 0.10064,-1.0577 0.68319,-2.40512 1.25698,-2.90738 1.7943,-5.54829 1.60592,-7.89307 -0.61129,-7.60875 -6.07394,-13.77645 -13.97015,-15.77323 -2.62603,-0.66407 -7.02548,-0.58122 -9.67522,0.1822 -1.5933,0.45905 -1.6704,0.45888 -2.18281,-0.005 -0.66578,-0.60252 -0.68552,-1.76449 -0.0399,-2.34876 1.80132,-1.63017 7.60426,-2.23979 11.81186,-1.24088 5.87492,1.39475 11.26341,5.38977 13.65203,10.1216 0.42646,0.84481 0.86296,1.53403 0.97001,1.53161 0.10705,-0.002 1.05606,-0.52258 2.10891,-1.15591 4.03577,-2.42762 9.64336,-3.6268 14.45216,-3.09059 3.899,0.43477 7.10789,1.59577 10.2066,3.69283 0.64518,0.43662 1.27026,0.73378 1.38907,0.66036 0.11881,-0.0734 0.21601,-0.87941 0.21601,-1.79107 0,-3.86288 1.07334,-8.04417 3.50576,-13.65705 3.30759,-7.63232 3.97979,-9.74062 4.4524,-13.96446 0.40082,-3.58224 0.4653,-3.49804 -2.67894,-3.49804 h -2.62263 l -0.55013,1.07835 c -1.02866,2.01633 -3.76057,2.40044 -7.59061,1.06725 l -2.17685,-0.75774 -1.3964,0.87345 c -0.76802,0.4804 -1.95928,1.01519 -2.64724,1.18842 -1.14009,0.28708 -1.36212,0.25958 -2.50772,-0.31061 -1.59087,-0.79181 -2.3077,-1.97385 -2.29827,-3.78981 0.004,-0.73352 0.20988,-1.71854 0.45795,-2.18892 0.42852,-0.81255 0.42575,-0.93139 -0.0556,-2.38125 -0.27866,-0.83931 -0.5827,-2.24039 -0.67564,-3.11351 -0.15013,-1.41031 -0.0814,-1.77032 0.61589,-3.22544 1.86194,-3.88557 6.12142,-9.05097 8.35536,-10.1324 1.11326,-0.53892 1.20967,-0.54247 3.88175,-0.14293 9.79251,1.4642 22.17972,6.8208 25.02969,10.82358 0.83784,1.17675 1.60245,4.99543 1.92183,9.59812 0.46806,6.74531 0.98292,9.26786 4.5824,22.45155 3.69862,13.5468 4.3692,17.43904 4.03359,23.41189 -0.46305,8.2405 -1.86401,13.26093 -4.78472,17.14635 -0.63668,0.84697 -1.41165,2.21895 -1.72215,3.04884 -0.31051,0.8299 -0.85648,1.85583 -1.21327,2.27986 -1.36479,1.62196 -4.98975,2.20978 -12.10908,1.9636 -7.11971,-0.2462 -7.71618,-0.14468 -9.76262,1.66161 -3.32235,2.93248 -7.64815,4.94989 -12.75159,5.94692 -4.20756,0.822 -8.76095,1.00818 -16.75966,0.68527 -7.91347,-0.31948 -10.71599,-0.13902 -13.73513,0.88441 -3.24078,1.09856 -6.71185,3.92224 -9.04509,7.35809 -0.58782,0.8656 -1.38555,1.823 -1.77273,2.12756 -0.90385,0.71097 -2.31596,0.72248 -3.01386,0.0246 z m 54.64212,-86.78959 c 0.74907,-0.82772 0.19987,-1.08546 -2.12619,-0.9978 -2.2656,0.0854 -2.76103,0.44348 -1.53386,1.10872 1.11673,0.60538 3.06524,0.54633 3.66005,-0.11092 z m -16.939,65.85722 c -2.56815,-0.72363 -5.77866,-2.35891 -7.72421,-3.93434 -0.90134,-0.72987 -1.71204,-1.32704 -1.80156,-1.32704 -0.0895,0 -1.138,0.46541 -2.32995,1.03425 -4.63564,2.21228 -9.89175,3.47889 -14.7349,3.55079 -2.54832,0.0378 -3.04271,-0.0193 -3.04271,-0.35171 0,-0.30608 0.4993,-0.43827 2.18241,-0.57781 7.41568,-0.6148 14.65358,-3.54148 21.30262,-8.61381 1.59877,-1.21965 2.62461,-1.40759 2.79536,-0.51213 0.11349,0.59521 -0.43918,1.22571 -2.40174,2.73999 -0.83675,0.64562 -1.52136,1.34164 -1.52136,1.5467 0,0.47224 2.33104,2.22343 4.23334,3.18029 2.30604,1.15995 4.43486,1.72141 7.16054,1.88854 3.15874,0.19369 5.47672,-0.18953 8.54429,-1.41259 1.70466,-0.67966 2.42272,-0.85496 2.63449,-0.64319 0.42672,0.42672 -0.16407,0.88888 -2.34179,1.83195 -4.998,2.16441 -9.13757,2.67571 -12.95483,1.60011 z m 32.27917,-8.14117 c 0.29104,-0.13381 1.07679,-0.43656 1.74611,-0.67279 3.89753,-1.37561 5.67893,-5.54785 5.02579,-11.77095 -0.16165,-1.54023 -0.53107,-4.20731 -0.82093,-5.92683 -0.64984,-3.85508 -0.65027,-3.80047 0.033,-4.16616 0.95862,-0.51304 1.3157,0.2213 2.02509,4.16457 0.49753,2.76566 0.66574,4.65793 0.69004,7.76257 l 0.0321,4.10542 -0.86843,1.76523 c -0.47764,0.97087 -1.25154,2.08924 -1.71979,2.48526 -1.25066,1.05773 -4.02064,2.27793 -5.43671,2.39491 -0.89823,0.0742 -1.09104,0.0356 -0.70632,-0.14123 z"
         id="path830"
         inkscape:connector-curvature="0" />
      <path
         style="fill:#050505;stroke-width:1"
         d="m 196.86935,313.93443 c -0.3871,-0.84958 0.059,-1.75462 2.0618,-4.18266 3.23101,-3.91711 7.61834,-6.3022 13.75434,-7.47727 2.01203,-0.38532 4.23556,-0.45616 14.93178,-0.47571 12.09733,-0.0221 12.67144,-0.0458 15.33929,-0.63265 4.97702,-1.09482 8.35306,-2.86177 11.5543,-6.04729 l 1.68007,-1.67182 1.9189,0.002 c 1.05539,0.001 2.6928,0.12774 3.63869,0.28142 2.26262,0.36762 8.33015,-0.095 10.65214,-0.81221 2.04202,-0.63072 2.51158,-1.10175 2.94228,-2.95145 0.2022,-0.8684 0.7215,-1.92532 1.345,-2.73746 2.7153,-3.53683 4.38134,-10.42595 4.37031,-18.07137 -0.008,-5.32642 -0.55611,-8.42431 -3.96731,-22.40989 -2.26023,-9.26673 -3.13316,-13.87817 -3.57201,-18.86999 -0.44559,-5.06848 -1.4103,-9.41379 -2.52217,-11.3606 -1.68545,-2.95113 -6.44155,-5.89387 -12.91876,-7.99325 -3.52925,-1.14389 -8.38318,-2.24135 -11.14615,-2.52013 -1.62985,-0.16444 -1.78606,-0.12932 -2.98702,0.67172 -2.23276,1.48923 -6.03223,6.46044 -7.11437,9.3084 -0.46032,1.21146 -0.46449,1.38711 -0.0695,2.92936 0.46729,1.82438 1.01176,2.83125 1.53101,2.83125 0.44107,0 3.41869,-1.59292 3.67485,-1.96592 0.10691,-0.15567 0.19621,-0.36992 0.19844,-0.4761 0.006,-0.27186 -1.9965,-1.26215 -2.55187,-1.26215 -0.34112,0 -0.38321,-0.0771 -0.16252,-0.29781 0.29249,-0.29248 2.27639,-0.20441 4.25939,0.1891 0.75366,0.14955 1.00487,0.053 1.75575,-0.67477 0.58562,-0.56761 0.93233,-1.20005 1.04535,-1.90685 0.2016,-1.26073 1.17613,-3.25938 2.15851,-4.42688 0.90432,-1.07473 1.09464,-0.90266 0.36653,0.33139 -0.33164,0.56207 -0.58054,1.47222 -0.60606,2.21615 l -0.0433,1.26238 0.88548,-0.0418 0.88548,-0.0418 -0.90263,0.61335 c -0.49645,0.33735 -1.58067,1.45255 -2.40939,2.47824 -1.6485,2.04032 -2.43469,2.63687 -6.41454,4.86729 -2.77829,1.55703 -3.28919,2.12659 -3.28919,3.66689 0,0.54066 0.26241,1.06407 0.80602,1.60767 1.12375,1.12375 2.01575,0.91464 5.10976,-1.19787 3.41469,-2.33146 5.2435,-2.68115 10.49532,-2.00681 4.99515,0.64137 9.69445,0.19929 11.81539,-1.11152 0.4853,-0.29993 1.19027,-1.07075 1.56661,-1.71293 0.37635,-0.64218 0.73408,-1.1676 0.79496,-1.1676 0.20053,0 -0.70241,1.96618 -1.33656,2.91042 -0.57327,0.85358 -0.63238,1.26766 -0.7554,5.29167 -0.19183,6.27473 -0.94029,9.00916 -4.81602,17.59479 -1.68971,3.74309 -2.51342,6.28677 -2.51342,7.76164 0,0.44335 -0.13789,0.89131 -0.30643,0.99548 -0.22665,0.14007 -0.26511,-0.30355 -0.14772,-1.70378 0.16183,-1.93028 0.90922,-4.3143 3.20662,-10.22834 2.14395,-5.51903 3.05367,-9.82369 3.06313,-14.49424 0.006,-2.78292 -0.13469,-3.05743 -1.40045,-2.73975 -0.57401,0.14407 -0.6293,0.34876 -0.91899,3.40197 -0.48434,5.10479 -0.80837,6.13258 -5.44882,17.28292 -2.03146,4.88131 -2.36126,6.46866 -2.38894,11.49806 l -0.024,4.36563 1.1331,1.84967 c 1.29794,2.11876 2.44162,5.46688 2.51848,7.37283 0.065,1.61109 -0.50099,2.00623 -0.74182,0.51792 -1.48055,-9.1498 -9.40802,-15.08223 -19.44622,-14.55236 -1.52797,0.0807 -3.55203,0.34356 -4.49792,0.58424 -2.17755,0.55407 -6.69918,2.74445 -8.0208,3.88545 -1.00047,0.86376 -1.00692,0.88187 -0.73407,2.06204 0.39208,1.69588 0.34613,5.18276 -0.0899,6.8207 -0.44011,1.65331 -2.20132,5.49479 -2.71444,5.92065 -0.72223,0.5994 -0.67433,-0.0754 0.12947,-1.82392 1.18104,-2.56915 1.64015,-4.61168 1.64015,-7.29681 0,-6.68588 -3.82176,-12.37626 -10.45104,-15.56102 -3.91416,-1.88039 -8.5026,-2.28772 -13.02053,-1.15589 -2.21615,0.5552 -2.72218,0.35839 -2.72218,-1.05874 0,-0.77547 0.12492,-0.91444 1.25677,-1.39808 2.69731,-1.15257 5.37449,-1.50977 8.40052,-1.12085 6.82326,0.87698 13.67133,5.47433 16.0516,10.77602 0.27496,0.61243 0.61106,1.1822 0.7469,1.26616 0.13584,0.084 1.17424,-0.38364 2.30757,-1.03909 7.90089,-4.56938 17.21529,-4.38822 24.43721,0.4753 1.84047,1.23945 2.09735,1.03285 2.09735,-1.68677 0,-4.08402 1.01217,-7.7056 4.18546,-14.97572 1.94303,-4.45154 3.00596,-7.60538 3.46764,-10.28882 0.3672,-2.13432 0.42289,-5.12672 0.10139,-5.44821 -0.14687,-0.14688 -1.40391,-0.22727 -2.8816,-0.18428 l -2.62109,0.0762 -0.46296,0.98463 c -0.25464,0.54154 -0.81491,1.16662 -1.24506,1.38906 -1.2548,0.64889 -3.92467,0.51833 -6.3852,-0.31223 -1.89905,-0.64103 -2.18451,-0.67662 -2.70491,-0.33717 -1.48777,0.97044 -3.5108,1.84758 -4.26123,1.84758 -1.32284,0 -2.60299,-0.83341 -3.26588,-2.12616 -0.73882,-1.44082 -0.74882,-2.31368 -0.0453,-3.94913 0.50202,-1.16696 0.51572,-1.34496 0.15695,-2.03876 -0.43561,-0.84237 -0.97228,-3.44238 -0.97028,-4.70068 0.003,-1.74909 2.95977,-6.48179 6.14468,-9.83468 2.3111,-2.43298 3.16542,-2.85386 5.32023,-2.62097 4.06227,0.43904 11.15184,2.44396 16.31505,4.61387 5.76925,2.4246 9.95623,5.57027 10.59036,7.95651 0.57759,2.17349 1.05652,5.64275 1.3149,9.525 0.36718,5.5168 0.93776,8.21089 4.47338,21.12169 3.72806,13.61352 4.13889,15.99285 3.9138,22.66686 -0.27803,8.24365 -1.81122,13.72876 -5.00813,17.91693 -0.49502,0.64851 -1.16957,1.89986 -1.49901,2.78076 -1.32472,3.54227 -2.45763,3.88576 -12.85926,3.89888 -8.6561,0.0109 -7.94755,-0.13989 -10.84877,2.30902 -6.02315,5.08412 -13.52476,6.66632 -28.70643,6.05463 -9.55688,-0.38506 -11.89729,-0.13868 -15.53612,1.63554 -2.43762,1.18854 -4.77826,3.25603 -6.93548,6.12613 -2.09578,2.78837 -2.44448,3.06665 -3.84272,3.06665 -0.76226,0 -1.01004,-0.13372 -1.2586,-0.67926 z m 54.41059,-85.87965 c 0.69515,-0.31673 1.09826,-1.08301 0.81275,-1.54497 -0.17701,-0.28641 -4.04695,-0.3732 -4.74232,-0.10636 -0.76748,0.29451 -0.46862,1.08494 0.57367,1.51727 1.19639,0.49623 2.45102,0.54636 3.3559,0.13406 z m -15.3283,65.49619 c -3.43255,-0.7598 -6.74157,-2.39149 -9.47054,-4.66997 l -1.26846,-1.05907 -2.568,1.19988 c -1.4124,0.65993 -3.58003,1.51639 -4.81696,1.90323 -3.72309,1.16439 -11.58627,2.26281 -12.42775,1.73606 -0.66416,-0.41575 -0.14807,-0.57212 2.70633,-0.81997 6.63872,-0.57645 13.5432,-3.34145 19.74058,-7.90541 2.41517,-1.7786 3.21001,-2.04261 3.21001,-1.06621 0,0.48917 -1.92103,2.33824 -3.23659,3.11536 -1.05836,0.62519 -0.90839,1.22513 0.60536,2.42169 3.26483,2.58069 7.08685,3.84052 11.62706,3.83256 3.18783,-0.006 4.67875,-0.31334 7.73109,-1.59582 1.6759,-0.70414 2.0585,-0.77035 2.0585,-0.35622 0,0.39412 -3.65344,2.01256 -6.22603,2.75806 -2.94799,0.8543 -5.36862,1.01405 -7.6646,0.50583 z m 33.77171,-9.23482 c 1.77181,-0.92282 3.05462,-2.55209 3.71109,-4.71339 0.47944,-1.57846 0.53436,-2.27635 0.4169,-5.29778 -0.0744,-1.91391 -0.40948,-5.178 -0.74461,-7.25355 -0.478,-2.96041 -0.54006,-3.84298 -0.28794,-4.09509 0.74219,-0.74219 1.2069,0.15535 1.8273,3.52921 0.85469,4.64798 1.07688,10.47223 0.47808,12.532 -0.78193,2.68975 -2.3817,4.47861 -4.96663,5.55369 -1.5176,0.63117 -1.8081,0.4605 -0.43419,-0.25509 z"
         id="path828"
         inkscape:connector-curvature="0" />
    </g>
  </g>
</svg>
