<?xml version="1.0" encoding="UTF-8" standalone="no"?>
<!-- Created with Inkscape (http://www.inkscape.org/) -->

<svg viewBox="0 0 447.58109 44.836597">
  <defs/>
   <path
      id="path817-0"
      style="fill:#000000;stroke:none;stroke-width:0.03527778"
      d="m 347.46284,8.15655 c -0.45688,0.81423 -2.99889,3.07151 -12.52389,6.95206 -14.46389,5.89139 -23.38906,8.50201 -31.64405,9.24285 -5.00954,0.44388 -11.72838,0.71307 -13.9876,0.49322 -0.79216,-0.0251 -1.70515,-0.0805 -2.38918,-0.14273 -0.3089,0.0109 -3.15132,-0.40281 -4.7191,-0.66815 -1.23467,-0.21167 -2.57544,-0.52913 -2.99878,-0.67024 -0.67028,-0.24695 2.91021,-1.75576 4.28604,-2.07326 0,0 -0.2526,-1.24352 -2.16938,-0.53689 l -3.38687,0.77566 -3.38636,0.74104 -6.17378,-1.41128 c -3.38667,-0.77611 -9.27823,-2.22236 -13.05295,-3.21014 -23.88306,-6.17361 -26.59927,-6.80878 -35.10122,-8.29045 -2.71639,-0.45861 -5.46812,-0.84646 -6.06784,-0.84646 -0.635,0 -1.16427,-0.10577 -1.16427,-0.28215 0,-0.14112 1.65819,-1.34056 3.66902,-2.64584 7.16244,-4.04813 3.67649,-6.57743 1.97559,-4.93871 l -5.36194,3.52743 -5.39761,3.56309 -2.92799,0.21187 c -6.103,0.45862 -14.88763,2.32844 -23.17791,4.86844 -3.38662,1.02306 -5.64439,1.94018 -20.24939,8.36073 -5.36223,2.36361 -10.97105,4.62142 -11.46495,4.62142 -0.0705,0 0.84653,-2.18718 2.01072,-4.90357 4.17444,-6.67546 3.23157,-14.12888 -2.50475,-2.43448 -0.9525,2.01083 -2.18781,4.79795 -2.75175,6.17378 l -0.98756,2.57504 -1.94045,0.56482 c -5.60917,1.62278 -8.85476,2.04587 -16.26309,2.04587 -8.32554,0.0353 -11.95898,-0.49382 -16.05121,-2.39881 -3.24554,-1.48167 -5.57377,-3.42223 -12.064897,-9.98389 l -5.36247,-5.39709 3.139864,-2.11667 C 108.48881,3.133 98.028568,6.80462 91.910396,11.01654 L 88.912109,9.95821 C 84.431841,8.33542 80.656847,7.77074 74.165718,7.77074 c -11.077205,0 -23.988661,2.50476 -42.650624,8.32559 -1.5875,0.49384 -1.693358,0.4943 -1.446424,-0.10542 1.025447,-5.92745 -1.028461,-3.06995 -0.866088,-1.79162 0.216828,1.18379 -0.01614,2.1444 -0.01614,2.32079 0,0.17639 -0.917095,0.59961 -2.010724,0.95239 C 22.730717,18.84831 0.3648,26.99713 0.012,27.34991 c -0.0705,0.0353 0.17627,0.81163 0.56431,1.65829 0.38806,0.84667 0.917202,2.15216 1.199406,2.85771 l 0.529167,1.30483 5.785697,-2.32802 c 19.226397,-7.72584 36.33605,-13.33511 48.436318,-15.98094 1.940295,-0.42333 3.704244,-0.81161 3.951182,-0.88212 0.246962,-0.0705 0.916993,0.74105 1.516697,1.79938 3.406881,5.49137 0.325491,-1.68873 0.599969,-1.97559 0.141129,-0.14111 1.798927,-0.45858 3.633365,-0.67024 10.900834,-1.23473 17.039086,-0.67032 23.17742,2.25774 2.187205,1.02305 3.42228,2.0109 8.643381,7.12618 6.773338,6.63222 9.066158,8.21962 14.216698,9.94822 3.175,1.05834 3.17497,1.05844 3.84527,2.75178 0.38753,0.91722 1.44632,3.42201 2.39882,5.53868 1.48166,3.38666 1.6955,3.98425 1.6955,3.98425 1.3852,0.5458 2.98326,-1.38083 2.64374,-1.83245 -0.38803,-0.10583 -4.23325,-8.60799 -3.98631,-8.81961 0.0706,-0.0353 1.69309,0.0355 3.63338,0.21187 6.10304,0.56444 13.8643,-0.17629 21.13154,-2.01073 6.66699,-1.69333 13.7229,-4.55104 29.1393,-11.85354 l 4.05709,-1.94045 2.85772,1.341 c 1.55222,0.74084 4.48024,1.90476 6.49107,2.57504 l 3.66903,1.23455 c 0,0 4.24307,-0.95614 0.8816,-3.21014 l -4.62142,-1.72858 c -2.54,-0.9525 -4.69195,-1.7991 -4.7625,-1.86965 -0.45862,-0.42333 10.12479,-3.66892 15.06368,-4.62142 6.17361,-1.16417 10.05446,-1.30528 15.94579,-0.52917 6.45584,0.81139 12.98181,2.01104 21.80126,3.91604 l 6.52673,1.44642 3.63337,3.84525 3.63389,3.80958 c 0.94474,1.03658 2.35076,-1.40766 2.35076,-1.40766 0,0 -1.01059,-0.46172 -2.91559,-2.64894 -1.09361,-1.23472 -1.86925,-2.25774 -1.69292,-2.25774 0.14112,0 4.3391,0.9525 9.27799,2.11667 9.10167,2.15194 17.674,4.05694 23.45955,5.29166 1.76389,0.38806 5.11557,0.84629 7.47913,1.02268 5.22111,0.38806 17.25087,-0.0705 21.02559,-0.81132 6.41925,0.69923 17.16924,1.93237 5.29167,-0.70538 -0.3175,-0.3175 -0.17649,-0.38823 3.59823,-1.41129 5.11528,-1.41111 11.50066,-3.88038 23.91844,-9.17204 21.09611,-9.03112 26.95194,-11.00653 37.64111,-12.73515 3.4925,-0.56444 5.11531,-0.31788 6.73809,1.02268 1.05833,0.88194 1.41111,1.02323 3.70417,1.41128 1.05833,0.17639 3.95142,-0.31746 7.19698,-1.19941 l 1.5875,-0.45837 -2.92851,-0.81183 c -4.86834,-1.30528 -4.51545,-1.41091 3.28094,-0.84646 11.67694,0.84666 18.30916,2.61069 25.92916,6.84402 1.83445,1.02306 7.54945,4.58588 12.7,7.86671 10.51278,6.70277 11.99463,7.65527 11.99463,7.40833 0,-0.0706 -1.30535,-1.02282 -2.89285,-2.04587 -1.62278,-1.05833 -5.92692,-3.95108 -9.59581,-6.49108 -3.70416,-2.50472 -7.93725,-5.2917 -9.45419,-6.20892 l -2.71664,-1.65829 2.01126,-0.24702 2.01072,-0.24701 -1.76371,-0.70538 c -0.98778,-0.38806 -2.82226,-0.74077 -4.09226,-0.81133 -1.48166,-0.0705 -3.49285,-0.52899 -5.4684,-1.23455 -9.20751,-3.24555 -25.0824,-4.5159 -36.40657,-2.82256 -8.92528,1.30522 -17.21573,3.38663 -23.63629,5.96191 -1.02305,0.38805 -8.05854,3.10339 -8.16437,3.10339 3.42787,-2.86716 1.16731,-2.2975 0.0509,-1.65925 z"
      />
</svg>
