<?xml version="1.0" encoding="UTF-8" standalone="no"?>
<!-- Created with Inkscape (http://www.inkscape.org/) -->

<svg
   xmlns:dc="http://purl.org/dc/elements/1.1/"
   xmlns:cc="http://creativecommons.org/ns#"
   xmlns:rdf="http://www.w3.org/1999/02/22-rdf-syntax-ns#"
   xmlns:svg="http://www.w3.org/2000/svg"
   xmlns="http://www.w3.org/2000/svg"
   xmlns:sodipodi="http://sodipodi.sourceforge.net/DTD/sodipodi-0.dtd"
   xmlns:inkscape="http://www.inkscape.org/namespaces/inkscape"
   width="621.25061mm"
   height="52.939034mm"
   viewBox="0 0 621.25061 52.939033"
   version="1.1"
   id="svg8"
   sodipodi:docname="testClip.svg"
   inkscape:version="0.92.4 (5da689c313, 2019-01-14)">
  <defs
     id="defs2" />
  <sodipodi:namedview
     id="base"
     pagecolor="#ffffff"
     bordercolor="#666666"
     borderopacity="1.0"
     inkscape:pageopacity="0.0"
     inkscape:pageshadow="2"
     inkscape:zoom="0.49497475"
     inkscape:cx="1167.6135"
     inkscape:cy="-184.51131"
     inkscape:document-units="mm"
     inkscape:current-layer="layer1"
     showgrid="false"
     inkscape:window-width="1920"
     inkscape:window-height="1001"
     inkscape:window-x="-9"
     inkscape:window-y="-9"
     inkscape:window-maximized="1"
     fit-margin-top="0"
     fit-margin-left="0"
     fit-margin-right="0"
     fit-margin-bottom="0" />
  <metadata
     id="metadata5">
    <rdf:RDF>
      <cc:Work
         rdf:about="">
        <dc:format>image/svg+xml</dc:format>
        <dc:type
           rdf:resource="http://purl.org/dc/dcmitype/StillImage" />
        <dc:title></dc:title>
      </cc:Work>
    </rdf:RDF>
  </metadata>
  <g
     inkscape:label="Layer 1"
     inkscape:groupmode="layer"
     id="layer1"
     transform="translate(265.24814,294.21958)">
    <path
       style="fill:none;fill-opacity:1;stroke:#00e900;stroke-width:21.16666603;stroke-linecap:round;stroke-linejoin:round;stroke-miterlimit:4;stroke-dasharray:none;stroke-opacity:1"
       d="m -254.51417,-254.83893 c 1.80631,0.0649 3.61265,0.12974 5.41899,0.19462 0.17817,0 0.40854,0.12599 0.53453,0 0.35648,-0.35649 -0.3565,-0.71259 0,-1.06908 0.126,-0.12599 0.37516,0.0797 0.53454,0 0.64143,-0.32072 0.96216,-1.28289 1.60361,-1.60362 0.50397,-0.25198 1.06908,-0.35636 1.60362,-0.53453 0.71272,-0.35636 1.43506,-0.6941 2.13815,-1.06908 5.82158,-3.10485 5.30532,-3.25598 11.22532,-5.3454 1.22322,-0.43172 2.50366,-0.68215 3.74178,-1.06908 1.61341,-0.50419 3.18216,-1.1512 4.81085,-1.60361 1.5828,-0.43966 3.22804,-0.62942 4.81085,-1.06908 1.62869,-0.45241 3.17096,-1.19364 4.81085,-1.60361 1.2223,-0.30557 2.50103,-0.31559 3.74178,-0.53454 1.78943,-0.31578 3.58255,-0.62838 5.34539,-1.06907 1.8047,-0.4512 3.54068,-1.15245 5.34539,-1.60362 8.4007,-2.10018 -0.87335,0.70768 5.34539,-1.0691 1.08354,-0.30956 2.09565,-0.88381 3.20723,-1.06907 0.52727,-0.0879 1.07445,0.0756 1.60362,0 0.72727,-0.10388 1.41088,-0.43064 2.13815,-0.53454 0.52917,-0.0756 1.07635,0.0879 1.60362,0 0.55579,-0.0926 1.04783,-0.44191 1.60362,-0.53454 0.52726,-0.0879 1.07946,0.10483 1.60361,0 0.39069,-0.0781 0.68256,-0.43791 1.06908,-0.53454 0.34572,-0.0864 0.71964,0.0699 1.06908,0 0.55251,-0.11049 1.04451,-0.46463 1.60362,-0.53453 0.88402,-0.11049 1.78406,0.0635 2.67269,0 12.06007,-0.86143 -0.34481,-0.0905 7.48355,-1.06908 0.88402,-0.11049 1.7991,0.17473 2.6727,0 0.55251,-0.11049 1.04783,-0.44191 1.60361,-0.53454 0.52727,-0.0879 1.07635,0.0879 1.60362,0 0.55579,-0.0926 1.0511,-0.42405 1.60362,-0.53454 0.34944,-0.0699 0.71964,0.0699 1.06908,0 0.55251,-0.11051 1.04783,-0.4419 1.60361,-0.53453 0.52727,-0.0879 1.07946,0.10483 1.60362,0 0.39068,-0.0781 0.67839,-0.45641 1.06908,-0.53454 0.86055,-0.17211 3.235,0 4.27631,0 3.38541,0 6.77083,0 10.15624,0 2.31634,0 4.63267,0 6.94901,0 0.53454,0 1.06908,0 1.60362,0 0.53454,0 1.08504,-0.12965 1.60361,0 0.24447,0.0611 0.29549,0.45484 0.53454,0.53454 0.33808,0.11268 0.72336,-0.0864 1.06908,0 0.38653,0.0966 0.69915,0.38655 1.06908,0.53453 1.60205,0.64083 1.96774,0.56222 3.74177,1.06908 0.54178,0.15478 1.06185,0.37976 1.60362,0.53454 2.11561,0.60447 4.38233,0.73271 6.41447,1.60361 0.34786,0.14909 3.92845,1.98909 4.27631,2.13815 1.21699,0.52158 1.6403,0.38082 2.67269,1.0691 0.20967,0.13976 0.33296,0.38333 0.53454,0.53454 0.51395,0.38545 1.11009,0.65778 1.60362,1.06908 0.9679,0.80658 1.66476,1.91674 2.6727,2.67269 0.31874,0.23905 0.78735,0.2528 1.06908,0.53453 0.45427,0.45427 0.6578,1.11009 1.06907,1.60362 0.48395,0.58073 1.06908,1.06907 1.60362,1.60361 0.35636,0.35637 0.665898,0.7667 1.069078,1.06909 1.560967,1.17072 0.735319,-0.26683 2.138157,1.60361 1.17072,1.56097 -0.26683,0.73533 1.60361,2.13816 0.31874,0.23905 0.72744,0.32955 1.06908,0.53454 0.55088,0.33053 1.06908,0.71272 1.60362,1.06908 0.53454,0.35635 1.14934,0.6148 1.60361,1.06907 0.28173,0.28173 0.25282,0.78736 0.53454,1.06908 0.28173,0.28173 0.71272,0.35636 1.06908,0.53454 0.71272,0.35636 1.4463,0.67373 2.13816,1.06908 0.85391,0.48795 1.699542,1.27923 2.672692,1.60362 0.50711,0.16903 1.08504,-0.12965 1.60362,0 0.38652,0.0966 0.68255,0.43791 1.06908,0.53454 0.34572,0.0864 0.717565,-0.0586 1.069077,0 0.724657,0.12077 1.409177,0.44341 2.138157,0.53453 0.707215,0.0884 1.425437,0 2.138156,0 1.959975,0 3.919953,0 5.87993,0 2.850875,0 5.70175,0 8.552625,0 1.247256,0 2.504146,0.15471 3.741772,0 0.72898,-0.0911 1.413499,-0.41376 2.138156,-0.53453 0.351512,-0.0586 0.71964,0.0699 1.069078,0 0.552513,-0.11051 1.056986,-0.39789 1.603618,-0.53454 1.93263,-0.48316 3.9473,-0.58592 5.879928,-1.06908 3.489791,-0.87245 -2.01958,-0.28703 2.672696,-1.06908 0.527267,-0.0879 1.076352,0.0879 1.603616,0 4.69228,-0.78205 -0.817091,-0.19663 2.672697,-1.06908 1.051464,-0.26286 2.165112,-0.23679 3.207234,-0.53454 1.463794,-0.41822 2.812518,-1.18539 4.276312,-1.60361 1.042125,-0.29775 2.149218,-0.29943 3.207234,-0.53454 0.550037,-0.12223 1.056987,-0.39789 1.603619,-0.53454 0.881414,-0.22036 1.791279,-0.31419 2.672693,-0.53454 0.363718,-0.0909 4.213839,-1.151 5.345391,-1.60362 0.369927,-0.14797 0.699153,-0.38657 1.069078,-0.53454 1.738807,-0.69552 3.606585,-0.90809 5.34539,-1.60361 1.109776,-0.44391 2.114989,-1.11817 3.207237,-1.60363 8.505615,-3.78026 -5.891985,3.08714 7.483545,-3.20722 1.441998,-0.67858 2.81148301,-1.51038 4.27631196,-2.13816 2.37438604,-1.01758 4.98746304,-1.51413 7.48354764,-2.13815 3.7799474,-0.94498 7.4832504,-2.13807 11.2253204,-3.20725 0.706387,-0.20182 1.441202,-0.30221 2.138156,-0.53454 0.377976,-0.12599 0.691102,-0.40854 1.069078,-0.53453 1.393908,-0.46464 2.871979,-0.63699 4.276312,-1.06908 9.23108,-2.84033 0.379581,-0.53991 9.621703,-2.67269 1.987989,-0.45876 3.900856,-1.10884 5.879929,-1.60361 0.71272,-0.1782 1.40918,-0.44342 2.13816,-0.53454 0.70721,-0.0884 1.42897,0.0709 2.13815,0 1.07845,-0.10784 2.12661,-0.45143 3.20724,-0.53454 2.60921,-0.20071 5.38807,0 8.01808,0 2.31634,0 4.64417,-0.2305 6.94901,0 1.1819,0.11819 1.66512,0.66604 2.6727,1.06908 1.56675,0.62669 3.2441,0.97689 4.81085,1.60361 0.36992,0.14796 0.67839,0.45641 1.06908,0.53454 0.52415,0.10483 1.10311,-0.1877 1.60361,0 0.97281,0.36481 1.72937,1.16824 2.6727,1.60361 1.38225,0.63797 2.87105,1.01809 4.27631,1.60362 1.4711,0.61296 2.7841,1.57858 4.27631,2.13815 1.37576,0.51591 2.85088,0.71273 4.27631,1.06907 0.71272,0.1782 1.46683,0.23617 2.13816,0.53454 0.94941,0.42198 1.68706,1.27508 2.6727,1.60364 0.623633,0.20786 2.962233,-0.15592 3.741773,0 0.39069,0.0781 0.6911,0.40854 1.06908,0.53454 0.169033,0.0563 0.361683,-0.0432 0.534543,0 0.54663,0.13665 1.04783,0.4419 1.60361,0.53453 0.52727,0.0879 1.07635,-0.0879 1.60362,0 0.55579,0.0926 1.05358,0.4123 1.60362,0.53454 1.05801,0.23511 2.14922,0.29943 3.20723,0.53454 1.99445,0.4432 1.09056,0.43622 2.6727,1.06908 1.5105,0.6042 3.23278,1.20909 4.81085,1.60361 1.76282,0.44072 3.58255,0.62838 5.34539,1.06907 1.38767,0.34693 3.50048,1.41642 4.81085,1.60362 0.70555,0.1008 1.43094,-0.0884 2.13815,0 0.72898,0.0911 1.41536,0.40313 2.13816,0.53455 2.47919,0.45076 5.01264,0.57489 7.48355,1.06907 0.55251,0.11051 1.0511,0.42404 1.60361,0.53454 0.34944,0.0699 0.72336,-0.0864 1.06908,0 0.38653,0.0966 0.6911,0.40855 1.06908,0.53454 0.16904,0.0564 0.37517,-0.0797 0.53454,0 0.22538,0.11269 0.30916,0.42185 0.53454,0.53454 0.15937,0.0797 0.37517,-0.0797 0.53454,0 0.22538,0.11269 0.30916,0.42185 0.53454,0.53454 0.15936,0.0797 0.40854,-0.12599 0.53454,0 0.12599,0.12599 -0.126,0.40855 0,0.53454 0.25198,0.25198 0.81709,-0.25198 1.06907,0 0.126,0.12599 0,0.35636 0,0.53454 0,0.17818 0.126,0.40855 0,0.53454 -0.12798,0.12798 -2.13815,-0.12152 -2.13815,0 0,0.25198 0.29548,0.45485 0.53454,0.53454 0.86191,0.2873 1.77651,0.38517 2.67269,0.53454 0.48746,0.0812 1.13693,-0.15557 1.60362,0 0.37797,0.12599 0.6911,0.40854 1.06908,0.53453 0.48736,0.16246 3.08766,0 3.74177,0 1.60362,0 3.20723,0 4.81085,0 0.71272,0 1.4326,0.1008 2.13816,0 0.55779,-0.0797 1.05698,-0.39788 1.60361,-0.53453 0.40938,-0.10235 2.41384,-0.12944 2.6727,0 0.57461,0.2873 0.99415,0.86592 1.60362,1.06907 0.23417,0.0781 3.85514,0.0842 4.27631,0 0.55251,-0.1105 1.04783,-0.44191 1.60362,-0.53454 0.70302,-0.11717 1.42543,0 2.13815,0 1.91735,0 3.98195,0.17255 5.87993,0 8.32267,-0.7566 -1.39243,-0.26103 5.87993,-1.06907 0.70836,-0.0787 1.4298,0.0787 2.13816,0 3.56558,-0.39618 1.6518,-0.54257 4.81085,-1.06908 0.35151,-0.0586 0.731,0.11269 1.06908,0 0.23905,-0.0797 0.35636,-0.35636 0.53454,-0.53454 0.89089,-0.17818 1.77116,-0.42185 2.67269,-0.53454 6.66448,-0.83306 5.72267,-0.27949 12.82894,-1.06908 0.90298,-0.10033 1.77881,-0.37201 2.67269,-0.53454 1.2224,-0.22225 4.55954,-0.70897 5.87993,-1.06907 1.0872,-0.29651 2.10221,-0.84808 3.20724,-1.06909 0.69888,-0.13978 1.4326,0.1008 2.13815,0 0.55779,-0.0797 1.06185,-0.37973 1.60362,-0.53454 0.70639,-0.20182 1.43177,-0.33271 2.13816,-0.53454 0.54177,-0.15478 1.04783,-0.44191 1.60361,-0.53454 0.52727,-0.0879 1.07946,0.10483 1.60362,0 0.39069,-0.0781 0.71272,-0.35634 1.06908,-0.53453 0.53454,0 1.07635,0.0879 1.60362,0 1.64268,-0.27377 3.18389,-1.24206 4.81085,-1.60362 1.05801,-0.23511 2.14922,-0.29943 3.20723,-0.53453 1.61103,-0.35801 3.24427,-1.08144 4.81085,-1.60362 0.53454,-0.17819 1.04783,-0.4419 1.60362,-0.53454 0.52727,-0.0879 1.07946,0.10483 1.60362,0 0.39068,-0.0781 0.67839,-0.4564 1.06907,-0.53453 1.18795,-0.2376 2.54665,0.19918 3.74178,0 0.55579,-0.0926 1.0511,-0.42405 1.60362,-0.53454 0.34944,-0.0699 0.71964,0.0699 1.06908,0 0.55251,-0.11052 1.06907,-0.35637 1.60361,-0.53454 2.13069,-0.71025 4.25521,-1.52125 6.41447,-2.13818 1.77403,-0.50686 2.13972,-0.42825 3.74177,-1.06907 1.8433,-0.73732 0.30891,-0.47813 2.6727,-1.06908 0.34572,-0.0864 0.731,0.11269 1.06908,0 0.37797,-0.12599 0.69915,-0.38655 1.06907,-0.53453 1.04631,-0.41852 2.13816,-0.71271 3.20724,-1.06908 1.06908,-0.35637 2.09566,-0.88381 3.20723,-1.06908 0.52727,-0.0879 1.07445,0.0756 1.60362,0 0.72727,-0.1039 1.41777,-0.39047 2.13815,-0.53453 0.17473,-0.035 0.36552,0.0563 0.53454,0 0.37798,-0.126 0.67839,-0.45641 1.06907,-0.53454 0.52417,-0.10483 1.07635,0.0879 1.60364,0 0.55579,-0.0926 1.06183,-0.37976 1.60361,-0.53454 0.70639,-0.20182 1.41349,-0.41375 2.13816,-0.53454 1.04304,-0.17385 3.15809,0 4.2763,0 0.35636,0 0.73101,0.11269 1.06907,0 0.23908,-0.0797 0.30917,-0.42185 0.53457,-0.53453 0.15936,-0.0797 0.35634,0 0.53453,0 0.53454,0 1.06908,0 1.60362,0 2.67269,0 5.34537,0 8.01806,0 1.95998,0 3.92674,-0.16278 5.87994,0 1.25558,0.10461 2.48505,0.44476 3.74177,0.53453 1.2441,0.0889 2.50071,-0.12411 3.74179,0 0.56065,0.0561 1.05698,0.39788 1.60361,0.53454 0.17285,0.0432 0.35878,-0.0293 0.53454,0 1.96501,0.3275 3.91996,0.71271 5.87994,1.06908 0.89387,0.16253 1.77649,0.38518 2.67269,0.53453 2.35863,0.3931 5.25666,0.4902 7.48353,1.60362 0.57462,0.28731 1.05275,0.73856 1.60364,1.06907 0.68328,0.40998 1.42541,0.71274 2.13815,1.06908 0.35636,0.1782 0.71271,0.35637 1.06907,0.53454 0.17817,0.17819 0.30917,0.42185 0.53454,0.53453 0.15936,0.0797 0.40854,-0.12599 0.53454,0 0.28173,0.28173 0.25281,0.78738 0.53454,1.06908 0.12599,0.12599 0.40854,-0.12597 0.53453,0 0.26729,0.26728 -0.26725,1.33636 0,1.60364 0.126,0.12599 0.53454,-0.1782 0.53454,0 0,0.17817 -0.53454,0.17817 -0.53454,0 0,-0.25199 0.35637,-0.35637 0.53454,-0.53454"
       id="path833"
       inkscape:connector-curvature="0" />
  </g>
</svg>
