<?xml version="1.0" encoding="UTF-8" standalone="no"?>
<!-- Created with Inkscape (http://www.inkscape.org/) -->

<svg
   xmlns:dc="http://purl.org/dc/elements/1.1/"
   xmlns:cc="http://creativecommons.org/ns#"
   xmlns:rdf="http://www.w3.org/1999/02/22-rdf-syntax-ns#"
   xmlns:svg="http://www.w3.org/2000/svg"
   xmlns="http://www.w3.org/2000/svg"
   xmlns:sodipodi="http://sodipodi.sourceforge.net/DTD/sodipodi-0.dtd"
   xmlns:inkscape="http://www.inkscape.org/namespaces/inkscape"
   width="1257.9508mm"
   height="354.2955mm"
   viewBox="0 0 1257.9508 354.2955"
   version="1.1"
   id="svg8"
   inkscape:version="0.92.4 (5da689c313, 2019-01-14)"
   sodipodi:docname="testLine.svg">
  <defs
     id="defs2" />
  <sodipodi:namedview
     id="base"
     pagecolor="#ffffff"
     bordercolor="#666666"
     borderopacity="1.0"
     inkscape:pageopacity="0.0"
     inkscape:pageshadow="2"
     inkscape:zoom="0.12374369"
     inkscape:cx="1336.143"
     inkscape:cy="-335.75382"
     inkscape:document-units="mm"
     inkscape:current-layer="layer1"
     showgrid="false"
     inkscape:window-width="1920"
     inkscape:window-height="1001"
     inkscape:window-x="-9"
     inkscape:window-y="-9"
     inkscape:window-maximized="1"
     fit-margin-top="0"
     fit-margin-left="0"
     fit-margin-right="0"
     fit-margin-bottom="0" />
  <metadata
     id="metadata5">
    <rdf:RDF>
      <cc:Work
         rdf:about="">
        <dc:format>image/svg+xml</dc:format>
        <dc:type
           rdf:resource="http://purl.org/dc/dcmitype/StillImage" />
        <dc:title></dc:title>
      </cc:Work>
    </rdf:RDF>
  </metadata>
  <g
     inkscape:label="Layer 1"
     inkscape:groupmode="layer"
     id="layer1"
     transform="translate(401.5349,446.30708)">
    <path
       style="opacity:1;fill:none;fill-opacity:1;stroke:none;stroke-width:4;stroke-linejoin:round;stroke-miterlimit:4;stroke-dasharray:none;stroke-opacity:1"
       id="path1545"
       d="m -951.56248,-216.23358 c 19.73238,-4.00621 39.22513,-8.92148 58.65788,-14.18963 41.80586,-11.6873 82.85917,-25.7973 124.05627,-39.41786 23.96572,-7.78198 48.05069,-15.2106 72.24395,-22.25357 20.98212,-6.5867 42.15141,-12.41978 63.52884,-17.56236 14.09388,-3.21299 28.35857,-5.6888 42.72444,-7.2971 9.39504,-0.57775 18.7094,-1.42655 27.96373,-3.16259 6.78111,-2.44142 13.67777,-4.29911 20.7355,-5.73305 24.36093,-4.96308 48.82632,-9.24234 73.35502,-13.29489 30.58131,-4.95905 61.336,-8.74103 92.22332,-11.11501 24.39204,-2.00665 48.79917,0.81095 72.89382,4.4459 17.35542,1.43963 30.83372,8.70754 45.4461,17.55934 20.16292,12.82761 35.1091,31.90745 50.43353,49.89277 15.42105,18.59251 30.12678,37.71154 44.05013,57.44466 6.97651,8.91712 13.26513,18.45056 21.06113,26.69196 1.10376,0.93173 2.6507,2.42147 4.07426,2.9718 5.01372,1.93826 16.50236,1.51374 21.72862,1.48821 31.449139,-1.52535 61.712815,-11.84447 91.358981,-21.68361 53.857656,-18.81852 104.506843,-45.44129 154.138309,-73.2925 40.31758,-23.47126 80.04643,-48.13204 121.58102,-69.43844 6.5728,-3.37174 13.26795,-6.49951 19.90193,-9.74926 36.4745,-16.17509 73.73993,-30.9813 111.92962,-42.65385 7.36973,-2.25253 14.83725,-4.17181 22.25588,-6.25771 35.9184,-9.56061 72.72967,-14.72255 109.74869,-17.26687 26.57993,-1.29892 52.9342,3.11391 78.87136,8.41312 10.35516,2.50214 5.45079,1.16416 14.73327,3.93933 0,0 -25.57074,17.44231 -25.57074,17.44231 v 0 c -8.9019,-2.78913 -4.18615,-1.42904 -14.16772,-4.00854 -25.5229,-5.72961 -51.55988,-9.83949 -77.81269,-8.14391 -36.50207,2.34519 -72.83333,7.20257 -108.19439,16.85775 -7.38121,2.10777 -14.80706,4.06503 -22.14361,6.32333 -38.20594,11.76043 -75.50328,26.55951 -111.86734,43.09959 -58.17122,28.58267 21.03151,-10.6059 -40.52213,20.79731 -0.34901,0.17806 1.11342,-1.07839 0.77184,-0.88646 -33.80335,18.99491 -66.51336,39.89157 -100.53598,58.50853 -50.17452,28.01434 -101.4078011,54.70649 -155.717975,73.86748 -30.388242,10.04044 -61.416405,20.68102 -93.638235,22.21889 -6.99802,0.004 -17.07579,0.89032 -23.52392,-2.52479 -1.46727,-0.77711 -3.19061,-2.58387 -4.3447,-3.68117 -7.54827,-8.59023 -13.48105,-18.46337 -20.31492,-27.60692 -13.63268,-19.78927 -27.9419,-39.06477 -43.35068,-57.52052 -15.19092,-17.79614 -30.51058,-36.12774 -50.57666,-48.64232 -14.62281,-8.59462 -27.68987,-14.6803 -44.73215,-16.64039 -23.80933,-3.9743 -47.93208,-6.32071 -72.07589,-4.17118 -30.60999,2.21623 -61.10412,5.83832 -91.3884,10.83715 -25.04784,4.35417 -50.00602,9.08256 -74.82237,14.61463 -7.0775,1.77241 -13.97074,4.13657 -21.07271,5.7908 -9.23796,1.4936 -18.55444,2.11659 -27.87579,2.86176 -14.09425,1.61496 -28.09253,4.02643 -41.92823,7.16725 -21.37323,5.0782 -42.48311,11.0663 -63.43359,17.68181 -23.71315,6.98494 -47.47858,13.80617 -71.00294,21.41296 -41.34374,13.4261 -82.55059,27.30426 -124.30379,39.43051 -20.16229,5.60721 -40.39943,10.84401 -60.75028,15.70504 0,0 25.20039,-19.26969 25.20039,-19.26969 z"
       inkscape:connector-curvature="0" />
    <path
       style="fill:#000000;fill-opacity:1;stroke:none;stroke-width:0.2;stroke-linecap:butt;stroke-linejoin:miter;stroke-miterlimit:4;stroke-dasharray:none;stroke-opacity:1"
       d="m -401.5349,-193.43894 c 98.35519,-152.3748 98.35519,-152.3748 98.35519,-152.3748 l 143.21897,-79.48042 98.39266,-21.01292 91.94073,19.2434 117.59858,55.59206 96.21703,76.97363 79.11179,87.6644 130.71805,114.822 83.09756,-5.77604 80.66471,-39.38577 109.63119,-86.76544 129.00429,-113.20719"
       id="path1557"
       inkscape:connector-curvature="0" />
  </g>
</svg>
