<?xml version="1.0" encoding="UTF-8" standalone="no"?>
<!-- Created with Inkscape (http://www.inkscape.org/) -->

<svg
   xmlns:dc="http://purl.org/dc/elements/1.1/"
   xmlns:cc="http://creativecommons.org/ns#"
   xmlns:rdf="http://www.w3.org/1999/02/22-rdf-syntax-ns#"
   xmlns:svg="http://www.w3.org/2000/svg"
   xmlns="http://www.w3.org/2000/svg"
   xmlns:sodipodi="http://sodipodi.sourceforge.net/DTD/sodipodi-0.dtd"
   xmlns:inkscape="http://www.inkscape.org/namespaces/inkscape"
   width="9.3505468mm"
   height="5.6361475mm"
   viewBox="0 0 9.3505468 5.6361475"
   version="1.1"
   id="svg8"
   sodipodi:docname="leaf1_8.svg"
   inkscape:version="0.92.4 (5da689c313, 2019-01-14)">
  <defs
     id="defs2" />
  <sodipodi:namedview
     id="base"
     pagecolor="#ffffff"
     bordercolor="#666666"
     borderopacity="1.0"
     inkscape:pageopacity="0.0"
     inkscape:pageshadow="2"
     inkscape:zoom="1.979899"
     inkscape:cx="-12.821863"
     inkscape:cy="25.432581"
     inkscape:document-units="mm"
     inkscape:current-layer="svg8"
     showgrid="false"
     inkscape:window-width="1920"
     inkscape:window-height="1001"
     inkscape:window-x="-9"
     inkscape:window-y="-9"
     inkscape:window-maximized="1"
     fit-margin-top="0"
     fit-margin-left="0"
     fit-margin-right="0"
     fit-margin-bottom="0" />
  <metadata
     id="metadata5">
    <rdf:RDF>
      <cc:Work
         rdf:about="">
        <dc:format>image/svg+xml</dc:format>
        <dc:type
           rdf:resource="http://purl.org/dc/dcmitype/StillImage" />
        <dc:title></dc:title>
      </cc:Work>
    </rdf:RDF>
  </metadata>
  <path
     id="path853"
     style="fill:#000000;stroke:none;stroke-width:0.00933392"
     d="M 1.13897,3.0241 C 1.02778,2.9356 0.94461,2.8352 0.7883,2.64348 0.40204,2.16936 0.09423,1.59328 0.03372,1.2587 L 0.00282,1.01432 C -0.01828,0.93732 0.08482,0.74951 0.12355,0.68923 0.22872,0.53061 0.32442,0.43264 0.48284,0.31957 0.86712,0.04821 1.09903,-0.0144 1.66368,0.00258 2.23199,0.01528 3.08286,0.27004 3.77885,0.62209 4.22133,0.84378 4.41083,0.98645 5.50198,1.88545 7.45021,3.48887 8.37663,4.3824 9.16189,5.39907 L 9.35055,5.63615 8.79021,5.52065 C 8.48193,5.45405 7.76692,5.29042 7.19824,5.15349 6.6296,5.01654 5.9109,4.85712 5.59896,4.79488 4.51832,4.58995 2.72158,3.92144 1.65605,3.33534 1.38877,3.1898 1.24987,3.11277 1.13872,3.02421 Z"
     inkscape:connector-curvature="0" />
</svg>
