<?xml version="1.0" encoding="UTF-8" standalone="no"?>
<!-- Created with Inkscape (http://www.inkscape.org/) -->

<svg
   xmlns:dc="http://purl.org/dc/elements/1.1/"
   xmlns:cc="http://creativecommons.org/ns#"
   xmlns:rdf="http://www.w3.org/1999/02/22-rdf-syntax-ns#"
   xmlns:svg="http://www.w3.org/2000/svg"
   xmlns="http://www.w3.org/2000/svg"
   xmlns:sodipodi="http://sodipodi.sourceforge.net/DTD/sodipodi-0.dtd"
   xmlns:inkscape="http://www.inkscape.org/namespaces/inkscape"
   width="20.839106mm"
   height="9.8172331mm"
   viewBox="0 0 20.839106 9.8172331"
   version="1.1"
   id="svg8"
   sodipodi:docname="leaf2_4.svg"
   inkscape:version="0.92.4 (5da689c313, 2019-01-14)">
  <defs
     id="defs2" />
  <sodipodi:namedview
     id="base"
     pagecolor="#ffffff"
     bordercolor="#666666"
     borderopacity="1.0"
     inkscape:pageopacity="0.0"
     inkscape:pageshadow="2"
     inkscape:zoom="1.4"
     inkscape:cx="29.629562"
     inkscape:cy="41.86993"
     inkscape:document-units="mm"
     inkscape:current-layer="svg8"
     showgrid="false"
     inkscape:window-width="1920"
     inkscape:window-height="1001"
     inkscape:window-x="-9"
     inkscape:window-y="-9"
     inkscape:window-maximized="1"
     fit-margin-top="0"
     fit-margin-left="0"
     fit-margin-right="0"
     fit-margin-bottom="0" />
  <metadata
     id="metadata5">
    <rdf:RDF>
      <cc:Work
         rdf:about="">
        <dc:format>image/svg+xml</dc:format>
        <dc:type
           rdf:resource="http://purl.org/dc/dcmitype/StillImage" />
        <dc:title></dc:title>
      </cc:Work>
    </rdf:RDF>
  </metadata>
  <path
     id="path851"
     style="fill:#000000;stroke:none;stroke-width:0.03527778"
     d="m 0.23899743,8.4945159 c 0.477449,0.13066 1.61888897,0.35048 2.95559397,0.56099 4.720713,0.73876 5.355845,0.80977 7.3121946,0.74146 3.830321,-0.10929 6.500396,-0.8517 8.119881,-2.24629 1.180284,-1.00395 1.578419,-1.6167 1.982127,-2.9795 0.379679,-0.93265 0.235957,-1.47304 -0.04313,-2.29791 -0.03106,-0.0887 -0.06331,-0.17635 -0.09631,-0.2641 l -0.314636,-0.39055 c -0.981328,-1.26034 -1.881263,-1.65675 -3.755287,-1.61578 -1.942558,0.0202 -4.032316,0.81689 -8.0522596,3.05345 -2.32331,1.30246 -8.27824397,5.09963 -8.34704697174,5.34089 -0.003799998,0.0203 0.0795200017,0.0537 0.23870800174,0.0972 z"
     inkscape:connector-curvature="0"
     sodipodi:nodetypes="ccccccccccsc" />
</svg>
