<?xml version="1.0" encoding="UTF-8" standalone="no"?>
<!-- Created with Inkscape (http://www.inkscape.org/) -->

<svg
   xmlns:dc="http://purl.org/dc/elements/1.1/"
   xmlns:cc="http://creativecommons.org/ns#"
   xmlns:rdf="http://www.w3.org/1999/02/22-rdf-syntax-ns#"
   xmlns:svg="http://www.w3.org/2000/svg"
   xmlns="http://www.w3.org/2000/svg"
   xmlns:sodipodi="http://sodipodi.sourceforge.net/DTD/sodipodi-0.dtd"
   xmlns:inkscape="http://www.inkscape.org/namespaces/inkscape"
   width="5.0730901mm"
   height="9.8433743mm"
   viewBox="0 0 5.0730901 9.8433743"
   version="1.1"
   id="svg8"
   sodipodi:docname="leaf1_7.svg"
   inkscape:version="0.92.4 (5da689c313, 2019-01-14)">
  <defs
     id="defs2" />
  <sodipodi:namedview
     id="base"
     pagecolor="#ffffff"
     bordercolor="#666666"
     borderopacity="1.0"
     inkscape:pageopacity="0.0"
     inkscape:pageshadow="2"
     inkscape:zoom="1.4"
     inkscape:cx="-80.929526"
     inkscape:cy="-97.732568"
     inkscape:document-units="mm"
     inkscape:current-layer="svg8"
     showgrid="false"
     inkscape:window-width="1920"
     inkscape:window-height="1001"
     inkscape:window-x="-9"
     inkscape:window-y="-9"
     inkscape:window-maximized="1"
     fit-margin-top="0"
     fit-margin-left="0"
     fit-margin-right="0"
     fit-margin-bottom="0" />
  <metadata
     id="metadata5">
    <rdf:RDF>
      <cc:Work
         rdf:about="">
        <dc:format>image/svg+xml</dc:format>
        <dc:type
           rdf:resource="http://purl.org/dc/dcmitype/StillImage" />
        <dc:title></dc:title>
      </cc:Work>
    </rdf:RDF>
  </metadata>
  <path
     id="path851"
     style="fill:#000000;stroke:none;stroke-width:0.00933392"
     d="M 3.45527,8.65327 C 3.37467,8.77031 3.27593,8.85733 3.08743,9.02115 2.62139,9.42607 2.02992,9.74755 1.66794,9.80942 L 1.40147,9.84052 C 1.31927,9.86242 1.09471,9.75242 1.02173,9.7111 0.82922,9.59913 0.70552,9.49751 0.55527,9.32958 0.19404,8.92227 0.08833,8.67706 0.01903,8.08107 -0.05557,7.48118 0.09443,6.58446 0.37659,5.85182 0.55361,5.38602 0.68243,5.18685 1.51007,4.04031 2.98595,1.99323 3.83327,1.02059 4.83931,0.19772 L 5.07309,0 5.03229,0.59085 C 5.00649,0.9159 4.93649,1.66975 4.8732,2.26927 4.8099,2.86876 4.74515,3.62653 4.72476,3.95547 4.66596,5.09505 4.20429,6.98784 3.71998,8.10919 3.60017,8.39049 3.53633,8.53667 3.45533,8.65345 Z"
     inkscape:connector-curvature="0" />
</svg>
