<?xml version="1.0" encoding="UTF-8" standalone="no"?>
<!-- Created with Inkscape (http://www.inkscape.org/) -->

<svg
   xmlns:dc="http://purl.org/dc/elements/1.1/"
   xmlns:cc="http://creativecommons.org/ns#"
   xmlns:rdf="http://www.w3.org/1999/02/22-rdf-syntax-ns#"
   xmlns:svg="http://www.w3.org/2000/svg"
   xmlns="http://www.w3.org/2000/svg"
   xmlns:sodipodi="http://sodipodi.sourceforge.net/DTD/sodipodi-0.dtd"
   xmlns:inkscape="http://www.inkscape.org/namespaces/inkscape"
   width="11.451513mm"
   height="16.252794mm"
   viewBox="0 0 11.451513 16.252794"
   version="1.1"
   id="svg8"
   sodipodi:docname="leaf1_3.svg"
   inkscape:version="0.92.4 (5da689c313, 2019-01-14)">
  <defs
     id="defs2" />
  <sodipodi:namedview
     id="base"
     pagecolor="#ffffff"
     bordercolor="#666666"
     borderopacity="1.0"
     inkscape:pageopacity="0.0"
     inkscape:pageshadow="2"
     inkscape:zoom="2.8"
     inkscape:cx="64.191192"
     inkscape:cy="5.1303202"
     inkscape:document-units="mm"
     inkscape:current-layer="svg8"
     showgrid="false"
     inkscape:window-width="1920"
     inkscape:window-height="1001"
     inkscape:window-x="-9"
     inkscape:window-y="-9"
     inkscape:window-maximized="1"
     fit-margin-top="0"
     fit-margin-left="0"
     fit-margin-right="0"
     fit-margin-bottom="0" />
  <metadata
     id="metadata5">
    <rdf:RDF>
      <cc:Work
         rdf:about="">
        <dc:format>image/svg+xml</dc:format>
        <dc:type
           rdf:resource="http://purl.org/dc/dcmitype/StillImage" />
        <dc:title></dc:title>
      </cc:Work>
    </rdf:RDF>
  </metadata>
  <path
     id="path843"
     style="fill:#000000;stroke:none;stroke-width:0.00933392"
     d="m 0.19477301,11.19791 c -0.089,0.23911 -0.11454,0.47429 -0.15886,0.92137 -0.10976,1.10518 0.0406,2.31248 0.33481,2.9143 l 0.23816,0.42842 c 0.0551,0.14455 0.46024999,0.36731 0.60023999,0.43402 0.37382,0.17304 0.65884,0.25342 1.07132,0.30712 0.99753,0.12415 1.47854,0.0325 2.44709,-0.46965 0.98003,-0.49823 2.16543,-1.63235 2.96323,-2.79666 0.50975,-0.73671 0.67093,-1.13081 1.50664,-3.52773 1.49402,-4.27685 2.04779,-6.52641 2.20701,-8.86021 L 11.451513,0 10.608393,0.66085 c -0.46036,0.36845 -1.51671,1.23853 -2.3488,1.94165 -0.83206,0.70308 -1.9,1.56921 -2.37186,1.93369 -1.64734,1.24506 -3.99433,3.85496 -5.15940999,5.71504 -0.2941,0.46406 -0.44526,0.7076 -0.53387,0.94683 z"
     inkscape:connector-curvature="0" />
</svg>
