<?xml version="1.0" encoding="UTF-8" standalone="no"?>
<!-- Created with Inkscape (http://www.inkscape.org/) -->

<svg
   xmlns:dc="http://purl.org/dc/elements/1.1/"
   xmlns:cc="http://creativecommons.org/ns#"
   xmlns:rdf="http://www.w3.org/1999/02/22-rdf-syntax-ns#"
   xmlns:svg="http://www.w3.org/2000/svg"
   xmlns="http://www.w3.org/2000/svg"
   xmlns:sodipodi="http://sodipodi.sourceforge.net/DTD/sodipodi-0.dtd"
   xmlns:inkscape="http://www.inkscape.org/namespaces/inkscape"
   width="8.732461mm"
   height="16.394218mm"
   viewBox="0 0 8.732461 16.394218"
   version="1.1"
   id="svg8"
   sodipodi:docname="leaf2_6.svg"
   inkscape:version="0.92.4 (5da689c313, 2019-01-14)">
  <defs
     id="defs2" />
  <sodipodi:namedview
     id="base"
     pagecolor="#ffffff"
     bordercolor="#666666"
     borderopacity="1.0"
     inkscape:pageopacity="0.0"
     inkscape:pageshadow="2"
     inkscape:zoom="0.7"
     inkscape:cx="-443.43696"
     inkscape:cy="48.530598"
     inkscape:document-units="mm"
     inkscape:current-layer="svg8"
     showgrid="false"
     inkscape:window-width="1920"
     inkscape:window-height="1001"
     inkscape:window-x="-9"
     inkscape:window-y="-9"
     inkscape:window-maximized="1"
     fit-margin-top="0"
     fit-margin-left="0"
     fit-margin-right="0"
     fit-margin-bottom="0" />
  <metadata
     id="metadata5">
    <rdf:RDF>
      <cc:Work
         rdf:about="">
        <dc:format>image/svg+xml</dc:format>
        <dc:type
           rdf:resource="http://purl.org/dc/dcmitype/StillImage" />
        <dc:title></dc:title>
      </cc:Work>
    </rdf:RDF>
  </metadata>
  <path
     id="path843"
     style="fill:#000000;stroke:none;stroke-width:0.03527778"
     d="m 0.17702538,0.11319759 c 0.305328,0.25179 0.98555102,0.89694001 1.75692702,1.67437001 2.721675,2.74775 3.072598,3.13069 3.999331,4.44423 1.827576,2.56036 2.743654,4.6561704 2.792002,6.3681804 0.0419,1.24192 -0.09122,1.78881 -0.624555,2.68951 -0.314102,0.68416 -0.675193,0.84228 -1.255763,1.04453 -0.06279,0.0211 -0.125956,0.0408 -0.189321,0.0602 l -0.364762,-0.0238 c -1.160376,-0.0545 -1.816527,-0.459 -2.71741,-1.70584 -0.945851,-1.28199 -1.546906,-3.02303 -2.325033,-6.7007204 -0.44437202,-2.13012 -1.33702702,-7.80403001 -1.24131802,-7.96173001 0.0091,-0.012 0.06804,0.027 0.16984,0.11096 z"
     inkscape:connector-curvature="0"
     sodipodi:nodetypes="ccccccccccsc" />
</svg>
