<?xml version="1.0" encoding="UTF-8" standalone="no"?>
<!-- Created with Inkscape (http://www.inkscape.org/) -->

<svg
   xmlns:dc="http://purl.org/dc/elements/1.1/"
   xmlns:cc="http://creativecommons.org/ns#"
   xmlns:rdf="http://www.w3.org/1999/02/22-rdf-syntax-ns#"
   xmlns:svg="http://www.w3.org/2000/svg"
   xmlns="http://www.w3.org/2000/svg"
   xmlns:sodipodi="http://sodipodi.sourceforge.net/DTD/sodipodi-0.dtd"
   xmlns:inkscape="http://www.inkscape.org/namespaces/inkscape"
   width="8.0423107mm"
   height="2.8469863mm"
   viewBox="0 0 8.0423107 2.8469863"
   version="1.1"
   id="svg8"
   sodipodi:docname="leaf2_11.svg"
   inkscape:version="0.92.4 (5da689c313, 2019-01-14)">
  <defs
     id="defs2" />
  <sodipodi:namedview
     id="base"
     pagecolor="#ffffff"
     bordercolor="#666666"
     borderopacity="1.0"
     inkscape:pageopacity="0.0"
     inkscape:pageshadow="2"
     inkscape:zoom="1.4"
     inkscape:cx="171.78298"
     inkscape:cy="-144.51508"
     inkscape:document-units="mm"
     inkscape:current-layer="svg8"
     showgrid="false"
     inkscape:window-width="1920"
     inkscape:window-height="1001"
     inkscape:window-x="-9"
     inkscape:window-y="-9"
     inkscape:window-maximized="1"
     fit-margin-top="0"
     fit-margin-left="0"
     fit-margin-right="0"
     fit-margin-bottom="0" />
  <metadata
     id="metadata5">
    <rdf:RDF>
      <cc:Work
         rdf:about="">
        <dc:format>image/svg+xml</dc:format>
        <dc:type
           rdf:resource="http://purl.org/dc/dcmitype/StillImage" />
        <dc:title></dc:title>
      </cc:Work>
    </rdf:RDF>
  </metadata>
  <path
     inkscape:connector-curvature="0"
     d="m 6.090812,2.8438416 c 0.113366,0.009 0.218028,-0.002 0.416524,-0.0243 0.490716,-0.0552 0.99697,-0.20256 1.225145,-0.34654 l 0.159274,-0.11174 c 0.05658,-0.0295 0.108284,-0.17819 0.121548,-0.22876 0.03373,-0.13446 0.0371,-0.23275 0.01501,-0.36989 -0.05623,-0.33114 -0.148971,-0.47841 -0.473248,-0.74891 -0.323836,-0.27452996 -0.9457,-0.56302996 -1.537902,-0.72433996 -0.37526,-0.10366 -0.563708,-0.12322 -1.693871,-0.19574 -2.016893,-0.1303 -3.052157,-0.12418 -4.080395,0.0158 L 0,0.13922164 l 0.379166,0.21714 c 0.210325,0.11795 0.703618,0.38656 1.099866,0.59669 0.396248,0.21011996 0.889093,0.48277996 1.098976,0.60474996 0.72085,0.42805 2.109923,0.96941 3.043926,1.19189 0.233391,0.0566 0.355529,0.0853 0.468909,0.0942 z"
     style="fill:#000000;stroke:none;stroke-width:0.00933391"
     id="path824" />
</svg>
