<?xml version="1.0" encoding="UTF-8" standalone="no"?>
<!-- Created with Inkscape (http://www.inkscape.org/) -->

<svg
   xmlns:dc="http://purl.org/dc/elements/1.1/"
   xmlns:cc="http://creativecommons.org/ns#"
   xmlns:rdf="http://www.w3.org/1999/02/22-rdf-syntax-ns#"
   xmlns:svg="http://www.w3.org/2000/svg"
   xmlns="http://www.w3.org/2000/svg"
   xmlns:sodipodi="http://sodipodi.sourceforge.net/DTD/sodipodi-0.dtd"
   xmlns:inkscape="http://www.inkscape.org/namespaces/inkscape"
   width="11.306383mm"
   height="8.3809586mm"
   viewBox="0 0 11.306383 8.3809586"
   version="1.1"
   id="svg8"
   sodipodi:docname="leaf2_10.svg"
   inkscape:version="0.92.4 (5da689c313, 2019-01-14)">
  <defs
     id="defs2" />
  <sodipodi:namedview
     id="base"
     pagecolor="#ffffff"
     bordercolor="#666666"
     borderopacity="1.0"
     inkscape:pageopacity="0.0"
     inkscape:pageshadow="2"
     inkscape:zoom="1.4"
     inkscape:cx="220.4261"
     inkscape:cy="32.661347"
     inkscape:document-units="mm"
     inkscape:current-layer="svg8"
     showgrid="false"
     inkscape:window-width="1920"
     inkscape:window-height="1001"
     inkscape:window-x="-9"
     inkscape:window-y="-9"
     inkscape:window-maximized="1"
     fit-margin-top="0"
     fit-margin-left="0"
     fit-margin-right="0"
     fit-margin-bottom="0" />
  <metadata
     id="metadata5">
    <rdf:RDF>
      <cc:Work
         rdf:about="">
        <dc:format>image/svg+xml</dc:format>
        <dc:type
           rdf:resource="http://purl.org/dc/dcmitype/StillImage" />
        <dc:title></dc:title>
      </cc:Work>
    </rdf:RDF>
  </metadata>
  <path
     sodipodi:nodetypes="ccccccccccsc"
     inkscape:connector-curvature="0"
     d="m 0.06175085,8.2289094 c 0.144847,-0.27373 0.529971,-0.89118 1.00066495,-1.59551 1.664282,-2.48553 1.900103,-2.8086 2.746927,-3.68901 1.647746,-1.73355 3.075899,-2.67582 4.33831,-2.87007 0.914837,-0.14652 1.338444,-0.0865 2.0790842,0.27075 0.550124,0.19648 0.716731,0.47911 0.946136,0.93812 0.02418,0.0498 0.04731,0.1 0.07059,0.15015 l 0.0323,0.30202 c 0.118395,0.9589 -0.09162,1.53485 -0.892547,2.388 -0.8208242,0.8933 -2.0291032,1.54455 -4.6487092,2.51618 -1.518133,0.55755 -5.60176295,1.80348 -5.73175895,1.73901 -0.01084,-0.006 0.01071,-0.0584 0.05902,-0.14964 z"
     style="fill:#000000;stroke:none;stroke-width:0.03527778"
     id="path837" />
</svg>
