<?xml version="1.0" encoding="UTF-8" standalone="no"?>
<!-- Created with Inkscape (http://www.inkscape.org/) -->

<svg
   xmlns:dc="http://purl.org/dc/elements/1.1/"
   xmlns:cc="http://creativecommons.org/ns#"
   xmlns:rdf="http://www.w3.org/1999/02/22-rdf-syntax-ns#"
   xmlns:svg="http://www.w3.org/2000/svg"
   xmlns="http://www.w3.org/2000/svg"
   xmlns:sodipodi="http://sodipodi.sourceforge.net/DTD/sodipodi-0.dtd"
   xmlns:inkscape="http://www.inkscape.org/namespaces/inkscape"
   width="6.1118579mm"
   height="11.726183mm"
   viewBox="0 0 6.1118579 11.726183"
   version="1.1"
   id="svg8"
   sodipodi:docname="leaf2_9.svg"
   inkscape:version="0.92.4 (5da689c313, 2019-01-14)">
  <defs
     id="defs2" />
  <sodipodi:namedview
     id="base"
     pagecolor="#ffffff"
     bordercolor="#666666"
     borderopacity="1.0"
     inkscape:pageopacity="0.0"
     inkscape:pageshadow="2"
     inkscape:zoom="1.4"
     inkscape:cx="-164.82425"
     inkscape:cy="-137.66331"
     inkscape:document-units="mm"
     inkscape:current-layer="svg8"
     showgrid="false"
     inkscape:window-width="1920"
     inkscape:window-height="1001"
     inkscape:window-x="-9"
     inkscape:window-y="-9"
     inkscape:window-maximized="1"
     fit-margin-top="0"
     fit-margin-left="0"
     fit-margin-right="0"
     fit-margin-bottom="0" />
  <metadata
     id="metadata5">
    <rdf:RDF>
      <cc:Work
         rdf:about="">
        <dc:format>image/svg+xml</dc:format>
        <dc:type
           rdf:resource="http://purl.org/dc/dcmitype/StillImage" />
        <dc:title></dc:title>
      </cc:Work>
    </rdf:RDF>
  </metadata>
  <path
     id="path839"
     style="fill:#000000;stroke:none;stroke-width:0.03527778"
     d="m 0.04469378,0.13977854 c -0.02875,0.27709 -0.04758,0.93627996 -0.0443299985,1.70659996 0.0139999986,2.72031 0.0311899985,3.08531 0.23888599855,4.19954 0.393463,2.18241 1.02691502,3.68042 1.92020602,4.5559605 0.644341,0.63853 1.009466,0.84433 1.779456,1.02704 0.53602,0.18405 0.8148,0.0831 1.23513,-0.10506 0.045,-0.0208 0.0896,-0.0424 0.13399,-0.0642 l 0.18308,-0.19325 c 0.59378,-0.60425 0.72892,-1.13177 0.54316,-2.1999705 -0.18049,-1.10805 -0.79259,-2.27293 -2.34949,-4.4891 C 2.7796278,3.2968785 0.21236878,0.03089854 0.07629778,5.8540636e-5 0.06497778,-0.00194146 0.05425778,0.04735854 0.04468778,0.13972854 Z"
     inkscape:connector-curvature="0"
     sodipodi:nodetypes="ccccccccccsc" />
</svg>
