<?xml version="1.0" encoding="UTF-8" standalone="no"?>
<!-- Created with Inkscape (http://www.inkscape.org/) -->

<svg
   xmlns:dc="http://purl.org/dc/elements/1.1/"
   xmlns:cc="http://creativecommons.org/ns#"
   xmlns:rdf="http://www.w3.org/1999/02/22-rdf-syntax-ns#"
   xmlns:svg="http://www.w3.org/2000/svg"
   xmlns="http://www.w3.org/2000/svg"
   xmlns:sodipodi="http://sodipodi.sourceforge.net/DTD/sodipodi-0.dtd"
   xmlns:inkscape="http://www.inkscape.org/namespaces/inkscape"
   width="14.847997mm"
   height="6.4315448mm"
   viewBox="0 0 14.847997 6.4315448"
   version="1.1"
   id="svg8"
   inkscape:version="0.92.4 (5da689c313, 2019-01-14)"
   sodipodi:docname="leaf2_7.svg">
  <defs
     id="defs2" />
  <sodipodi:namedview
     id="base"
     pagecolor="#ffffff"
     bordercolor="#666666"
     borderopacity="1.0"
     inkscape:pageopacity="0.0"
     inkscape:pageshadow="2"
     inkscape:zoom="1.4"
     inkscape:cx="-23.656392"
     inkscape:cy="-30.695304"
     inkscape:document-units="mm"
     inkscape:current-layer="svg8"
     showgrid="false"
     fit-margin-top="0"
     fit-margin-left="0"
     fit-margin-right="0"
     fit-margin-bottom="0"
     inkscape:window-width="1920"
     inkscape:window-height="1001"
     inkscape:window-x="-9"
     inkscape:window-y="-9"
     inkscape:window-maximized="1" />
  <metadata
     id="metadata5">
    <rdf:RDF>
      <cc:Work
         rdf:about="">
        <dc:format>image/svg+xml</dc:format>
        <dc:type
           rdf:resource="http://purl.org/dc/dcmitype/StillImage" />
        <dc:title></dc:title>
      </cc:Work>
    </rdf:RDF>
  </metadata>
  <path
     id="path845"
     style="fill:#000000;stroke:none;stroke-width:0.03527778"
     d="m 0.17023518,5.5649978 c 0.340187,0.0856 1.15347302,0.22961 2.10588702,0.36752 3.36355,0.48398 3.816087,0.5305 5.210002,0.48575 2.7291398,-0.0716 4.6315898,-0.55797 5.7854898,-1.47161 0.84096,-0.65771 1.12464,-1.05914 1.41228,-1.95195 0.27053,-0.61101 0.16812,-0.96503 -0.0307,-1.50543 -0.0221,-0.0581 -0.0451,-0.11553 -0.0686,-0.17302 l -0.22418,-0.25586 c -0.6992,-0.82568 -1.34041,-1.08538 -2.67567,-1.05854 -1.38409,0.0132 -2.8730598,0.53517 -5.7373108,2.0004 -1.655379,0.85328 -5.89832202,3.34091 -5.947345017273,3.49897 -0.0027000027,0.0133 0.05665999727,0.0352 0.170081997273,0.0637 z"
     inkscape:connector-curvature="0"
     sodipodi:nodetypes="ccccccccccsc" />
</svg>
