<?xml version="1.0" encoding="UTF-8" standalone="no"?>
<!-- Created with Inkscape (http://www.inkscape.org/) -->

<svg
   xmlns:dc="http://purl.org/dc/elements/1.1/"
   xmlns:cc="http://creativecommons.org/ns#"
   xmlns:rdf="http://www.w3.org/1999/02/22-rdf-syntax-ns#"
   xmlns:svg="http://www.w3.org/2000/svg"
   xmlns="http://www.w3.org/2000/svg"
   xmlns:sodipodi="http://sodipodi.sourceforge.net/DTD/sodipodi-0.dtd"
   xmlns:inkscape="http://www.inkscape.org/namespaces/inkscape"
   width="11.849192mm"
   height="19.634995mm"
   viewBox="0 0 11.849192 19.634995"
   version="1.1"
   id="svg8"
   sodipodi:docname="leaf2_1.svg"
   inkscape:version="0.92.4 (5da689c313, 2019-01-14)">
  <defs
     id="defs2" />
  <sodipodi:namedview
     id="base"
     pagecolor="#ffffff"
     bordercolor="#666666"
     borderopacity="1.0"
     inkscape:pageopacity="0.0"
     inkscape:pageshadow="2"
     inkscape:zoom="2.8"
     inkscape:cx="-136.74166"
     inkscape:cy="40.796174"
     inkscape:document-units="mm"
     inkscape:current-layer="svg8"
     showgrid="false"
     inkscape:window-width="1920"
     inkscape:window-height="1001"
     inkscape:window-x="-9"
     inkscape:window-y="-9"
     inkscape:window-maximized="1"
     fit-margin-top="0"
     fit-margin-left="0"
     fit-margin-right="0"
     fit-margin-bottom="0" />
  <metadata
     id="metadata5">
    <rdf:RDF>
      <cc:Work
         rdf:about="">
        <dc:format>image/svg+xml</dc:format>
        <dc:type
           rdf:resource="http://purl.org/dc/dcmitype/StillImage" />
        <dc:title></dc:title>
      </cc:Work>
    </rdf:RDF>
  </metadata>
  <path
     sodipodi:nodetypes="ccccccccccsc"
     inkscape:connector-curvature="0"
     d="m 1.9336291,0.25366 c -0.17596,0.495 -0.48288,1.66079 -0.78463,3.01705 -1.05994003,4.78898 -1.16767003,5.42791 -1.14678003,7.34135 0.0104,3.75098 0.83716,6.2391 2.49877003,7.5687 1.19571,0.97134 1.93584,1.24693 3.59756,1.38538 1.13386,0.19656 1.80254,-0.0477 2.82521,-0.4793 0.11,-0.0476 0.21875,-0.0958 0.32766,-0.14501 l 0.49007,-0.38406 C 11.321899,17.35183 11.838029,16.3903 11.848069,14.55272 11.885869,12.64369 10.974149,10.73735 8.3552391,7.20406 6.8295591,5.16389 2.3551891,0.02191 2.0609491,0 c -0.0247,1.3e-4 -0.0685,0.0885 -0.12725,0.25352 z"
     style="fill:#000000;stroke:none;stroke-width:0.03527778"
     id="path855" />
</svg>
