<?xml version="1.0" encoding="UTF-8" standalone="no"?>
<!-- Created with Inkscape (http://www.inkscape.org/) -->

<svg
   xmlns:dc="http://purl.org/dc/elements/1.1/"
   xmlns:cc="http://creativecommons.org/ns#"
   xmlns:rdf="http://www.w3.org/1999/02/22-rdf-syntax-ns#"
   xmlns:svg="http://www.w3.org/2000/svg"
   xmlns="http://www.w3.org/2000/svg"
   xmlns:sodipodi="http://sodipodi.sourceforge.net/DTD/sodipodi-0.dtd"
   xmlns:inkscape="http://www.inkscape.org/namespaces/inkscape"
   width="18.184973mm"
   height="8.2473955mm"
   viewBox="0 0 18.184973 8.2473955"
   version="1.1"
   id="svg8"
   sodipodi:docname="leaf1_2.svg"
   inkscape:version="0.92.4 (5da689c313, 2019-01-14)">
  <defs
     id="defs2" />
  <sodipodi:namedview
     id="base"
     pagecolor="#ffffff"
     bordercolor="#666666"
     borderopacity="1.0"
     inkscape:pageopacity="0.0"
     inkscape:pageshadow="2"
     inkscape:zoom="2.8"
     inkscape:cx="32.888619"
     inkscape:cy="35.384274"
     inkscape:document-units="mm"
     inkscape:current-layer="svg8"
     showgrid="false"
     inkscape:window-width="1920"
     inkscape:window-height="1001"
     inkscape:window-x="-9"
     inkscape:window-y="-9"
     inkscape:window-maximized="1"
     fit-margin-top="0"
     fit-margin-left="0"
     fit-margin-right="0"
     fit-margin-bottom="0" />
  <metadata
     id="metadata5">
    <rdf:RDF>
      <cc:Work
         rdf:about="">
        <dc:format>image/svg+xml</dc:format>
        <dc:type
           rdf:resource="http://purl.org/dc/dcmitype/StillImage" />
        <dc:title></dc:title>
      </cc:Work>
    </rdf:RDF>
  </metadata>
  <path
     inkscape:connector-curvature="0"
     d="m 4.2633821,0.00404154 c -0.25451,-0.0178 -0.48733,0.0241 -0.92872,0.10787 -1.09118,0.2069 -2.20684,0.69217 -2.70104997,1.14438996 l -0.3437,0.34947 c -0.12309,0.0937 -0.22234,0.54526 -0.24679,0.6984 -0.0604,0.40747 -0.057,0.70359 0.008,1.11444 0.16268,0.99197 0.38646,1.42751 1.14175997,2.21477 0.75477,0.79938 2.17754,1.61616 3.51979,2.05258 0.8507,0.28089 1.27428,0.32419 3.80965,0.4488 4.5246999,0.22509 6.8390699,0.12088 9.1227999,-0.38562 l 0.53985,-0.10982 -0.87209,-0.62211 c -0.48348,-0.33754 -1.61652,-1.1051 -2.52604,-1.70469 -0.90949,-0.59958 -2.042,-1.37937 -2.52493,-1.72906 -1.65968,-1.22856 -4.8262499,-2.74274996 -6.9396799,-3.33496996 -0.52824,-0.15103 -0.80456,-0.22725 -1.05907,-0.24467 z"
     style="fill:#000000;stroke:none;stroke-width:0.00933392"
     id="path828" />
</svg>
