<?xml version="1.0" encoding="UTF-8" standalone="no"?>
<!-- Created with Inkscape (http://www.inkscape.org/) -->

<svg
   xmlns:dc="http://purl.org/dc/elements/1.1/"
   xmlns:cc="http://creativecommons.org/ns#"
   xmlns:rdf="http://www.w3.org/1999/02/22-rdf-syntax-ns#"
   xmlns:svg="http://www.w3.org/2000/svg"
   xmlns="http://www.w3.org/2000/svg"
   xmlns:sodipodi="http://sodipodi.sourceforge.net/DTD/sodipodi-0.dtd"
   xmlns:inkscape="http://www.inkscape.org/namespaces/inkscape"
   width="15.32837mm"
   height="9.9571638mm"
   viewBox="0 0 15.32837 9.9571638"
   version="1.1"
   id="svg8"
   sodipodi:docname="leaf1_4.svg"
   inkscape:version="0.92.4 (5da689c313, 2019-01-14)">
  <defs
     id="defs2" />
  <sodipodi:namedview
     id="base"
     pagecolor="#ffffff"
     bordercolor="#666666"
     borderopacity="1.0"
     inkscape:pageopacity="0.0"
     inkscape:pageshadow="2"
     inkscape:zoom="2.8"
     inkscape:cx="55.26451"
     inkscape:cy="46.035327"
     inkscape:document-units="mm"
     inkscape:current-layer="svg8"
     showgrid="false"
     inkscape:window-width="1920"
     inkscape:window-height="1001"
     inkscape:window-x="-9"
     inkscape:window-y="-9"
     inkscape:window-maximized="1"
     fit-margin-top="0"
     fit-margin-left="0"
     fit-margin-right="0"
     fit-margin-bottom="0" />
  <metadata
     id="metadata5">
    <rdf:RDF>
      <cc:Work
         rdf:about="">
        <dc:format>image/svg+xml</dc:format>
        <dc:type
           rdf:resource="http://purl.org/dc/dcmitype/StillImage" />
        <dc:title></dc:title>
      </cc:Work>
    </rdf:RDF>
  </metadata>
  <path
     id="path845"
     style="fill:#000000;stroke:none;stroke-width:0.03527778"
     d="M 15.22406,9.76359 C 14.99186,9.42364 14.39529,8.6629 13.67565,7.79843 11.13207,4.74801 10.77714,4.35354 9.55531,3.29985 7.17395,1.22303 5.21551,0.14967 3.60462,0.02924 2.43617,-0.06556 1.91922,0.05654 1.06287,0.59698 0.41385,0.90914 0.25931,1.29306 0.0597,1.91231 0.0387,1.97951 0.0195,2.04693 0,2.11442 l 0.0167,0.39511 c 0.033,1.25604 0.40334,1.98117 1.56282,3.0043 1.19186,1.07312 2.8213,1.79193 6.27111,2.77927 1.99821,0.56501 7.32537,1.7556 7.47535,1.65846 0.0125,-0.008 -0.0244,-0.0747 -0.10182,-0.18794 z"
     inkscape:connector-curvature="0"
     sodipodi:nodetypes="ccccccccccsc" />
</svg>
