<?xml version="1.0" encoding="UTF-8" standalone="no"?>
<!-- Created with Inkscape (http://www.inkscape.org/) -->

<svg
   viewBox="0 0 53.394897 23.052525"
   version="1.1">
  <defs/>
  <path
     d="m 12.01399,0.0014 c -0.74083,-0.0177 -1.411,0.13267 -2.681,0.43253 C 6.19326,1.17476 3.01833,2.7266 1.6425,4.10244 L 0.69011,5.16077 C 0.3446,5.44847 0.11529,6.77163 0.06534,7.21956 c -0.12298,1.19014 -0.0749,2.04898 0.16591,3.23288 0.59972,2.8575 1.30517,4.0925 3.59823,6.27972 2.29305,2.2225 6.52677,4.40942 10.47788,5.50302 2.50473,0.70556 3.73945,0.77656 11.11251,0.81184 13.15861,0.0706 19.861,-0.52951 26.42266,-2.2934 L 53.3949,20.36553 50.7842,18.67261 C 49.33781,17.75539 45.95118,15.67396 43.23479,14.05119 40.5184,12.42841 37.13177,10.31147 35.68538,9.35897 30.71121,6.00758 21.32757,2.0214 15.11868,0.57501 13.56646,0.20459 12.75482,0.01904 12.01399,0.0014 Z"
     style="fill:#000000;stroke:none;stroke-width:0.03527778"
   />
</svg>
