<?xml version="1.0" encoding="UTF-8" standalone="no"?>
<!-- Created with Inkscape (http://www.inkscape.org/) -->

<svg
   xmlns:dc="http://purl.org/dc/elements/1.1/"
   xmlns:cc="http://creativecommons.org/ns#"
   xmlns:rdf="http://www.w3.org/1999/02/22-rdf-syntax-ns#"
   xmlns:svg="http://www.w3.org/2000/svg"
   xmlns="http://www.w3.org/2000/svg"
   xmlns:sodipodi="http://sodipodi.sourceforge.net/DTD/sodipodi-0.dtd"
   xmlns:inkscape="http://www.inkscape.org/namespaces/inkscape"
   width="10.330437mm"
   height="4.3406353mm"
   viewBox="0 0 10.330437 4.3406353"
   version="1.1"
   id="svg8"
   sodipodi:docname="leaf1_6.svg"
   inkscape:version="0.92.4 (5da689c313, 2019-01-14)">
  <defs
     id="defs2" />
  <sodipodi:namedview
     id="base"
     pagecolor="#ffffff"
     bordercolor="#666666"
     borderopacity="1.0"
     inkscape:pageopacity="0.0"
     inkscape:pageshadow="2"
     inkscape:zoom="1.4"
     inkscape:cx="115.55489"
     inkscape:cy="-59.047812"
     inkscape:document-units="mm"
     inkscape:current-layer="svg8"
     showgrid="false"
     inkscape:window-width="1920"
     inkscape:window-height="1001"
     inkscape:window-x="-9"
     inkscape:window-y="-9"
     inkscape:window-maximized="1"
     fit-margin-top="0"
     fit-margin-left="0"
     fit-margin-right="0"
     fit-margin-bottom="0" />
  <metadata
     id="metadata5">
    <rdf:RDF>
      <cc:Work
         rdf:about="">
        <dc:format>image/svg+xml</dc:format>
        <dc:type
           rdf:resource="http://purl.org/dc/dcmitype/StillImage" />
        <dc:title></dc:title>
      </cc:Work>
    </rdf:RDF>
  </metadata>
  <path
     inkscape:connector-curvature="0"
     d="M 2.23598,4.4e-4 C 2.0939,0.00244 1.96668,0.03734 1.72576,0.10511 1.1302,0.27274 0.53436,0.59563 0.28187,0.87043 L 0.10798,1.08096 c -0.0638,0.0579 -0.0971,0.31333 -0.10328,0.39951 -0.0138,0.22907 0.002,0.39324 0.0582,0.61812 0.13809,0.5427 0.2833,0.77363 0.74043,1.17414 0.45743,0.40727 1.28643,0.79198 2.0524,0.96949 0.48567,0.1149 0.72285,0.11849 2.13596,0.0654 2.52202,-0.0932 3.80145,-0.2626 5.04449,-0.6538 L 10.33044,3.56662 9.81646,3.26337 C 9.53183,3.09942 8.86603,2.72799 8.33235,2.43906 7.79868,2.15015 7.13255,1.77196 6.84768,1.60117 5.86735,0.99933 4.03693,0.31162 2.83544,0.08486 2.53497,0.02656 2.37796,-0.00244 2.23586,1.6e-4 Z"
     style="fill:#000000;stroke:none;stroke-width:0.00933392"
     id="path849" />
</svg>
