<?xml version="1.0" encoding="UTF-8" standalone="no"?>
<!-- Created with Inkscape (http://www.inkscape.org/) -->

<svg
   xmlns:dc="http://purl.org/dc/elements/1.1/"
   xmlns:cc="http://creativecommons.org/ns#"
   xmlns:rdf="http://www.w3.org/1999/02/22-rdf-syntax-ns#"
   xmlns:svg="http://www.w3.org/2000/svg"
   xmlns="http://www.w3.org/2000/svg"
   xmlns:sodipodi="http://sodipodi.sourceforge.net/DTD/sodipodi-0.dtd"
   xmlns:inkscape="http://www.inkscape.org/namespaces/inkscape"
   width="60.105476mm"
   height="86.563805mm"
   viewBox="0 0 60.105484 86.563804"
   version="1.1"
   id="svg8"
   sodipodi:docname="seed.svg"
   inkscape:version="0.92.4 (5da689c313, 2019-01-14)">
  <defs
     id="defs2" />
  <sodipodi:namedview
     id="base"
     pagecolor="#ffffff"
     bordercolor="#666666"
     borderopacity="1.0"
     inkscape:pageopacity="0.0"
     inkscape:pageshadow="2"
     inkscape:zoom="0.35"
     inkscape:cx="-671.20062"
     inkscape:cy="255.29767"
     inkscape:document-units="mm"
     inkscape:current-layer="layer1"
     showgrid="false"
     fit-margin-top="0"
     fit-margin-left="0"
     fit-margin-right="0"
     fit-margin-bottom="0"
     inkscape:window-width="1920"
     inkscape:window-height="1001"
     inkscape:window-x="-9"
     inkscape:window-y="-9"
     inkscape:window-maximized="1" />
  <metadata
     id="metadata5">
    <rdf:RDF>
      <cc:Work
         rdf:about="">
        <dc:format>image/svg+xml</dc:format>
        <dc:type
           rdf:resource="http://purl.org/dc/dcmitype/StillImage" />
        <dc:title></dc:title>
      </cc:Work>
    </rdf:RDF>
  </metadata>
  <g
     inkscape:label="Layer 1"
     inkscape:groupmode="layer"
     id="layer1"
     transform="translate(-666.81567,213.96322)">
    <path
       style="fill:#000000;stroke:none;stroke-width:0.03527778"
       d="m -154.58255,-94.964526 c -0.0701,-0.0085 -1.17245,1.172934 -2.37863,2.626195 -1.24542,1.484058 -4.63349,5.409692 -7.59542,8.74727 -2.93112,3.376838 -25.67164,12.347946 -26.76426,13.743863 l -1.97249,2.497522 -0.004,-2.025717 -0.004,-2.026232 -0.91261,1.666568 c -0.50376,0.934075 -1.07413,2.712773 -1.29656,3.965131 -0.24786,1.462493 -0.94403,3.404203 -1.88154,5.280815 -4.327,8.751504 -7.49282,24.358997 -7.1706,35.804534 0.22483,9.017417 1.29632,17.4977608 3.08251,24.18095284 0.2625,1.0622282 0.50256,2.01521216 0.48986,2.12028316 -0.0127,0.105068 -0.55322,-0.422458 -1.20406,-1.21181296 -1.24005,-1.50020124 -6.82714,-6.72369124 -7.01919,-6.60476624 -0.19628,0.153949 1.85533,7.5801122 2.61585,9.5198332 0.97719,2.498929 4.032,-0.381974 6.22804,0.558623 2.70024,1.179213 39.08069,-14.541709 41.79024,-4.61987216 1.80276,6.60352816 -0.26931,15.26973716 -3.18689,23.61974716 -0.49625,-0.618899 -0.97271,-1.130741 -1.12914,-1.405082 0.0165,0.641089 -0.0282,2.082761 -0.29146,3.792016 0.34921,-0.446359 0.69494,-0.887385 1.05008,-1.348239 -3.69845,10.31602 -8.50117,19.99493 -8.63981,24.497215 -0.17854,5.592879 -0.99713,14.128504 -1.31773,13.841014 -0.16242,-0.126234 -0.26032,-0.493014 -0.22222,-0.808221 0.2032,-1.681095 -1.9413,-10.397497 -4.01267,-16.191259 l -2.30632,-6.497278 -0.53432,2.067059 c -1.97661,7.827423 -3.2754,14.457928 -3.27579,16.518888 0.11938,7.83203 0.58477,9.274069 3.71296,11.322309 l 1.74614,1.13481 0.36431,3.4556 0.32918,3.45096 -2.14196,5.95932 c -1.1769,3.26906 -3.3196,8.944486 -4.75322,12.573386 -8.99496,22.969661 -9.95144,25.590521 -12.44265,33.853241 -0.78126,2.64172 -1.49691,5.32672 -1.56888,5.92212 -0.0762,0.63041 -0.24451,1.14306 -0.41963,1.12189 -0.14008,-0.0169 -1.13188,-1.80703 -2.18641,-3.95996 l -1.94151,-3.93 0.97049,-1.26865 c 2.30724,-2.91923 2.84068,-5.27132 2.14408,-9.79734 -0.67546,-4.70114 -3.01815,-9.42601 -8.99171,-18.214391 -3.47306,-5.07482 -13.33115,-17.886306 -13.85651,-17.949806 -0.17508,-0.0212 -0.32692,3.58503 -0.33073,8.02638 0,11.761897 0.0587,13.332607 0.83923,18.046447 1.47718,9.23986 3.89547,15.39537 7.33079,18.72444 2.4778,2.43157 3.88528,3.13464 6.858,3.5295 l 2.31147,0.27957 2.85874,5.74693 2.88974,5.78569 -0.14108,2.93264 c -0.27707,6.11399 0.52476,15.05874 2.05158,23.59391 0.60929,3.48496 1.2494,5.8368 5.87097,21.10673 1.19655,3.93951 2.31344,7.95332 2.85922,10.18645 0.34813,0.13189 0.64894,0.54038 0.69505,1.2516 0.0885,1.3647 0.25925,2.72363 0.31111,4.09071 0.0142,0.37436 0.0144,0.46914 0.0196,0.66405 l 0.21964,0.11627 0.32762,1.99367 c 0.93797,5.76337 0.96912,9.03645 0.0801,16.39125 -0.96404,8.26963 -1.9255,11.81357 -4.30777,15.64762 -1.86045,3.04431 -4.06633,5.12289 -11.35952,10.77971 l -6.0017,4.67568 -1.72494,-3.37085 -1.72445,-3.37138 0.96636,-1.23299 c 0.72239,-0.97873 0.99498,-1.76344 1.22781,-3.6897 0.27093,-2.24147 0.18602,-2.71346 -0.90586,-5.43946 -0.6543,-1.64261 -2.05737,-4.44198 -3.11919,-6.24045 -1.79776,-3.06006 -12.67171,-17.1669 -14.56451,-18.85259 l -0.83043,-0.77515 0.25788,1.98541 c 0.14894,1.11957 0.20517,2.12105 0.0832,2.24844 -0.25248,0.32483 0.10763,7.04913 0.59066,10.6965 1.16505,8.88232 4.69328,17.90836 8.13593,20.88297 0.90022,0.78397 1.54898,1.00444 3.79046,1.27537 l 2.69649,0.32556 1.91926,3.82096 1.91875,3.82096 -1.41026,2.84995 c -2.14866,4.25317 -3.16195,7.93321 -3.94085,14.3774 -1.32926,10.9972 -0.39225,24.11595 3.1471,43.34156 0.29983,1.63528 0.28723,1.7403 -0.27852,1.42317 -1.4648,-0.81669 -3.15895,-0.91499 -6.56964,-0.3323 l -3.58531,0.56174 1.99421,0.84542 c 3.55466,1.46016 5.52874,1.59184 7.10862,0.57466 0.65465,-0.41836 1.2966,-0.73174 1.47172,-0.71057 0.17511,0.0212 0.48535,0.98295 0.70435,2.11098 0.83249,4.57798 6.23849,27.76024 6.54639,28.1528 0.0266,0.0743 0.82695,-0.0776 1.71408,-0.36121 0.8871,-0.28366 2.24642,-0.65249 2.98073,-0.84801 l 1.35907,-0.36897 -1.61695,-6.02289 c -5.36286,-20.01454 -8.87847,-37.67384 -10.05315,-50.00419 -0.18747,-1.97704 -0.3611,-3.77454 -0.40153,-4.02817 -0.0404,-0.25363 0.84568,-0.82196 1.96836,-1.29035 1.79962,-0.77745 2.15805,-0.80529 3.1006,-0.37155 1.67495,0.84206 4.77848,1.03981 6.627,0.44595 2.91497,-0.89135 16.0492,-11.95432 15.3453,-12.89222 -0.0616,-0.0785 -1.36849,0.15425 -2.87217,0.54105 -1.49941,0.35176 -3.61139,0.77171 -4.6917,0.88987 -3.12744,0.29713 -10.70409,3.00628 -12.62768,4.51496 -1.53099,1.20078 -3.28447,3.65366 -3.41993,4.77438 -0.072,0.59539 -3.01622,1.73188 -3.35069,1.26505 -0.12315,-0.15703 -0.23943,-1.84105 -0.22944,-3.68763 0.0823,-10.97023 1.37893,-16.99657 5.02242,-22.73919 1.27815,-2.04864 2.40732,-3.15606 8.11216,-7.72562 7.39712,-5.92853 9.24811,-8.01423 11.58226,-12.92014 1.43168,-3.02506 1.4315,-3.02541 3.19307,-3.48764 0.95715,-0.27519 3.57106,-1.02507 5.78672,-1.71669 3.53998,-1.06457 4.08216,-1.141 4.52169,-0.66146 0.28134,0.31827 1.32574,1.08387 2.31719,1.70118 2.34692,1.45632 4.58829,1.72754 8.47545,1.02475 7.08769,-1.31091 11.49251,-3.94134 22.64202,-13.57385 4.60029,-3.95684 10.26551,-9.66823 10.39368,-10.4345 0.0169,-0.14009 -0.32936,-0.21747 -0.79735,-0.16744 -3.11782,0.51151 -9.63468,1.21634 -12.50005,1.40302 -5.51204,0.32871 -17.34227,2.94976 -23.77373,5.29942 -3.34257,1.19503 -6.55274,4.82221 -7.78351,8.83098 -0.39335,1.19617 -0.78197,2.35765 -0.83817,2.52853 -0.15162,0.37255 -9.05358,3.16961 -9.23406,2.89905 -0.0266,-0.0743 0.23798,-1.67712 0.64594,-3.58221 1.29271,-5.99122 1.48861,-13.78506 0.5395,-21.21989 -0.88103,-6.82252 -2.87105,-14.16984 -8.27081,-30.35112 l -1.43972,-4.26021 1.67383,-2.67632 c 0.92177,-1.45211 2.42894,-4.21916 3.33569,-6.13503 l 1.66606,-3.49436 2.1172,-0.17053 c 2.90883,-0.25249 4.21915,-0.80493 6.66573,-2.81895 2.48162,-2.00979 5.16118,-5.94968 6.72102,-9.74101 1.00104,-2.40195 1.21909,-3.61919 2.13889,-10.93473 1.64906,-13.05506 1.85777,-19.78151 0.89401,-26.50743 l -0.19897,-1.5875 -1.99418,2.38849 c -1.08415,1.32587 -3.55667,4.43811 -5.4937,6.94014 -1.93703,2.50203 -4.44482,5.61024 -5.56401,6.93188 -3.92406,4.53606 -9.00797,13.37374 -11.18898,19.36419 -1.10801,2.99312 -1.12466,3.13317 -0.83408,5.72678 0.35874,3.20594 1.51843,6.54449 2.71921,8.07548 l 0.93638,1.07229 -2.27065,4.38061 c -1.25039,2.40735 -2.34922,4.44202 -2.42775,4.5036 -0.4753,0.4045 -2.42725,-10.49163 -2.78021,-15.50913 -0.41493,-6.2687 -0.0894,-10.13792 1.38804,-15.8936 1.5802,-6.31182 3.55442,-12.64731 6.50399,-21.17443 l 2.21897,-6.30555 4.25352,-3.14606 4.21834,-3.1502 1.81384,0.57464 c 2.01979,0.63502 4.54914,0.58534 6.37533,-0.11782 2.04477,-0.74781 8.46025,-5.906721 10.81638,-8.642371 2.60438,-3.02545 4.72168,-6.429586 6.55207,-10.401426 0.72009,-1.54755 1.97429,-3.9896 2.85253,-5.3759 1.42554,-2.38618 2.9095,-5.54736 3.0365,-6.59804 0.0296,-0.24517 -0.90961,0.17447 -2.10115,0.9188 -1.15651,0.74858 -3.27004,1.7723 -4.68136,2.27687 -4.2339,1.5137 -10.94401,5.28654 -18.44541,10.3141 -3.13739,2.14372 -3.58207,2.58757 -5.54334,5.584146 -1.83501,2.83417 -2.16874,3.53984 -2.3931,5.39605 -0.14394,1.19078 -0.18172,2.678861 -0.0786,3.295411 0.18398,1.12381 0.10093,1.22015 -2.29908,2.84892 -1.35703,0.93754 -2.46599,1.58537 -2.44483,1.41025 0.0169,-0.14009 1.46636,-4.19357 3.2148,-8.957071 3.22859,-8.777666 6.1487,-17.059366 8.06877,-22.654946 0.59693,-1.70458 1.45429,-4.97652 1.91308,-7.301882 1.01173,-5.136816 2.00021,-17.134983 1.71771,-20.971328 -0.27288,-3.621973 0.42224,-5.847589 2.31923,-7.430556 3.04387,-2.545909 6.41657,-6.014353 5.92314,-12.221478 -0.0704,-0.713635 -0.57013,-1.500029 -1.10275,-2.196247 4.93434,-6.486342 9.90494,-14.21008 7.89047,-21.149096 -6.43434,-22.027396 -46.05729,7.262471 -46.49071,-3.5568892 -0.14125,-3.534996 -4.04844,-24.0149218 -2.52286,-25.4651108 1.0026,-0.944852 2.13015,-3.545956 2.79055,-5.775875 0.30211,-1.029519 0.15896,-3.961028 -0.32713,-7.288961 l -0.26508,-1.63091 -1.15651,2.80965 c -1.88006,4.676525 -2.50988,5.258294 -0.44701,-3.358967 2.24176,-11.490968 4.78871,-17.863496 9.90586,-24.920442 1.23578,-1.698424 26.4365,-12.425275 28.79979,-16.76694 7.91588,-9.632485 9.03944,-10.988813 8.79429,-11.018447 z"
       id="path1168"
       inkscape:connector-curvature="0" />
    <path
       style="fill:#000000;stroke:none;stroke-width:0.03527778"
       d="m -163.18613,25.265345 c -3.66109,4.679435 -6.86103,8.535529 -6.54226,10.660846 0.56272,3.870212 0.61563,4.018481 0.96894,3.741374 0.11776,-0.09237 -3.5e-4,-1.172629 -0.28113,-2.379182 -0.82363,-3.475338 1.14057,-0.842021 4.17597,-6.551536 0.90946,-1.698688 1.4085,-3.718782 1.67848,-5.471502 z"
       id="path1166"
       inkscape:connector-curvature="0" />
    <path
       style="fill:#000000;stroke:none;stroke-width:0.03527778"
       d="m -162.8947,21.473329 c -0.0101,-0.393523 -0.0414,-0.495445 -0.0584,-0.150378 -0.001,0.03559 0.0234,0.08906 0.0584,0.150378 z"
       id="path1164"
       inkscape:connector-curvature="0" />
    <path
       style="fill:#000000;stroke:none;stroke-width:0.03527778"
       d="m -172.71889,66.018413 c 0.06,-0.0157 0.0586,0.0773 -0.006,0.28267 -0.12932,0.48186 -0.53929,1.81853 -0.8976,3.01894 -0.35828,1.2004 -0.83439,2.49312 -1.02528,2.89646 -0.32562,0.6358 -0.4178,0.51774 -0.5679,-0.88625 -0.19707,-2.19143 -0.20292,-2.44062 0.24701,-2.63498 0.22705,-0.11469 0.85016,-0.85658 1.45055,-1.70791 0.42958,-0.61435 0.69946,-0.94284 0.79943,-0.96893 z"
       id="path1162"
       inkscape:connector-curvature="0" />
    <g
       id="g1377">
      <g
         style="fill:#000000;stroke:none"
         transform="matrix(0.03527778,0,0,-0.03527778,-590.52133,194.61284)"
         id="g819">
        <path
           sodipodi:nodetypes="cssc"
           inkscape:connector-curvature="0"
           id="path850"
           d="M 5420.0391,16850.705 C 4398.7853,13389.404 7097.9419,13578.895 6412.2147,11521.714 5465.6533,8682.029 -309.96811,7843.9227 -1089.3846,4726.2579 -2143.946,508.01131 6187.5674,573.17311 5959.9844,-5685.3505"
           style="fill:none;stroke:#000000;stroke-width:163.41731262;stroke-linecap:butt;stroke-linejoin:miter;stroke-miterlimit:4;stroke-dasharray:none;stroke-opacity:1" />
        <path
           inkscape:connector-curvature="0"
           id="path852"
           d="m 5406.9855,16699.398 c 146.9703,137.71 151.4303,404.704 189.915,685.595"
           style="fill:none;stroke:#000000;stroke-width:7.5px;stroke-linecap:butt;stroke-linejoin:miter;stroke-opacity:1" />
        <path
           inkscape:connector-curvature="0"
           id="path854"
           d="m 5392.413,16622.423 c -172.2817,195.058 102.6997,576.65 159.4875,702.57"
           style="fill:none;stroke:#000000;stroke-width:7.49999952px;stroke-linecap:butt;stroke-linejoin:miter;stroke-opacity:1" />
        <path
           inkscape:connector-curvature="0"
           id="path856"
           d="m 5551.9002,17324.993 c 21.624,19.929 28.5795,38.106 45,60"
           style="fill:none;stroke:#000000;stroke-width:7.49999952px;stroke-linecap:butt;stroke-linejoin:miter;stroke-opacity:1" />
        <path
           inkscape:connector-curvature="0"
           id="path864"
           d="m 5478.4723,16814.65 c 55.5029,134.645 51.5369,290.105 61.6072,428.571 -129.0574,-127.259 -124.0866,-287.808 -120.0404,-392.516"
           style="fill:none;stroke:#000000;stroke-width:7.49999952px;stroke-linecap:butt;stroke-linejoin:miter;stroke-opacity:1" />
        <path
           inkscape:connector-curvature="0"
           id="path866"
           d="m 5420.039,16850.705 c 29.9745,133.497 57.8595,270.642 120.0405,392.516"
           style="fill:none;stroke:#000000;stroke-width:7.49999952px;stroke-linecap:butt;stroke-linejoin:miter;stroke-opacity:1" />
        <path
           inkscape:connector-curvature="0"
           id="path868"
           d="m 5524.0085,17154.828 c -10.6665,-98.752 -77.4135,-237.73 -103.9695,-304.123"
           style="fill:none;stroke:#000000;stroke-width:7.49999952px;stroke-linecap:butt;stroke-linejoin:miter;stroke-opacity:1" />
        <path
           inkscape:connector-curvature="0"
           id="path884"
           d="m 5458.3085,17077.872 c -16.0995,-107.961 -41.6692,-107.961 -41.6692,-107.961 l 47.3512,151.524 z"
           style="fill:none;stroke:#000000;stroke-width:7.49999952px;stroke-linecap:butt;stroke-linejoin:miter;stroke-opacity:1" />
        <path
           inkscape:connector-curvature="0"
           id="path888"
           d="m 5551.9002,17324.993 48.4605,99.487 -3.4605,-39.487"
           style="fill:none;stroke:#000000;stroke-width:7.49999952px;stroke-linecap:butt;stroke-linejoin:miter;stroke-opacity:1" />
        <path
           inkscape:connector-curvature="0"
           id="path890"
           d="m 5596.9002,17384.993 c -6.0412,31.045 -10.5135,-9.275 -16.4265,-14.492"
           style="fill:none;stroke:#000000;stroke-width:7.49999952px;stroke-linecap:butt;stroke-linejoin:miter;stroke-opacity:1" />
        <path
           inkscape:connector-curvature="0"
           id="path892"
           d="m 5596.9002,17384.993 c -6.5715,-6.589 -8.6947,-7.67 -16.4265,-14.492"
           style="fill:none;stroke:#000000;stroke-width:7.49999952px;stroke-linecap:butt;stroke-linejoin:miter;stroke-opacity:1" />
        <path
           inkscape:connector-curvature="0"
           id="path894"
           d="m 5596.9002,17384.993 c -5.5597,23.465 -11.9497,5.078 0,0"
           style="fill:none;stroke:#000000;stroke-width:7.49999952px;stroke-linecap:butt;stroke-linejoin:miter;stroke-opacity:1" />
        <path
           inkscape:connector-curvature="0"
           id="path896"
           d="m 5596.9002,17384.993 c -8.4645,16.152 2.1968,25.073 3.4605,39.487"
           style="fill:none;stroke:#000000;stroke-width:7.49999952px;stroke-linecap:butt;stroke-linejoin:miter;stroke-opacity:1" />
        <path
           inkscape:connector-curvature="0"
           id="path898"
           d="m 5580.4737,17370.501 c -5.0587,-4.824 -5.2027,-14.308 -7.5765,-20.835"
           style="fill:none;stroke:#000000;stroke-width:7.49999952px;stroke-linecap:butt;stroke-linejoin:miter;stroke-opacity:1" />
        <path
           inkscape:connector-curvature="0"
           id="path902"
           d="m 5572.8972,17349.666 c 16.0838,-44.592 4.9568,-108.611 -14.205,-160.046"
           style="fill:none;stroke:#000000;stroke-width:7.49999952px;stroke-linecap:butt;stroke-linejoin:miter;stroke-opacity:1" />
        <path
           inkscape:connector-curvature="0"
           id="path904"
           d="m 5580.4737,17370.501 c 11.253,-12.235 0.645,-30.966 0.9465,-45.458"
           style="fill:none;stroke:#000000;stroke-width:7.49999952px;stroke-linecap:butt;stroke-linejoin:miter;stroke-opacity:1" />
        <path
           inkscape:connector-curvature="0"
           id="path906"
           d="m 5596.9002,17384.993 c -2.8807,-36.38 -15.5655,-13.733 -16.4265,-14.492"
           style="fill:none;stroke:#000000;stroke-width:7.49999952px;stroke-linecap:butt;stroke-linejoin:miter;stroke-opacity:1" />
        <path
           inkscape:connector-curvature="0"
           id="path908"
           d="m 5572.8972,17349.666 c 10.8465,3.205 10.866,-4.347 0,0"
           style="fill:none;stroke:#000000;stroke-width:7.49999952px;stroke-linecap:butt;stroke-linejoin:miter;stroke-opacity:1" />
        <path
           inkscape:connector-curvature="0"
           id="path910"
           d="m 5581.4202,17325.043 c 3.7725,-35.17 6.1995,4.133 0,0"
           style="fill:none;stroke:#000000;stroke-width:7.49999952px;stroke-linecap:butt;stroke-linejoin:miter;stroke-opacity:1" />
        <path
           inkscape:connector-curvature="0"
           id="path912"
           d="m 5580.4737,17370.501 c -7.2337,-22.752 -14.9062,-46.347 -21.7815,-68.186"
           style="fill:none;stroke:#000000;stroke-width:7.49999952px;stroke-linecap:butt;stroke-linejoin:miter;stroke-opacity:1" />
        <path
           inkscape:connector-curvature="0"
           id="path914"
           d="m 5572.8972,17349.666 c 12.2235,-20.856 0.12,-47.44 -5.682,-71.026"
           style="fill:none;stroke:#000000;stroke-width:7.49999952px;stroke-linecap:butt;stroke-linejoin:miter;stroke-opacity:1" />
        <path
           inkscape:connector-curvature="0"
           id="path916"
           d="m 5572.8972,17349.666 c -3.1612,-23.54 -3.357,-47.389 -5.682,-71.026"
           style="fill:none;stroke:#000000;stroke-width:7.49999952px;stroke-linecap:butt;stroke-linejoin:miter;stroke-opacity:1" />
        <path
           inkscape:connector-curvature="0"
           id="path918"
           d="m 5551.9002,17324.993 c 9.3563,-2.232 -8.4877,-65.928 -11.8207,-81.772"
           style="fill:none;stroke:#000000;stroke-width:7.49999952px;stroke-linecap:butt;stroke-linejoin:miter;stroke-opacity:1" />
        <path
           inkscape:connector-curvature="0"
           id="path920"
           d="m 5551.9002,17324.993 c 19.599,12.349 7.4108,-52.06 5.8448,-74.764"
           style="fill:none;stroke:#000000;stroke-width:7.49999952px;stroke-linecap:butt;stroke-linejoin:miter;stroke-opacity:1" />
        <path
           inkscape:connector-curvature="0"
           id="path922"
           d="m 5572.8972,17349.666 c 8.856,-21.987 -17.9332,-21.072 -20.997,-24.673"
           style="fill:none;stroke:#000000;stroke-width:7.49999952px;stroke-linecap:butt;stroke-linejoin:miter;stroke-opacity:1" />
        <path
           inkscape:connector-curvature="0"
           id="path924"
           d="m 5581.4202,17325.043 c 5.5485,3.173 3.3848,10.315 4.9718,15.153"
           style="fill:none;stroke:#000000;stroke-width:7.49999952px;stroke-linecap:butt;stroke-linejoin:miter;stroke-opacity:1" />
        <path
           inkscape:connector-curvature="0"
           id="path926"
           d="m 5580.2367,17352.27 c -0.36,1.926 1.4115,3.882 1.8938,5.209"
           style="fill:none;stroke:#000000;stroke-width:7.49999952px;stroke-linecap:butt;stroke-linejoin:miter;stroke-opacity:1" />
        <path
           inkscape:connector-curvature="0"
           id="path928"
           d="m 5588.9967,17352.507 c 0.9248,3.492 0.465,6.853 0.7125,10.417"
           style="fill:none;stroke:#000000;stroke-width:7.49999952px;stroke-linecap:butt;stroke-linejoin:miter;stroke-opacity:1" />
        <path
           inkscape:connector-curvature="0"
           id="path930"
           d="m 5580.2367,17352.27 c -0.075,-4.444 -1.1047,-8.679 -1.6575,-13.021"
           style="fill:none;stroke:#000000;stroke-width:7.49999952px;stroke-linecap:butt;stroke-linejoin:miter;stroke-opacity:1" />
        <path
           inkscape:connector-curvature="0"
           id="path932"
           d="m 5571.2397,17356.059 c -2.0542,-3.324 -3.4695,-7.436 -4.9717,-10.655"
           style="fill:none;stroke:#000000;stroke-width:7.49999952px;stroke-linecap:butt;stroke-linejoin:miter;stroke-opacity:1" />
        <path
           inkscape:connector-curvature="0"
           id="path934"
           d="m 5574.5547,17321.729 c -3.1432,-3.056 -5.466,-7.074 -8.0497,-10.418"
           style="fill:none;stroke:#000000;stroke-width:7.49999952px;stroke-linecap:butt;stroke-linejoin:miter;stroke-opacity:1" />
        <path
           inkscape:connector-curvature="0"
           id="path936"
           d="m 5573.3705,17328.831 c 1.0267,-2.263 0.795,-4.767 1.1842,-7.102"
           style="fill:none;stroke:#000000;stroke-width:7.49999952px;stroke-linecap:butt;stroke-linejoin:miter;stroke-opacity:1" />
        <path
           inkscape:connector-curvature="0"
           id="path938"
           d="m 5557.2717,17321.256 c 0,-3.394 0,-6.788 0,-10.181"
           style="fill:none;stroke:#000000;stroke-width:7.49999952px;stroke-linecap:butt;stroke-linejoin:miter;stroke-opacity:1" />
        <path
           inkscape:connector-curvature="0"
           id="path940"
           d="m 5557.2717,17311.075 c 0.87,-11.329 -1.2322,-23.741 -2.6047,-34.33"
           style="fill:none;stroke:#000000;stroke-width:7.49999952px;stroke-linecap:butt;stroke-linejoin:miter;stroke-opacity:1" />
        <path
           inkscape:connector-curvature="0"
           id="path942"
           d="m 5575.265,17299.474 c -0.9915,-17.317 -3.4275,-34.294 -4.0253,-51.613"
           style="fill:none;stroke:#000000;stroke-width:7.49999952px;stroke-linecap:butt;stroke-linejoin:miter;stroke-opacity:1" />
        <path
           inkscape:connector-curvature="0"
           id="path944"
           d="m 5567.6885,17283.612 c 0.165,-11.616 -2.0753,-24.184 -3.7875,-34.803"
           style="fill:none;stroke:#000000;stroke-width:7.49999952px;stroke-linecap:butt;stroke-linejoin:miter;stroke-opacity:1" />
        <path
           inkscape:connector-curvature="0"
           id="path946"
           d="m 5556.3245,17283.138 c -1.6943,-8.452 -4.0538,-24.222 -4.9718,-29.831"
           style="fill:none;stroke:#000000;stroke-width:7.49999952px;stroke-linecap:butt;stroke-linejoin:miter;stroke-opacity:1" />
        <path
           inkscape:connector-curvature="0"
           id="path948"
           d="m 5549.6952,17272.958 c -2.2905,-11.477 -3.459,-23.56 -4.7347,-35.04"
           style="fill:none;stroke:#000000;stroke-width:7.49999952px;stroke-linecap:butt;stroke-linejoin:miter;stroke-opacity:1" />
        <path
           inkscape:connector-curvature="0"
           id="path950"
           d="m 5552.5362,17315.81 c -6.3442,-29.136 -16.8675,-66.409 -33.8557,-82.154"
           style="fill:none;stroke:#000000;stroke-width:7.49999952px;stroke-linecap:butt;stroke-linejoin:miter;stroke-opacity:1" />
        <path
           inkscape:connector-curvature="0"
           id="path952"
           d="m 5546.8542,17304.683 c -4.9552,-21.612 -14.8567,-41.938 -27.4635,-59.189"
           style="fill:none;stroke:#000000;stroke-width:7.49999952px;stroke-linecap:butt;stroke-linejoin:miter;stroke-opacity:1" />
        <path
           inkscape:connector-curvature="0"
           id="path954"
           d="m 5538.3312,17294.739 c -3.1432,-14.193 -9.9855,-27.291 -16.5727,-40.011"
           style="fill:none;stroke:#000000;stroke-width:7.49999952px;stroke-linecap:butt;stroke-linejoin:miter;stroke-opacity:1" />
        <path
           inkscape:connector-curvature="0"
           id="path956"
           d="m 5538.071,17260.632 c -2.3663,-9.006 -7.4378,-17.054 -11.3843,-25.111"
           style="fill:none;stroke:#000000;stroke-width:7.49999952px;stroke-linecap:butt;stroke-linejoin:miter;stroke-opacity:1" />
        <path
           inkscape:connector-curvature="0"
           id="path958"
           d="m 5539.745,17251.592 c -1.5788,-2.303 0.225,-5.581 0.3375,-8.371"
           style="fill:none;stroke:#000000;stroke-width:7.49999952px;stroke-linecap:butt;stroke-linejoin:miter;stroke-opacity:1" />
        <path
           inkscape:connector-curvature="0"
           id="path960"
           d="m 5553.8075,17259.628 c -4.956,-26.337 -9.0428,-52.61 -10.38,-79.353"
           style="fill:none;stroke:#000000;stroke-width:7.49999952px;stroke-linecap:butt;stroke-linejoin:miter;stroke-opacity:1" />
        <path
           inkscape:connector-curvature="0"
           id="path962"
           d="m 5544.9605,17237.918 c -0.225,-12.624 -1.0778,-25.252 -1.8675,-37.889"
           style="fill:none;stroke:#000000;stroke-width:7.49999952px;stroke-linecap:butt;stroke-linejoin:miter;stroke-opacity:1" />
        <path
           inkscape:connector-curvature="0"
           id="path964"
           d="m 5553.8075,17259.628 c 7.539,-20.227 0.5475,-50.298 -3.3488,-73.661"
           style="fill:none;stroke:#000000;stroke-width:7.49999952px;stroke-linecap:butt;stroke-linejoin:miter;stroke-opacity:1" />
        <path
           inkscape:connector-curvature="0"
           id="path966"
           d="m 5554.4772,17240.208 c 3.0083,-16.473 -7.9312,-31.977 -11.3842,-40.179"
           style="fill:none;stroke:#000000;stroke-width:7.49999952px;stroke-linecap:butt;stroke-linejoin:miter;stroke-opacity:1" />
        <path
           inkscape:connector-curvature="0"
           id="path968"
           d="m 5557.745,17250.229 c 6.678,-14.876 2.8065,-41.676 0.9472,-60.609"
           style="fill:none;stroke:#000000;stroke-width:7.49999952px;stroke-linecap:butt;stroke-linejoin:miter;stroke-opacity:1" />
        <path
           inkscape:connector-curvature="0"
           id="path970"
           d="m 5563.901,17248.809 c 0.9142,-3.735 2.5177,-14.85 3.6337,-21.324"
           style="fill:none;stroke:#000000;stroke-width:7.49999952px;stroke-linecap:butt;stroke-linejoin:miter;stroke-opacity:1" />
        <path
           inkscape:connector-curvature="0"
           id="path972"
           d="m 5571.2397,17247.861 c -4.9185,7.396 -0.51,-8.557 -0.69,-11.67"
           style="fill:none;stroke:#000000;stroke-width:7.49999952px;stroke-linecap:butt;stroke-linejoin:miter;stroke-opacity:1" />
        <path
           inkscape:connector-curvature="0"
           id="path974"
           d="m 5563.901,17248.809 c -1.3718,-7.069 3.6315,-21.314 3.6337,-21.324"
           style="fill:none;stroke:#000000;stroke-width:7.49999952px;stroke-linecap:butt;stroke-linejoin:miter;stroke-opacity:1" />
        <path
           inkscape:connector-curvature="0"
           id="path976"
           d="m 5573.5617,17258.623 c -4.182,-9.994 -4.5982,-20.603 -6.027,-31.138"
           style="fill:none;stroke:#000000;stroke-width:7.49999952px;stroke-linecap:butt;stroke-linejoin:miter;stroke-opacity:1" />
        <path
           inkscape:connector-curvature="0"
           id="path978"
           d="m 5567.5347,17227.485 c -3.0855,2.209 -1.8292,-7.317 -2.6782,-10.714"
           style="fill:none;stroke:#000000;stroke-width:7.49999952px;stroke-linecap:butt;stroke-linejoin:miter;stroke-opacity:1" />
        <path
           inkscape:connector-curvature="0"
           id="path980"
           d="m 5553.1377,17208.735 c -1.0065,-4.83 -3.3165,-10.186 -4.6875,-14.397"
           style="fill:none;stroke:#000000;stroke-width:7.49999952px;stroke-linecap:butt;stroke-linejoin:miter;stroke-opacity:1" />
        <path
           inkscape:connector-curvature="0"
           id="path982"
           d="m 5567.5347,17227.485 c -0.5025,-4.361 -3.3322,-0.952 0,0"
           style="fill:none;stroke:#000000;stroke-width:7.49999952px;stroke-linecap:butt;stroke-linejoin:miter;stroke-opacity:1" />
        <path
           inkscape:connector-curvature="0"
           id="path984"
           d="m 5538.071,17260.632 c 7.5735,4.417 -3.027,-9.777 -4.353,-14.062 2.3457,-12.372 -6.599,-10.37 -7.0313,-11.049"
           style="fill:none;stroke:#000000;stroke-width:7.49999952px;stroke-linecap:butt;stroke-linejoin:miter;stroke-opacity:1" />
        <path
           inkscape:connector-curvature="0"
           id="path986"
           d="m 5526.6867,17235.521 c -1.266,0.397 -23.2035,-22.975 -32.8125,-32.813"
           style="fill:none;stroke:#000000;stroke-width:7.49999952px;stroke-linecap:butt;stroke-linejoin:miter;stroke-opacity:1" />
        <path
           inkscape:connector-curvature="0"
           id="path988"
           d="m 5521.7585,17254.728 c -3.0585,0.345 -15.9555,-32.562 -22.8623,-46.662"
           style="fill:none;stroke:#000000;stroke-width:7.49999952px;stroke-linecap:butt;stroke-linejoin:miter;stroke-opacity:1" />
        <path
           inkscape:connector-curvature="0"
           id="path990"
           d="m 5519.3907,17245.494 c 1.3755,-1.941 -4.1865,-15.062 -6.0967,-20.688"
           style="fill:none;stroke:#000000;stroke-width:7.49999952px;stroke-linecap:butt;stroke-linejoin:miter;stroke-opacity:1" />
        <path
           inkscape:connector-curvature="0"
           id="path992"
           d="m 5503.5837,17227.485 c -9.1867,-17.38 -17.1209,-34.029 -23.7719,-52.232"
           style="fill:none;stroke:#000000;stroke-width:7.49999952px;stroke-linecap:butt;stroke-linejoin:miter;stroke-opacity:1" />
        <path
           inkscape:connector-curvature="0"
           id="path994"
           d="m 5498.8962,17208.066 c -0.5325,-7.461 -5.5147,-16.254 -9.0397,-23.773"
           style="fill:none;stroke:#000000;stroke-width:7.49999952px;stroke-linecap:butt;stroke-linejoin:miter;stroke-opacity:1" />
        <path
           inkscape:connector-curvature="0"
           id="path996"
           d="m 5526.6867,17228.154 c -26.2275,-37.81 -51.9989,-76.567 -70.6469,-118.526"
           style="fill:none;stroke:#000000;stroke-width:7.49999952px;stroke-linecap:butt;stroke-linejoin:miter;stroke-opacity:1" />
        <path
           inkscape:connector-curvature="0"
           id="path998"
           d="m 5520.995,17211.748 c -15.8355,-27.824 -33.4755,-56.743 -48.549,-84.04"
           style="fill:none;stroke:#000000;stroke-width:7.49999952px;stroke-linecap:butt;stroke-linejoin:miter;stroke-opacity:1" />
        <path
           inkscape:connector-curvature="0"
           id="path1000"
           d="m 5533.3835,17228.154 c -3.4223,-26.621 -6.4313,-54.87 -9.7103,-80.691"
           style="fill:none;stroke:#000000;stroke-width:7.49999952px;stroke-linecap:butt;stroke-linejoin:miter;stroke-opacity:1" />
        <path
           inkscape:connector-curvature="0"
           id="path1002"
           d="m 5520.995,17211.748 c 7.3717,-15.702 -4.5953,-43.735 -8.7053,-64.285"
           style="fill:none;stroke:#000000;stroke-width:7.49999952px;stroke-linecap:butt;stroke-linejoin:miter;stroke-opacity:1" />
        <path
           inkscape:connector-curvature="0"
           id="path1004"
           d="m 5518.9857,17189.985 c -6.0877,-23.83 -10.9155,-49.326 -15.0667,-72.991"
           style="fill:none;stroke:#000000;stroke-width:7.49999952px;stroke-linecap:butt;stroke-linejoin:miter;stroke-opacity:1" />
        <path
           inkscape:connector-curvature="0"
           id="path1006"
           d="m 5510.615,17170.566 c -7.5083,-26.131 -14.6873,-52.418 -19.7543,-79.019"
           style="fill:none;stroke:#000000;stroke-width:7.49999952px;stroke-linecap:butt;stroke-linejoin:miter;stroke-opacity:1" />
        <path
           inkscape:connector-curvature="0"
           id="path1008"
           d="m 5514.968,17155.498 c 0,-13.303 -0.9923,-27.784 -1.674,-40.513"
           style="fill:none;stroke:#000000;stroke-width:7.49999952px;stroke-linecap:butt;stroke-linejoin:miter;stroke-opacity:1" />
        <path
           inkscape:connector-curvature="0"
           id="path1010"
           d="m 5518.9857,17189.985 c 7.3635,-9.675 3.954,-33.216 3.6833,-49.219"
           style="fill:none;stroke:#000000;stroke-width:7.49999952px;stroke-linecap:butt;stroke-linejoin:miter;stroke-opacity:1" />
        <path
           inkscape:connector-curvature="0"
           id="path1012"
           d="m 5517.6462,17164.873 c -3.5002,-8.257 3.9885,-19.625 5.0228,-24.107"
           style="fill:none;stroke:#000000;stroke-width:7.49999952px;stroke-linecap:butt;stroke-linejoin:miter;stroke-opacity:1" />
        <path
           inkscape:connector-curvature="0"
           id="path1014"
           d="m 5534.7222,17195.677 c -3.2392,-31.005 -4.53,-63.226 -5.022,-93.75"
           style="fill:none;stroke:#000000;stroke-width:7.49999952px;stroke-linecap:butt;stroke-linejoin:miter;stroke-opacity:1" />
        <path
           inkscape:connector-curvature="0"
           id="path1016"
           d="m 5543.4275,17180.275 c -5.079,-21.789 -4.8848,-45.7 -5.6918,-68.303"
           style="fill:none;stroke:#000000;stroke-width:7.49999952px;stroke-linecap:butt;stroke-linejoin:miter;stroke-opacity:1" />
        <path
           inkscape:connector-curvature="0"
           id="path1018"
           d="m 5548.4502,17194.338 c -3.294,-24.571 -4.9357,-50.392 -1.3395,-74.666"
           style="fill:none;stroke:#000000;stroke-width:7.49999952px;stroke-linecap:butt;stroke-linejoin:miter;stroke-opacity:1" />
        <path
           inkscape:connector-curvature="0"
           id="path1020"
           d="m 5555.4815,17202.373 c -0.9158,-30.408 -1.053,-62.275 -2.679,-92.076"
           style="fill:none;stroke:#000000;stroke-width:7.49999952px;stroke-linecap:butt;stroke-linejoin:miter;stroke-opacity:1" />
        <path
           inkscape:connector-curvature="0"
           id="path1022"
           d="m 5513.294,17224.806 c 11.6212,-5.943 15.465,-18.642 21.4282,-29.129"
           style="fill:none;stroke:#000000;stroke-width:7.49999952px;stroke-linecap:butt;stroke-linejoin:miter;stroke-opacity:1" />
        <path
           inkscape:connector-curvature="0"
           id="path1024"
           d="m 5513.294,17224.806 c 6.0135,-1.029 5.0535,-8.569 7.701,-13.058"
           style="fill:none;stroke:#000000;stroke-width:7.49999952px;stroke-linecap:butt;stroke-linejoin:miter;stroke-opacity:1" />
        <path
           inkscape:connector-curvature="0"
           id="path1026"
           d="m 5521.9992,17198.355 c 3.2955,12.01 -7.4932,23.334 -8.7052,26.451"
           style="fill:none;stroke:#000000;stroke-width:7.49999952px;stroke-linecap:butt;stroke-linejoin:miter;stroke-opacity:1" />
        <path
           inkscape:connector-curvature="0"
           id="path1028"
           d="m 5555.4815,17202.373 c -4.4768,-26.224 -6.8333,-56.179 -8.3708,-82.701"
           style="fill:none;stroke:#000000;stroke-width:7.49999952px;stroke-linecap:butt;stroke-linejoin:miter;stroke-opacity:1" />
        <path
           inkscape:connector-curvature="0"
           id="path1030"
           d="m 5564.8565,17216.771 c 0.5175,-32.403 -4.0013,-73.028 -12.054,-106.474"
           style="fill:none;stroke:#000000;stroke-width:7.49999952px;stroke-linecap:butt;stroke-linejoin:miter;stroke-opacity:1" />
        <path
           inkscape:connector-curvature="0"
           id="path1032"
           d="m 5567.5347,17227.485 c 3.5648,-35.311 -6.261,-75.564 -8.7052,-112.835"
           style="fill:none;stroke:#000000;stroke-width:7.49999952px;stroke-linecap:butt;stroke-linejoin:miter;stroke-opacity:1" />
        <path
           inkscape:connector-curvature="0"
           id="path1034"
           d="m 5558.6922,17189.62 c -1.2262,-10.816 0.3075,-22.751 0.807,-33.787"
           style="fill:none;stroke:#000000;stroke-width:7.49999952px;stroke-linecap:butt;stroke-linejoin:miter;stroke-opacity:1" />
        <path
           inkscape:connector-curvature="0"
           id="path1036"
           d="m 5567.5347,17227.485 c 5.6535,-8.363 3.3315,-17.742 3.0135,-27.12"
           style="fill:none;stroke:#000000;stroke-width:7.49999952px;stroke-linecap:butt;stroke-linejoin:miter;stroke-opacity:1" />
        <path
           inkscape:connector-curvature="0"
           id="path1038"
           d="m 5504.2535,17178.601 c -20.865,-50.896 -50.547,-100.412 -60.2677,-154.687"
           style="fill:none;stroke:#000000;stroke-width:7.49999952px;stroke-linecap:butt;stroke-linejoin:miter;stroke-opacity:1" />
        <path
           inkscape:connector-curvature="0"
           id="path1040"
           d="m 5488.517,17137.753 c -12.5917,-35.656 -25.359,-71.626 -35.4907,-107.812"
           style="fill:none;stroke:#000000;stroke-width:7.49999952px;stroke-linecap:butt;stroke-linejoin:miter;stroke-opacity:1" />
        <path
           inkscape:connector-curvature="0"
           id="path1042"
           d="m 5497.5575,17119.338 c -8.3505,-19.999 -16.2675,-40.438 -23.103,-60.603"
           style="fill:none;stroke:#000000;stroke-width:7.49999952px;stroke-linecap:butt;stroke-linejoin:miter;stroke-opacity:1" />
        <path
           inkscape:connector-curvature="0"
           id="path1044"
           d="m 5508.941,17194.338 c -11.5628,-25.662 -20.6227,-50.47 -23.4375,-77.679"
           style="fill:none;stroke:#000000;stroke-width:7.49999952px;stroke-linecap:butt;stroke-linejoin:miter;stroke-opacity:1" />
        <path
           inkscape:connector-curvature="0"
           id="path1046"
           d="m 5507.6022,17187.306 c 0.12,-28.939 -0.6675,-57.783 -0.6675,-86.718"
           style="fill:none;stroke:#000000;stroke-width:7.49999952px;stroke-linecap:butt;stroke-linejoin:miter;stroke-opacity:1" />
        <path
           inkscape:connector-curvature="0"
           id="path1048"
           d="m 5524.0085,17154.828 c -6.1043,-42.77 -30.807,-81.705 -44.5312,-122.879"
           style="fill:none;stroke:#000000;stroke-width:7.49999952px;stroke-linecap:butt;stroke-linejoin:miter;stroke-opacity:1" />
        <path
           inkscape:connector-curvature="0"
           id="path1050"
           d="m 5504.9232,17133.4 c -15.1267,-47.17 -36.0209,-92.737 -54.5759,-138.281"
           style="fill:none;stroke:#000000;stroke-width:7.49999952px;stroke-linecap:butt;stroke-linejoin:miter;stroke-opacity:1" />
        <path
           inkscape:connector-curvature="0"
           id="path1052"
           d="m 5493.5397,17125.365 c -1.3627,-6.448 -1.7925,-12.996 -2.679,-19.42"
           style="fill:none;stroke:#000000;stroke-width:7.49999952px;stroke-linecap:butt;stroke-linejoin:miter;stroke-opacity:1" />
        <path
           inkscape:connector-curvature="0"
           id="path1054"
           d="m 5524.0085,17154.828 c 3.609,-44.568 -19.2015,-97.021 -25.4468,-144.642"
           style="fill:none;stroke:#000000;stroke-width:7.49999952px;stroke-linecap:butt;stroke-linejoin:miter;stroke-opacity:1" />
        <path
           inkscape:connector-curvature="0"
           id="path1056"
           d="m 5532.3785,17120.677 c -7.26,-29.245 -11.556,-62.071 -16.7408,-90.067"
           style="fill:none;stroke:#000000;stroke-width:7.49999952px;stroke-linecap:butt;stroke-linejoin:miter;stroke-opacity:1" />
        <path
           inkscape:connector-curvature="0"
           id="path1058"
           d="m 5544.767,17137.418 c -3.3165,-32.799 -5.9198,-65.981 -8.0355,-98.772"
           style="fill:none;stroke:#000000;stroke-width:7.49999952px;stroke-linecap:butt;stroke-linejoin:miter;stroke-opacity:1" />
        <path
           inkscape:connector-curvature="0"
           id="path1060"
           d="m 5558.8295,17114.65 c -11.0243,-18.115 -15.2085,-58.829 -19.4198,-85.714"
           style="fill:none;stroke:#000000;stroke-width:7.49999952px;stroke-linecap:butt;stroke-linejoin:miter;stroke-opacity:1" />
        <path
           inkscape:connector-curvature="0"
           id="path1062"
           d="m 5547.1107,17119.672 c -0.465,-11.734 -2.379,-31.821 -4.0177,-45.87"
           style="fill:none;stroke:#000000;stroke-width:7.49999952px;stroke-linecap:butt;stroke-linejoin:miter;stroke-opacity:1" />
        <path
           inkscape:connector-curvature="0"
           id="path1064"
           d="m 5547.1107,17119.672 c 5.4293,-3.44 2.808,-15.456 2.679,-23.102"
           style="fill:none;stroke:#000000;stroke-width:7.49999952px;stroke-linecap:butt;stroke-linejoin:miter;stroke-opacity:1" />
        <path
           inkscape:connector-curvature="0"
           id="path1066"
           d="m 5552.8025,17110.297 c 4.9942,-25.331 -2.1263,-55.951 -6.3615,-81.361"
           style="fill:none;stroke:#000000;stroke-width:7.49999952px;stroke-linecap:butt;stroke-linejoin:miter;stroke-opacity:1" />
        <path
           inkscape:connector-curvature="0"
           id="path1068"
           d="m 5532.3785,17120.677 c 5.9835,-21.645 1.3365,-47.062 -1.674,-69.643"
           style="fill:none;stroke:#000000;stroke-width:7.49999952px;stroke-linecap:butt;stroke-linejoin:miter;stroke-opacity:1" />
        <path
           inkscape:connector-curvature="0"
           id="path1070"
           d="m 5532.3785,17120.677 c -18.4193,-36.736 -25.0965,-81.32 -30.1335,-122.88"
           style="fill:none;stroke:#000000;stroke-width:7.49999952px;stroke-linecap:butt;stroke-linejoin:miter;stroke-opacity:1" />
        <path
           inkscape:connector-curvature="0"
           id="path1072"
           d="m 5503.919,17116.994 c -10.1288,-27.509 -19.4715,-57.029 -24.4417,-85.045"
           style="fill:none;stroke:#000000;stroke-width:7.49999952px;stroke-linecap:butt;stroke-linejoin:miter;stroke-opacity:1" />
        <path
           inkscape:connector-curvature="0"
           id="path1074"
           d="m 5474.7898,17158.847 c -3.4395,-21.552 -8.235,-43.013 -10.7145,-64.621"
           style="fill:none;stroke:#000000;stroke-width:7.49999952px;stroke-linecap:butt;stroke-linejoin:miter;stroke-opacity:1" />
        <path
           inkscape:connector-curvature="0"
           id="path1076"
           d="m 5477.468,17133.4 c -1.9732,-9.772 -5.763,-19.168 -8.7052,-28.459"
           style="fill:none;stroke:#000000;stroke-width:7.49999952px;stroke-linecap:butt;stroke-linejoin:miter;stroke-opacity:1" />
        <path
           inkscape:connector-curvature="0"
           id="path1078"
           d="m 5480.816,17187.976 c -15.867,-48.16 -37.8397,-94.22 -48.549,-143.304"
           style="fill:none;stroke:#000000;stroke-width:7.49999952px;stroke-linecap:butt;stroke-linejoin:miter;stroke-opacity:1" />
        <path
           inkscape:connector-curvature="0"
           id="path1080"
           d="m 5465.7493,17164.873 c -11.1308,-34.51 -28.9778,-67.188 -38.5043,-102.12"
           style="fill:none;stroke:#000000;stroke-width:7.49999952px;stroke-linecap:butt;stroke-linejoin:miter;stroke-opacity:1" />
        <path
           inkscape:connector-curvature="0"
           id="path1082"
           d="m 5438.6285,17102.597 c -10.2682,-20.242 -19.8982,-41.873 -27.4552,-62.277"
           style="fill:none;stroke:#000000;stroke-width:7.49999952px;stroke-linecap:butt;stroke-linejoin:miter;stroke-opacity:1" />
        <path
           inkscape:connector-curvature="0"
           id="path1084"
           d="m 5525.6825,17122.686 c 1.1647,-4.112 -0.6825,-8.389 -1.005,-12.389"
           style="fill:none;stroke:#000000;stroke-width:7.49999952px;stroke-linecap:butt;stroke-linejoin:miter;stroke-opacity:1" />
        <path
           inkscape:connector-curvature="0"
           id="path1086"
           d="m 5540.4147,17119.003 c -6.1597,-12.621 -9.6915,-26.395 -14.0625,-39.509"
           style="fill:none;stroke:#000000;stroke-width:7.49999952px;stroke-linecap:butt;stroke-linejoin:miter;stroke-opacity:1" />
        <path
           inkscape:connector-curvature="0"
           id="path1088"
           d="m 5558.8295,17114.65 c -0.834,-8.311 -2.4495,-16.82 -3.348,-24.777"
           style="fill:none;stroke:#000000;stroke-width:7.49999952px;stroke-linecap:butt;stroke-linejoin:miter;stroke-opacity:1" />
        <path
           inkscape:connector-curvature="0"
           id="path1090"
           d="m 5458.3835,17115.99 c -10.5345,-32.174 -19.1737,-65.415 -26.7862,-98.103"
           style="fill:none;stroke:#000000;stroke-width:7.49999952px;stroke-linecap:butt;stroke-linejoin:miter;stroke-opacity:1" />
        <path
           inkscape:connector-curvature="0"
           id="path1092"
           d="m 5438.6285,17083.512 c -9.813,-30.822 -17.6302,-62.751 -24.4417,-94.085"
           style="fill:none;stroke:#000000;stroke-width:7.49999952px;stroke-linecap:butt;stroke-linejoin:miter;stroke-opacity:1" />
        <path
           inkscape:connector-curvature="0"
           id="path1094"
           d="m 5458.3085,17077.872 c -13.1715,-32.956 -29.3887,-91.665 -38.0947,-135.99"
           style="fill:none;stroke:#000000;stroke-width:7.49999952px;stroke-linecap:butt;stroke-linejoin:miter;stroke-opacity:1" />
        <path
           inkscape:connector-curvature="0"
           id="path1096"
           d="m 5502.5795,17107.953 c -15.1065,-42.9 -24.2985,-88.173 -33.4822,-132.254"
           style="fill:none;stroke:#000000;stroke-width:7.49999952px;stroke-linecap:butt;stroke-linejoin:miter;stroke-opacity:1" />
        <path
           inkscape:connector-curvature="0"
           id="path1098"
           d="m 5505.2585,17087.529 c -7.7325,-23.148 -13.9185,-46.966 -19.0852,-70.647"
           style="fill:none;stroke:#000000;stroke-width:7.49999952px;stroke-linecap:butt;stroke-linejoin:miter;stroke-opacity:1" />
        <path
           inkscape:connector-curvature="0"
           id="path1100"
           d="m 5497.5575,17057.061 c -11.2297,-21.293 -16.0575,-45.015 -20.7592,-67.969"
           style="fill:none;stroke:#000000;stroke-width:7.49999952px;stroke-linecap:butt;stroke-linejoin:miter;stroke-opacity:1" />
        <path
           inkscape:connector-curvature="0"
           id="path1102"
           d="m 5466.7535,17084.851 c -9.0922,-24.403 -9.645,-50.347 -10.7137,-76.004"
           style="fill:none;stroke:#000000;stroke-width:7.49999952px;stroke-linecap:butt;stroke-linejoin:miter;stroke-opacity:1" />
        <path
           inkscape:connector-curvature="0"
           id="path1104"
           d="m 5480.1463,17084.851 c -16.8338,-30.715 -27.7748,-63.939 -35.1563,-97.768"
           style="fill:none;stroke:#000000;stroke-width:7.49999952px;stroke-linecap:butt;stroke-linejoin:miter;stroke-opacity:1" />
        <path
           inkscape:connector-curvature="0"
           id="path1106"
           d="m 5482.8253,17065.431 c -8.2635,-22.548 -14.2103,-46.059 -19.0853,-69.308"
           style="fill:none;stroke:#000000;stroke-width:7.49999952px;stroke-linecap:butt;stroke-linejoin:miter;stroke-opacity:1" />
        <path
           inkscape:connector-curvature="0"
           id="path1108"
           d="m 5479.4773,17031.949 c -8.2635,-14.023 -10.4438,-32.364 -13.728,-48.549"
           style="fill:none;stroke:#000000;stroke-width:7.49999952px;stroke-linecap:butt;stroke-linejoin:miter;stroke-opacity:1" />
        <path
           inkscape:connector-curvature="0"
           id="path1110"
           d="m 5516.642,17074.137 c -2.0993,-29.511 -7.1813,-58.589 -8.7053,-88.059"
           style="fill:none;stroke:#000000;stroke-width:7.49999952px;stroke-linecap:butt;stroke-linejoin:miter;stroke-opacity:1" />
        <path
           inkscape:connector-curvature="0"
           id="path1112"
           d="m 5524.343,17064.762 c 0.465,-37.84 -10.5615,-74.924 -17.7458,-111.496"
           style="fill:none;stroke:#000000;stroke-width:7.49999952px;stroke-linecap:butt;stroke-linejoin:miter;stroke-opacity:1" />
        <path
           inkscape:connector-curvature="0"
           id="path1114"
           d="m 5534.7222,17064.092 c -2.5215,-26.195 -3.1897,-54.036 -5.022,-79.688"
           style="fill:none;stroke:#000000;stroke-width:7.49999952px;stroke-linecap:butt;stroke-linejoin:miter;stroke-opacity:1" />
        <path
           inkscape:connector-curvature="0"
           id="path1116"
           d="m 5545.1022,17038.98 c -5.304,-26.679 -13.704,-54.094 -18.081,-80.357"
           style="fill:none;stroke:#000000;stroke-width:7.49999952px;stroke-linecap:butt;stroke-linejoin:miter;stroke-opacity:1" />
        <path
           inkscape:connector-curvature="0"
           id="path1118"
           d="m 5539.4097,17045.342 c -0.8677,-14.002 -3.1695,-29.516 -5.022,-42.857"
           style="fill:none;stroke:#000000;stroke-width:7.49999952px;stroke-linecap:butt;stroke-linejoin:miter;stroke-opacity:1" />
        <path
           inkscape:connector-curvature="0"
           id="path1120"
           d="m 5525.6825,17071.793 c -0.21,-8.54 -1.5705,-18.25 -2.3438,-26.116"
           style="fill:none;stroke:#000000;stroke-width:7.49999952px;stroke-linecap:butt;stroke-linejoin:miter;stroke-opacity:1" />
        <path
           inkscape:connector-curvature="0"
           id="path1122"
           d="m 5543.093,17073.802 c 5.6692,-3.386 2.5207,-23.395 2.0092,-34.822"
           style="fill:none;stroke:#000000;stroke-width:7.49999952px;stroke-linecap:butt;stroke-linejoin:miter;stroke-opacity:1" />
        <path
           inkscape:connector-curvature="0"
           id="path1124"
           d="m 5438.6285,17083.512 c -13.7955,-19.559 -18.4612,-46.148 -24.4417,-69.643"
           style="fill:none;stroke:#000000;stroke-width:7.49999952px;stroke-linecap:butt;stroke-linejoin:miter;stroke-opacity:1" />
        <path
           inkscape:connector-curvature="0"
           id="path1126"
           d="m 5503.2492,17047.686 c -25.5194,-59.455 -49.5487,-120 -69.3082,-181.473"
           style="fill:none;stroke:#000000;stroke-width:7.49999952px;stroke-linecap:butt;stroke-linejoin:miter;stroke-opacity:1" />
        <path
           inkscape:connector-curvature="0"
           id="path1128"
           d="m 5456.0391,16986.749 c -14.5859,-46.726 -32.0692,-94.214 -48.2137,-139.621"
           style="fill:none;stroke:#000000;stroke-width:130.39369202;stroke-linecap:butt;stroke-linejoin:miter;stroke-miterlimit:4;stroke-dasharray:none;stroke-opacity:1" />
        <path
           inkscape:connector-curvature="0"
           id="path1130"
           d="m 5444.3204,17059.07 c 1.2217,-19.473 -11.8403,-42.271 -16.4063,-51.228"
           style="fill:none;stroke:#000000;stroke-width:69.87400818;stroke-linecap:butt;stroke-linejoin:miter;stroke-miterlimit:4;stroke-dasharray:none;stroke-opacity:1" />
        <path
           style="fill:none;stroke:#000000;stroke-width:69.87400818;stroke-linecap:butt;stroke-linejoin:miter;stroke-miterlimit:4;stroke-dasharray:none;stroke-opacity:1"
           d="m 5437.2892,17039.65 c 1.2217,-19.473 -11.8403,-42.271 -16.4063,-51.228"
           id="path1132"
           inkscape:connector-curvature="0" />
        <path
           inkscape:connector-curvature="0"
           id="path1134"
           d="m 5486.1733,17016.882 c 1.2217,-19.473 -11.8403,-42.271 -16.4063,-51.228"
           style="fill:none;stroke:#000000;stroke-width:69.87400818;stroke-linecap:butt;stroke-linejoin:miter;stroke-miterlimit:4;stroke-dasharray:none;stroke-opacity:1" />
        <path
           style="fill:none;stroke:#000000;stroke-width:69.87400818;stroke-linecap:butt;stroke-linejoin:miter;stroke-miterlimit:4;stroke-dasharray:none;stroke-opacity:1"
           d="m 5515.6377,17030.61 c 1.2217,-19.473 -11.8403,-42.271 -16.4063,-51.228"
           id="path1136"
           inkscape:connector-curvature="0" />
        <path
           inkscape:connector-curvature="0"
           id="path1138"
           d="m 5505.2582,16974.695 c 1.2217,-19.473 -11.8403,-42.271 -16.4063,-51.228"
           style="fill:none;stroke:#000000;stroke-width:69.87400818;stroke-linecap:butt;stroke-linejoin:miter;stroke-miterlimit:4;stroke-dasharray:none;stroke-opacity:1" />
        <path
           style="fill:none;stroke:#000000;stroke-width:69.87400818;stroke-linecap:butt;stroke-linejoin:miter;stroke-miterlimit:4;stroke-dasharray:none;stroke-opacity:1"
           d="m 5488.8519,16923.467 c 1.2217,-19.473 -11.8403,-42.271 -16.4063,-51.228"
           id="path1140"
           inkscape:connector-curvature="0" />
        <path
           inkscape:connector-curvature="0"
           id="path1142"
           d="m 5476.7983,16884.628 c 1.2217,-19.473 -11.8403,-42.271 -16.4063,-51.228"
           style="fill:none;stroke:#000000;stroke-width:69.87400818;stroke-linecap:butt;stroke-linejoin:miter;stroke-miterlimit:4;stroke-dasharray:none;stroke-opacity:1" />
        <path
           style="fill:none;stroke:#000000;stroke-width:69.87400818;stroke-linecap:butt;stroke-linejoin:miter;stroke-miterlimit:4;stroke-dasharray:none;stroke-opacity:1"
           d="m 5397.1108,16927.485 c 1.2217,-19.473 -11.8403,-42.271 -16.4063,-51.228"
           id="path1144"
           inkscape:connector-curvature="0" />
        <path
           inkscape:connector-curvature="0"
           id="path1146"
           d="m 5405.8162,16954.94 c 1.2217,-19.473 -11.8403,-42.271 -16.4063,-51.228"
           style="fill:none;stroke:#000000;stroke-width:69.87400818;stroke-linecap:butt;stroke-linejoin:miter;stroke-miterlimit:4;stroke-dasharray:none;stroke-opacity:1" />
        <path
           style="fill:none;stroke:#000000;stroke-width:69.87400818;stroke-linecap:butt;stroke-linejoin:miter;stroke-miterlimit:4;stroke-dasharray:none;stroke-opacity:1"
           d="m 5413.5171,16978.713 c 1.2217,-19.473 -11.8403,-42.271 -16.4063,-51.228"
           id="path1148"
           inkscape:connector-curvature="0" />
        <path
           inkscape:connector-curvature="0"
           id="path1150"
           d="m 5422.2225,17006.168 c 1.2217,-19.473 -11.8403,-42.271 -16.4063,-51.228"
           style="fill:none;stroke:#000000;stroke-width:69.87400818;stroke-linecap:butt;stroke-linejoin:miter;stroke-miterlimit:4;stroke-dasharray:none;stroke-opacity:1" />
      </g>
      <path
         inkscape:connector-curvature="0"
         id="path817"
         d="m -669.22535,-40.747012 c -0.3152,-0.0381 0.0427,0.82256 1.44436,3.33727 4.11276,7.42635 13.14487,19.4271 18.2671,24.38145 5.00332,4.7623099 9.93701,7.4548899 15.14274,8.1907199 2.75833,0.40448 4.80827,-0.0939 6.99389,-1.71308 l 1.25214,-0.95033 3.39979,2.15233 c 1.88198,1.18691 4.50046,2.74719 5.79861,3.47266 l 0.28628,0.15141 c -0.0652,-1.17648 -0.20254,-2.34774 -0.27699,-3.52382 -0.0119,-0.1878 0,-0.35415 0.0259,-0.50798 -0.82497,-0.46482 -1.89766,-1.08065 -3.1166,-1.78697 l -4.61417,-2.6897599 0.18137,-2.67839 c 0.20169,-3.1382 -0.31211,-4.76414 -2.37194,-7.71374 -2.57903,-3.65198 -7.63384,-7.10576 -15.7303,-10.67842 -2.9019,-1.27465 -17.3836,-7.84641 -26.68209,-9.44335 -3e-5,0 -3e-5,0 -3e-5,0 z"
         style="fill:#000000;stroke:none;stroke-width:0.03527778" />
      <path
         style="fill:#000000;stroke:none;stroke-width:0.03527778"
         d="m -587.37526,-106.32358 c -0.21525,-0.177 -0.35672,0.62882 -0.50668,3.15133 -0.46253,7.436832 0.5556,20.580926 2.00703,26.665096 1.45411,5.885943 3.83377,10.207476 7.33847,13.2095 1.85013,1.601462 3.60229,2.200416 5.98398,2.034066 l 1.37517,-0.112102 1.49967,3.197638 c 0.83228,1.766726 2.03329,4.157422 2.6514,5.307082 l 0.14037,0.247186 c 0.50715,-0.901339 0.95845,-1.83287 1.45856,-2.73828 0.0799,-0.144584 0.1672,-0.26206 0.25898,-0.363662 -0.39102,-0.733407 -0.89405,-1.695499 -1.46259,-2.793594 l -2.14456,-4.168606 1.39863,-1.896304 c 1.63073,-2.226957 2.01811,-3.672657 1.88637,-6.827682 -0.18437,-3.919866 -2.29431,-8.86184 -6.59885,-15.327706 -1.54558,-2.31313 -9.15917,-14.012582 -15.28588,-19.583922 -3e-5,-1e-5 -3e-5,-1e-5 -3e-5,-1e-5 z"
         id="path1170"
         inkscape:connector-curvature="0" />
      <path
         inkscape:transform-center-y="5.3453905"
         inkscape:transform-center-x="10.690781"
         inkscape:connector-curvature="0"
         id="path1172"
         d="m -511.69245,-127.53915 c -0.0881,-0.16533 -0.38341,0.29855 -1.1261,1.82608 -2.20228,4.49817 -4.955,12.92107 -5.62064,17.07229 -0.61293,4.02884 -0.24835,7.32475 1.15453,10.091116 0.73628,1.470733 1.66989,2.293816 3.19144,2.803865 l 0.88268,0.284482 0.10764,2.371504 c 0.0618,1.311227 0.19179,3.104805 0.2795,3.977768 l 0.0235,0.18964 c 0.54698,-0.429014 1.06706,-0.891151 1.61072,-1.324499 0.0868,-0.06921 0.1713,-0.11965 0.25445,-0.159094 -0.0539,-0.556042 -0.11846,-1.282916 -0.18868,-2.111099 l -0.25799,-3.140405 1.35669,-0.817179 c 1.58595,-0.962694 2.19875,-1.760523 2.92943,-3.753289 0.89497,-2.48119 0.85763,-6.09284 -0.14983,-11.21577 -0.36393,-1.83416 -2.07813,-11.0586 -4.44728,-16.09538 -1e-5,-2e-5 -1e-5,-2e-5 -1e-5,-2e-5 z"
         style="fill:#000000;stroke:none;stroke-width:0.03527778" />
      <path
         style="fill:#000000;stroke:none;stroke-width:0.03527778"
         d="m -681.63285,87.926113 c -0.26874,0.08666 0.36933,0.570289 2.51964,1.85488 6.32887,3.803198 18.47297,9.087677 24.60595,10.766257 5.95924,1.58477 11.01951,1.72092 15.50135,0.36556 2.38071,-0.70776 3.82457,-1.802679 4.92093,-3.744643 l 0.61885,-1.128715 3.60796,0.305217 c 1.99535,0.165731 4.73447,0.331438 6.07286,0.379367 l 0.29165,0.0045 c -0.53156,-0.814176 -1.11896,-1.598591 -1.6578,-2.409142 -0.086,-0.129427 -0.14424,-0.252173 -0.1861,-0.371057 -0.85207,-0.03315 -1.96467,-0.08441 -3.23162,-0.147297 l -4.80243,-0.249495 -0.94522,-1.972624 c -1.11618,-2.307368 -2.19121,-3.279634 -5.04741,-4.636284 -3.55938,-1.669344 -9.02701,-2.303785 -16.98663,-1.924815 -2.85047,0.139992 -17.16135,0.688572 -25.28191,2.908296 -3e-5,1.1e-5 -3e-5,1.1e-5 -3e-5,1.1e-5 z"
         id="path1174"
         inkscape:connector-curvature="0" />
      <path
         style="fill:#000000;stroke:none;stroke-width:0.03527778"
         d="m -456.63026,-167.81767 c -0.12219,-0.16645 -0.3711,0.38626 -0.94001,2.17 -1.6919,5.25506 -3.36424,14.87865 -3.43459,19.51247 -0.0322,4.49197 0.88622,8.02994 2.85369,10.82621 1.03556,1.48814 2.1841,2.23857 3.92455,2.55461 l 1.00788,0.17096 0.49207,2.57011 c 0.27454,1.42069 0.69973,3.35681 0.93332,4.29528 l 0.0556,0.20314 c 0.52893,-0.55443 1.0233,-1.14074 1.54793,-1.69938 0.0838,-0.0892 0.16796,-0.15759 0.25244,-0.21376 -0.14665,-0.59808 -0.33191,-1.38084 -0.53933,-2.27323 l -0.77757,-3.38517 1.35095,-1.10581 c 1.57805,-1.30078 2.12053,-2.26795 2.60282,-4.55735 0.58436,-2.84817 -0.0269,-6.78229 -1.93533,-12.21183 -0.68677,-1.94344 -4.01411,-11.73575 -7.39437,-16.85621 -1e-5,-2e-5 -1e-5,-2e-5 -1e-5,-2e-5 z"
         id="path1176"
         inkscape:connector-curvature="0" />
      <path
         inkscape:connector-curvature="0"
         id="path1178"
         d="m -415.84539,-210.87496 c -0.23022,-0.11371 -0.23116,0.56329 0.0399,2.64093 0.77995,6.12817 3.8756,16.69844 6.22543,21.45196 2.31997,4.59157 5.25072,7.7763 9.01873,9.72552 1.99185,1.04261 3.7286,1.28191 5.92943,0.80788 l 1.26815,-0.2868 1.92426,2.3936 c 1.06665,1.32196 2.57996,3.10019 3.34565,3.94955 l 0.17162,0.18154 c 0.32744,-0.80681 0.59773,-1.63032 0.91792,-2.43947 0.0511,-0.1292 0.11368,-0.23738 0.18297,-0.33325 -0.48536,-0.5423 -1.11281,-1.25512 -1.82369,-2.06949 l -2.68587,-3.09348 0.99915,-1.74459 c 1.16236,-2.04711 1.28901,-3.28067 0.6513,-5.83391 -0.81163,-3.16925 -3.59116,-6.89811 -8.67221,-11.55735 -1.823,-1.66603 -10.85289,-10.12148 -17.49262,-13.79262 -2e-5,-2e-5 -2e-5,-2e-5 -2e-5,-2e-5 z"
         style="fill:#000000;stroke:none;stroke-width:0.03527778" />
      <path
         inkscape:transform-center-y="-3.8927362"
         inkscape:transform-center-x="23.520533"
         style="fill:#000000;stroke:none;stroke-width:0.03527778"
         d="m -423.09242,-275.87952 c -0.2405,0.0899 0.25228,0.55415 1.95218,1.77907 5.00058,3.62725 14.82429,8.60805 19.89778,10.14992 4.93501,1.45276 9.26281,1.49711 13.26334,0.0853 2.12367,-0.73791 3.48716,-1.83994 4.6485,-3.7686 l 0.65921,-1.12066 3.06207,0.23631 c 1.69382,0.12766 4.02601,0.24216 5.16931,0.2656 l 0.24983,-7.7e-4 c -0.3639,-0.79103 -0.77903,-1.55188 -1.14956,-2.33925 -0.0591,-0.12572 -0.0956,-0.24522 -0.11758,-0.36154 -0.72757,-0.0175 -1.67671,-0.0483 -2.75699,-0.0877 l -4.09363,-0.16037 -0.58747,-1.92269 c -0.69623,-2.24878 -1.50861,-3.18567 -3.80618,-4.46898 -2.86563,-1.57831 -7.48648,-2.10544 -14.36122,-1.59208 -2.46245,0.18803 -14.80772,0.98041 -22.02944,3.30634 -3e-5,0 -3e-5,0 -3e-5,0 z"
         id="path1180"
         inkscape:connector-curvature="0" />
      <path
         inkscape:transform-center-y="-13.80941"
         inkscape:transform-center-x="14.620477"
         inkscape:connector-curvature="0"
         id="path1182"
         d="m -443.17183,-352.00607 c -0.20586,-0.0161 0.0501,0.5333 1.02913,2.12918 2.87406,4.71359 9.06877,12.2658 12.53158,15.34577 3.3803,2.95843 6.65917,4.57391 10.06163,4.91059 1.80323,0.18789 3.12165,-0.19164 4.49778,-1.30309 l 0.78778,-0.6515 2.26751,1.30613 c 1.25507,0.72008 2.99884,1.66276 3.86204,2.09887 l 0.19013,0.0906 c -0.0743,-0.76264 -0.19541,-1.51995 -0.27571,-2.2821 -0.0129,-0.12169 -0.01,-0.23011 0.003,-0.33077 -0.54866,-0.27961 -1.26236,-0.65061 -2.07357,-1.07645 l -3.07117,-1.62232 0.0451,-1.74523 c 0.0458,-2.04455 -0.33222,-3.08706 -1.75074,-4.94763 -1.77497,-2.30284 -5.15317,-4.40966 -10.51098,-6.51104 -1.92018,-0.74937 -11.50831,-4.626 -17.59346,-5.41101 -2e-5,0 -2e-5,0 -2e-5,0 z"
         style="fill:#000000;fill-opacity:0.89074073;stroke:none;stroke-width:0.03527778" />
      <path
         style="fill:#000000;fill-opacity:0.89074073;stroke:none;stroke-width:0.03527777"
         d="m -418.93294,-407.04394 c -0.0958,-0.0247 -0.0207,0.25597 0.3087,1.09094 0.96466,2.46469 3.26089,6.546 4.63949,8.2884 1.34976,1.67813 2.76341,2.71377 4.34184,3.15591 0.83574,0.2388 1.48982,0.16933 2.23205,-0.2409 l 0.42617,-0.24203 0.96188,0.8054 c 0.53265,0.44444 1.2775,1.03465 1.64875,1.3124 l 0.0822,0.0586 c 0.0284,-0.36626 0.0342,-0.7339 0.0598,-1.10043 0.004,-0.0585 0.0144,-0.10948 0.029,-0.15592 -0.23578,-0.17768 -0.54187,-0.41224 -0.88943,-0.68082 l -1.31501,-1.02158 0.16655,-0.82024 c 0.19178,-0.96151 0.10007,-1.48519 -0.41482,-2.48171 -0.64638,-1.235 -2.06603,-2.51088 -4.42079,-3.94895 -0.84423,-0.51363 -5.04856,-3.14196 -7.85629,-4.01906 -1e-5,0 -1e-5,0 -1e-5,0 z"
         id="path1184"
         inkscape:connector-curvature="0"
         inkscape:transform-center-x="5.7129425"
         inkscape:transform-center-y="-7.7347767" />
      <path
         style="fill:#000000;stroke:none;stroke-width:0.03527778"
         d="m -602.81644,186.52952 c -0.22227,0.22671 0.67824,0.46735 3.52628,0.88822 8.39451,1.26396 23.41364,1.41456 30.46315,0.37184 6.82478,-1.06545 11.966,-3.33682 15.72144,-7.0162 2.00143,-1.94067 2.85534,-3.86979 2.90321,-6.58942 l 0.009,-1.57191 3.7782,-1.3843 c 2.08786,-0.76904 4.92055,-1.89458 6.28678,-2.48186 l 0.29449,-0.13474 c -0.97258,-0.66516 -1.98498,-1.26994 -2.96288,-1.92752 -0.15617,-0.10499 -0.28082,-0.21579 -0.38701,-0.33006 -0.87124,0.37091 -2.01316,0.84623 -3.31595,1.38237 l -4.94429,2.01974 -2.01324,-1.77582 c -2.36545,-2.0721 -3.96776,-2.65543 -7.56167,-2.81941 -4.46719,-0.18027 -10.28579,1.72332 -18.052,5.96627 -2.77889,1.5243 -16.81383,9.00281 -23.74587,15.40273 -2e-5,2e-5 -2e-5,2e-5 -2e-5,2e-5 z"
         id="path1186"
         inkscape:connector-curvature="0" />
      <path
         inkscape:connector-curvature="0"
         id="path1188"
         d="m -499.60793,236.21835 c -0.30745,0.0792 0.33915,0.7506 2.55994,2.58269 6.53358,5.42011 19.31402,13.31044 25.88814,16.06069 6.39346,2.61466 11.96876,3.3269 17.08527,2.11757 2.71635,-0.62718 4.44431,-1.83748 5.89071,-4.14109 l 0.82002,-1.3411 3.94997,0.76731 c 2.18489,0.42054 5.19167,0.92078 6.66482,1.12402 l 0.32175,0.0368 c -0.48891,-1.07206 -1.04313,-2.113 -1.54052,-3.18132 -0.0794,-0.17059 -0.1289,-0.32986 -0.16076,-0.48257 -0.93757,-0.13268 -2.16082,-0.31585 -3.55324,-0.53009 l -5.27667,-0.82589 -0.8059,-2.56071 c -0.95433,-2.99636 -2.02466,-4.32379 -5.01676,-6.32139 -3.73132,-2.46283 -9.69649,-3.83998 -18.53796,-4.2208 -3.16679,-0.13104 -19.04712,-0.98129 -28.28908,0.9156 -3e-5,10e-6 -3e-5,10e-6 -3e-5,10e-6 z"
         style="fill:#000000;stroke:none;stroke-width:0.03527778" />
      <path
         style="fill:#000000;stroke:none;stroke-width:0.03527778"
         d="m -380.33233,-384.24327 c 0.0699,-0.11778 -0.28991,-0.14622 -1.40582,-0.086 -3.29004,0.16597 -9.03594,1.3829 -11.65879,2.43938 -2.53552,1.04718 -4.34781,2.4762 -5.53716,4.40055 -0.63521,1.01677 -0.83294,1.93049 -0.67022,3.11993 l 0.10101,0.68591 -1.35078,0.92599 c -0.74619,0.51349 -1.75311,1.24595 -2.23579,1.6186 l -0.10345,0.0839 c 0.4156,0.20705 0.84257,0.38403 1.25981,0.58709 0.0666,0.0324 0.12165,0.07 0.16975,0.11086 0.30804,-0.23607 0.71252,-0.54074 1.17438,-0.88568 l 1.75383,-1.30252 0.88705,0.60206 c 1.04129,0.70112 1.69205,0.8185 3.07549,0.58308 1.71804,-0.30291 3.81352,-1.62945 6.49708,-4.14195 0.95984,-0.90167 5.82215,-5.35972 8.04361,-8.74108 1e-5,-10e-6 1e-5,-10e-6 1e-5,-10e-6 z"
         id="path1190"
         inkscape:connector-curvature="0" />
      <path
         inkscape:connector-curvature="0"
         id="path1192"
         d="m -368.57402,-324.34819 c 0.083,-0.14475 -0.34412,-0.17971 -1.66869,-0.1057 -3.90524,0.20399 -10.72556,1.69965 -13.83886,2.9981 -3.00963,1.28703 -5.1608,3.04336 -6.57254,5.40846 -0.75399,1.24965 -0.98869,2.37265 -0.79555,3.83453 l 0.1199,0.84301 -1.60336,1.13808 c -0.88572,0.6311 -2.08092,1.53132 -2.65386,1.98932 l -0.12279,0.10312 c 0.49331,0.25447 1.00012,0.47199 1.49538,0.72156 0.079,0.0398 0.1444,0.086 0.20149,0.13625 0.36564,-0.29014 0.84575,-0.66459 1.39398,-1.08854 l 2.08177,-1.60085 1.05292,0.73996 c 1.236,0.8617 2.00845,1.00597 3.65057,0.71663 2.0393,-0.37229 4.52661,-2.00266 7.71196,-5.09063 1.13932,-1.10819 6.91083,-6.58732 9.54768,-10.74315 1e-5,-10e-6 1e-5,-10e-6 1e-5,-10e-6 z"
         style="fill:#000000;stroke:none;stroke-width:0.03527778" />
      <path
         style="fill:#000000;stroke:none;stroke-width:0.03527778"
         d="m -334.75253,-255.70427 c 0.18144,-0.048 0.13414,0.37824 -0.21982,1.6581 -1.02768,3.77664 -4.11762,10.11036 -6.228,12.85994 -2.07624,2.65072 -4.51103,4.35303 -7.48713,5.19138 -1.57411,0.45086 -2.89847,0.42242 -4.52083,-0.10283 l -0.93381,-0.31125 -1.62039,1.30813 c -0.89786,0.72207 -2.1647,1.68526 -2.80206,2.1409 l -0.14223,0.0965 c -0.18874,-0.5415 -0.33271,-1.08772 -0.51547,-1.63001 -0.0291,-0.0865 -0.0684,-0.16116 -0.11382,-0.22861 0.40431,-0.29127 0.92778,-0.67523 1.5214,-1.1145 l 2.24391,-1.67011 -0.62655,-1.20105 c -0.72763,-1.40828 -0.73421,-2.19775 -0.0707,-3.73898 0.83875,-1.91103 3.19884,-3.97141 7.35805,-6.38005 1.49183,-0.86066 8.89608,-5.25151 14.15735,-6.87757 1e-5,-10e-6 1e-5,-10e-6 1e-5,-10e-6 z"
         id="path1194"
         inkscape:connector-curvature="0" />
      <path
         inkscape:connector-curvature="0"
         id="path1196"
         d="m -339.53346,-199.16381 c 0.18288,0.0422 -0.0577,0.39715 -0.96769,1.36426 -2.67028,2.8616 -8.3573,7.02351 -11.50639,8.47166 -3.07278,1.37663 -6.02046,1.74707 -9.0441,1.10082 -1.60272,-0.33523 -2.761,-0.97798 -3.95121,-2.19919 l -0.6809,-0.7108 -2.04344,0.40154 c -1.13098,0.22004 -2.70081,0.48131 -3.4771,0.58715 l -0.17082,0.019 c 0.0856,-0.56703 0.21292,-1.11736 0.30414,-1.6823 0.0146,-0.0901 0.0146,-0.17446 0.006,-0.25531 0.49349,-0.0691 1.13561,-0.16466 1.86558,-0.27641 l 2.76381,-0.43098 0.006,-1.35464 c 0.0131,-1.58509 0.3754,-2.28653 1.68108,-3.3405 1.63315,-1.29937 4.68173,-2.02141 9.48423,-2.21252 1.72104,-0.0656 10.31851,-0.49697 15.73096,0.51813 2e-5,-10e-6 2e-5,-10e-6 2e-5,-10e-6 z"
         style="fill:#000000;stroke:none;stroke-width:0.03527778" />
      <path
         style="fill:#000000;stroke:none;stroke-width:0.03527778"
         d="m -371.71011,-143.8416 c 0.16964,0.13713 -0.26236,0.38565 -1.70532,0.93328 -4.24631,1.63173 -12.30661,3.0874 -16.33412,2.9985 -3.91139,-0.12482 -7.18011,-1.23743 -10.01096,-3.45111 -1.50424,-1.16574 -2.3876,-2.4267 -3.01003,-4.30839 l -0.34988,-1.0892 -2.33965,-0.62006 c -1.2938,-0.34548 -3.06717,-0.87115 -3.93222,-1.15551 l -0.18817,-0.0671 c 0.37794,-0.54899 0.79098,-1.05929 1.17374,-1.60324 0.0611,-0.0867 0.10402,-0.17487 0.13617,-0.26374 0.55084,0.17887 1.27046,0.40571 2.09011,0.66032 l 3.1074,0.95581 0.69549,-1.41251 c 0.82014,-1.64973 1.55561,-2.19838 3.45626,-2.63546 2.3677,-0.5269 5.92075,0.26963 11.03648,2.51334 1.83183,0.80707 11.03548,4.7305 16.17491,8.54499 2e-5,0 2e-5,0 2e-5,0 z"
         id="path1198"
         inkscape:connector-curvature="0" />
      <path
         inkscape:transform-center-y="-11.339286"
         inkscape:transform-center-x="5.2916667"
         inkscape:connector-curvature="0"
         id="path1200"
         d="m -442.43956,-88.712279 c 0.10678,0.190211 -0.38655,0.261039 -1.92972,0.235235 -4.54867,-0.05719 -12.57483,-1.690643 -16.28293,-3.265032 -3.58694,-1.564743 -6.21104,-3.808965 -8.02058,-6.913744 -0.96544,-1.64 -1.3189,-3.13848 -1.20007,-5.11687 l 0.0784,-1.14133 -1.94355,-1.44257 c -1.07381,-0.80014 -2.52633,-1.94528 -3.22452,-2.52984 l -0.14993,-0.13202 c 0.55441,-0.36995 1.12708,-0.69096 1.6841,-1.05445 0.0889,-0.0579 0.1614,-0.1239 0.22418,-0.19454 0.4454,0.37018 1.02981,0.84744 1.69685,1.38754 l 2.53233,2.03882 1.16923,-1.05442 c 1.37287,-1.2286 2.25925,-1.4658 4.1866,-1.16778 2.39445,0.38759 5.39974,2.44353 9.3205,6.42254 1.40259,1.42818 8.49833,8.481622 11.85928,13.928464 2e-5,8e-6 2e-5,8e-6 2e-5,8e-6 z"
         style="fill:#000000;stroke:none;stroke-width:0.03527778" />
      <path
         style="fill:#000000;stroke:none;stroke-width:0.03527778"
         d="m -515.93007,-62.706481 c 0.11144,0.0867 -0.16515,0.252754 -1.09242,0.624575 -2.7285,1.107244 -7.92751,2.146532 -10.53514,2.13756 -2.53293,-0.03362 -4.66183,-0.714276 -6.52063,-2.112813 -0.98759,-0.73632 -1.5745,-1.541757 -2.00002,-2.752061 l -0.2396,-0.700693 -1.52168,-0.373085 c -0.84151,-0.207992 -1.99555,-0.526814 -2.55884,-0.700423 l -0.12258,-0.04116 c 0.23798,-0.35986 0.49913,-0.6951 0.7403,-1.051761 0.0385,-0.05685 0.0652,-0.114429 0.0849,-0.172332 0.35865,0.109121 0.82712,0.247256 1.36066,0.402152 l 2.02261,0.581123 0.43309,-0.92255 c 0.51089,-1.07758 0.98026,-1.441528 2.20508,-1.747321 1.526,-0.369553 3.83511,0.103109 7.17302,1.493534 1.19528,0.500239 7.19911,2.928471 10.5713,5.335209 10e-6,-10e-7 10e-6,-10e-7 10e-6,-10e-7 z"
         id="path1202"
         inkscape:connector-curvature="0"
         inkscape:transform-center-x="5.86876"
         inkscape:transform-center-y="-5.2702325" />
      <path
         inkscape:transform-center-y="-6.911137"
         inkscape:transform-center-x="7.696022"
         inkscape:connector-curvature="0"
         id="path1204"
         d="m -563.45813,-19.721262 c 0.14614,0.113694 -0.21657,0.33145 -1.43255,0.819039 -3.57803,1.451988 -10.39577,2.814863 -13.81529,2.803097 -3.32157,-0.04409 -6.11331,-0.936668 -8.55086,-2.770645 -1.29508,-0.965576 -2.06472,-2.021789 -2.62273,-3.608926 l -0.3142,-0.918856 -1.99546,-0.489247 c -1.10352,-0.272751 -2.61687,-0.690839 -3.35555,-0.918502 l -0.16074,-0.05397 c 0.31207,-0.471904 0.65453,-0.911522 0.97079,-1.379231 0.0505,-0.07455 0.0855,-0.150057 0.11134,-0.225988 0.47031,0.143096 1.08464,0.32424 1.7843,0.527363 l 2.65236,0.762058 0.56794,-1.209789 c 0.66995,-1.413089 1.28546,-1.890354 2.89164,-2.291357 2.00112,-0.484614 5.02918,0.135213 9.40636,1.958552 1.56744,0.65599 9.44058,3.840262 13.86272,6.996347 1e-5,-2e-6 1e-5,-2e-6 1e-5,-2e-6 z"
         style="fill:#000000;stroke:none;stroke-width:0.03527778" />
      <path
         style="fill:#000000;stroke:none;stroke-width:0.03527779"
         d="m -586.88531,34.933054 c 0.28031,0.01189 0.024,0.599454 -1.04834,2.270012 -3.14018,4.936929 -10.35745,12.611265 -14.5885,15.602179 -4.13855,2.86492 -8.36887,4.216888 -12.98942,4.095593 -2.44716,-0.05355 -4.32544,-0.680789 -6.40913,-2.149348 l -1.1954,-0.857988 -2.89299,1.149941 c -1.60179,0.633233 -3.83717,1.447278 -4.94901,1.815505 l -0.24584,0.07466 c -0.0296,-0.856748 0.007,-1.700356 -0.014,-2.555609 -0.003,-0.136391 -0.0264,-0.26036 -0.0612,-0.376795 0.70627,-0.236733 1.62374,-0.553086 2.66585,-0.917304 l 3.94358,-1.390568 -0.36228,-1.992404 c -0.41506,-2.332989 -0.0748,-3.463052 1.55525,-5.369686 2.04405,-2.356956 6.32633,-4.253279 13.33161,-5.849865 2.51124,-0.567944 15.0277,-3.557353 23.25983,-3.548454 0,-9e-6 0,-9e-6 0,-9e-6 z"
         id="path1206"
         inkscape:connector-curvature="0"
         inkscape:transform-center-x="15.421981"
         inkscape:transform-center-y="-1.5350157" />
      <path
         inkscape:transform-center-y="9.9097059"
         inkscape:transform-center-x="8.3543018"
         inkscape:connector-curvature="0"
         id="path1208"
         d="m -556.89149,110.48258 c 0.13812,-0.18771 0.42435,0.26129 1.07893,1.77473 1.9478,4.45274 3.89299,12.98464 3.99376,17.28743 0.0568,4.18063 -0.97187,7.72332 -3.19697,10.85219 -1.17113,1.66206 -2.47399,2.66613 -4.45203,3.42187 l -1.14547,0.42637 -0.54812,2.52719 c -0.30588,1.39764 -0.78075,3.31585 -1.04223,4.25293 l -0.0625,0.20409 c -0.6043,-0.37667 -1.16886,-0.79289 -1.76816,-1.1748 -0.0954,-0.0611 -0.1917,-0.10247 -0.28809,-0.13244 0.16415,-0.59657 0.37129,-1.37564 0.60321,-2.26279 l 0.86917,-3.36292 -1.54134,-0.67369 c -1.80057,-0.79515 -2.42185,-1.55345 -2.98068,-3.56076 -0.67737,-2.5014 1.3e-4,-6.33219 2.14627,-11.90112 0.77238,-1.9943 4.51268,-12.00779 8.33414,-17.67833 0,0 0,0 0,0 z"
         style="fill:#000000;stroke:none;stroke-width:0.03527779" />
      <path
         style="fill:#000000;stroke:none;stroke-width:0.03527779"
         d="m -493.26862,164.13964 c 0.0533,-0.22687 0.49287,0.0737 1.68913,1.20856 3.53972,3.33034 8.67871,10.41327 10.46086,14.33094 1.69374,3.82258 2.13871,7.48465 1.32085,11.23592 -0.42448,1.98842 -1.22846,3.42342 -2.7509,4.89513 l -0.88607,0.84189 0.48819,2.53945 c 0.26747,1.4055 0.58391,3.35611 0.71137,4.3206 l 0.0226,0.21224 c -0.70366,-0.10914 -1.38631,-0.27026 -2.08743,-0.38619 -0.11173,-0.0187 -0.21654,-0.019 -0.31696,-0.009 -0.0833,-0.61311 -0.19867,-1.41095 -0.33371,-2.31791 l -0.52107,-3.43412 -1.68208,-0.0144 c -1.96817,-0.0243 -2.8373,-0.47776 -4.13942,-2.10444 -1.60513,-2.03455 -2.48619,-5.8237 -2.69902,-11.78806 -0.0727,-2.13741 -0.56455,-12.81533 0.72349,-19.53095 0,0 0,0 0,0 z"
         id="path1210"
         inkscape:connector-curvature="0"
         inkscape:transform-center-x="2.686021"
         inkscape:transform-center-y="12.321839" />
      <path
         inkscape:transform-center-y="7.1924857"
         inkscape:transform-center-x="11.162543"
         inkscape:connector-curvature="0"
         id="path1212"
         d="m -381.35722,262.80503 c 0.18552,-0.14105 0.33318,0.37059 0.53332,2.00732 0.60984,4.82172 0.0642,13.55552 -1.05528,17.71135 -1.12717,4.02622 -3.1152,7.1337 -6.13393,9.50608 -1.59315,1.26327 -3.12669,1.85816 -5.23766,2.024 l -1.21928,0.0852 -1.24008,2.26922 c -0.68844,1.2542 -1.68612,2.95997 -2.20179,3.78493 l -0.11768,0.17809 c -0.47318,-0.53211 -0.89708,-1.09093 -1.36399,-1.62665 -0.0742,-0.0856 -0.15493,-0.15249 -0.23872,-0.20871 0.32606,-0.52587 0.74497,-1.21461 1.21817,-2.00003 l 1.78425,-2.98014 -1.28807,-1.08189 c -1.5024,-1.27164 -1.88402,-2.17462 -1.85272,-4.25804 0.0573,-2.59085 1.78989,-6.07395 5.42255,-10.80921 1.30457,-1.69467 7.72262,-10.24269 12.991,-14.60189 0,0 0,0 0,0 z"
         style="fill:#000000;stroke:none;stroke-width:0.03527779" />
      <path
         style="fill:none;stroke:#000000;stroke-width:0.26458332px;stroke-linecap:butt;stroke-linejoin:miter;stroke-opacity:1"
         d="m -1325.2757,-663.10319 c -41.6367,36.43103 -39.2514,112.91386 -12.829,194.57221 37.6142,116.24653 134.7287,76.45327 158.2236,183.88143 37.7465,172.59235 -505.0668,335.80967 -481.0852,551.64432 29.5152,265.6369 473.4515,65.34583 416.9405,517.43379"
         id="path2863"
         inkscape:connector-curvature="0"
         sodipodi:nodetypes="csssc" />
    </g>
    <path
       style="fill:#000000;stroke-width:0.99999994"
       d="m 481.34548,285.48139 c -1.42573,-30.33373 -7.94571,-54.50215 -20.87787,-77.39091 -7.50206,-13.2779 -25.65557,-37.12109 -26.44951,-34.73926 -0.18268,0.54771 -1.98806,0.57267 -4.70511,0.0651 -3.90683,-0.72991 -4.57607,-0.6019 -5.87803,1.1241 -3.59116,4.76094 -14.7231,3.8405 -25.30754,-2.09253 -9.32552,-5.22732 -18.90633,-12.27129 -17.96757,-13.21006 0.5153,-0.51529 7.71202,-0.74808 17.17053,-0.55533 14.8962,0.3033 16.67209,0.52288 20.84554,2.57502 3.25647,1.60127 4.93689,3.14038 5.87175,5.37782 1.25669,3.00767 4.41977,4.78621 6.98898,3.9298 1.37327,-0.45779 -13.23293,-14.38511 -25.16497,-23.99532 -11.95881,-9.6318 -28.82139,-21.77237 -48.47666,-34.90177 l -15.86032,-10.59446 -3.61497,1.08305 c -2.84715,0.85304 -3.61497,1.54661 -3.61497,3.26525 0,6.12723 -8.85107,10.77702 -22.00884,11.56204 -9.60405,0.57294 -23.04251,-0.39687 -23.04251,-1.66326 0,-1.26325 10.49656,-8.10742 20.0634,-13.08217 11.08329,-5.763295 15.13848,-6.490409 20.83042,-3.735 3.11935,1.51006 4.80971,1.84098 6.21061,1.215893 1.71425,-0.764938 1.11697,-1.412599 -5.46093,-5.921719 -25.2333,-17.297307 -46.94146,-36.806197 -56.15621,-50.467077 -4.5615,-6.762396 -4.61622,-6.804609 -8.82199,-6.804609 -2.96031,0 -4.84116,0.572186 -6.25894,1.904127 -4.97737,4.676023 -15.39872,3.202056 -31.35313,-4.434494 -6.86346,-3.285198 -8.51536,-4.429749 -7.3415,-5.086673 0.83304,-0.466211 6.93013,-1.323737 13.54904,-1.905547 14.77865,-1.299127 21.5308,-0.267825 24.96476,3.813265 1.3244,1.573957 3.58415,2.877608 5.66467,3.267904 4.04828,0.759443 4.24338,0.145442 1.60016,-5.035813 -4.35919,-8.544778 -6.08232,-17.5714 -6.00791,-31.4734071 0.059,-11.0090569 0.46386,-14.6172409 2.49724,-22.2495349 1.87118,-7.023525 7.40136,-20.481408 10.72705,-26.104742 0.15874,-0.267831 -1.20442,-1.291063 -3.02878,-2.273547 -2.53635,-1.365905 -3.57586,-1.527345 -4.41724,-0.685926 -3.10979,3.109737 -12.88508,-0.01777 -18.91321,-6.049909 -4.02168,-4.024725 -12.21162,-14.747297 -15.62305,-20.454218 l -2.19444,-3.670977 3.00776,0.601546 c 4.97822,0.995652 21.89529,7.913199 27.35567,11.186026 5.86568,3.515724 9.394,8.151131 9.40256,12.352743 0.005,2.280906 0.64641,3.276154 2.9627,4.594747 1.62624,0.925774 3.24466,1.348127 3.59647,0.938587 0.35163,-0.409716 2.68077,-3.446022 5.1754,-6.747678 8.35161,-11.053439 22.45901,-24.702524 34.65181,-33.526099 2.58931,-1.873798 2.6771,-2.150096 1.54842,-4.874901 -0.92032,-2.221877 -1.87003,-2.954757 -4.11514,-3.175717 -3.90718,-0.38445 -8.55656,-6.49333 -10.01008,-13.15223 -1.59875,-7.32412 -2.42718,-25.14706 -1.16885,-25.14706 1.49879,0 12.95145,15.54883 16.18348,21.97165 3.10207,6.16458 3.51986,10.35878 1.34152,13.46878 -1.3268,1.89429 -0.96705,4.24915 1.01143,6.620903 0.13525,0.162296 5.88554,-3.459053 12.77817,-8.047373 6.89267,-4.58831 17.2836,-11.18895 23.09101,-14.6681 11.4867,-6.88154 12.31687,-8.1169 8.21246,-12.22127 -1.78861,-1.78861 -2.3464,-3.32378 -2.3464,-6.45764 0,-3.84577 2.74769,-13.90409 4.90245,-17.9459 1.27499,-2.39165 1.958,-1.06078 3.90486,7.60925 2.04115,9.08963 1.94334,13.56731 -0.36005,16.49578 -3.62078,4.60308 -2.34803,5.60595 3.05032,2.40363 2.71013,-1.60761 10.41811,-6.07328 17.1289,-9.92366 22.88818,-13.1325 29.56491,-17.46508 29.56491,-19.18515 0,-0.90497 -1.45144,-3.09684 -3.22542,-4.87082 -3.7542,-3.7542 -4.79243,-7.8426 -3.90634,-15.38213 0.78893,-6.7126 2.4619,-13.36636 3.36071,-13.36636 0.97122,0 5.17878,9.67822 7.06689,16.25518 1.66158,5.7878 1.3162,9.37989 -1.16663,12.13502 -1.07046,1.18779 -1.23856,2.17946 -0.60873,3.59095 0.82325,1.84502 1.44071,1.56872 11.47079,-5.13262 13.43642,-8.97714 24.24661,-17.41561 33.53347,-26.17636 7.75516,-7.31578 8.28865,-9.1193 2.69744,-9.1193 -4.22724,0 -9.83901,-4.99147 -12.40755,-11.03601 -2.3271,-5.47635 -5.37862,-17.89717 -4.59053,-18.68521 0.77496,-0.77501 9.85031,6.29987 16.10686,12.55641 5.71974,5.71975 7.77942,10.28375 6.07669,13.46534 -0.74737,1.39649 -0.78161,2.32537 -0.11037,2.99652 1.75026,1.75026 11.46125,-11.30405 16.65612,-22.39049 9.49355,-20.2605 9.26092,-36.55751 -0.75731,-53.04985 -3.50075,-5.76301 -7.3172,-6.75651 -11.3019,-2.94204 -2.3467,2.24645 -3.45058,2.58758 -8.28092,2.55896 -4.8047,-0.0283 -6.8238,-0.67564 -14.64092,-4.69284 -4.98721,-2.5629 -9.22656,-5.13733 -9.42082,-5.72094 -0.41992,-1.26096 3.05285,-1.98587 14.63046,-3.05419 12.6423,-1.16657 18.28138,0.42275 20.02139,5.64283 0.18935,0.56824 1.06865,0.87935 1.95384,0.69137 1.28157,-0.27212 0.16717,-2.33634 -5.46917,-10.13195 -8.15335,-11.27655 -15.31917,-25.00031 -17.74701,-33.98845 -1.94031,-7.18333 -3.50567,-8.37969 -10.0056,-7.64706 -3.68255,0.41509 -4.68459,0.092 -8.30283,-2.67748 -4.84555,-3.70877 -13.87329,-15.12163 -12.36038,-15.62593 0.57587,-0.19196 3.89907,0.58872 7.3849,1.73482 11.94805,3.92839 17.13144,7.4524 17.13144,11.64713 0,1.27237 0.74728,2.71334 1.66063,3.20215 1.55681,0.83316 1.66695,-0.11869 1.76149,-15.21872 0.0838,-13.39891 0.49436,-17.92246 2.44129,-26.90101 2.33867,-10.78546 2.14596,-13.89314 -0.79178,-12.76584 -2.42621,0.93103 -10.16271,-7.79732 -8.43905,-9.52099 1.03415,-1.03412 9.39395,4.96774 9.89896,7.10686 0.8186,3.46779 2.13019,2.49204 3.81353,-2.83711 1.5623,-4.94587 7.41414,-17.10996 7.95657,-16.53911 0.55201,0.58091 -2.18198,14.52217 -4.93605,25.1705 -3.96749,15.33984 -4.21487,16.9255 -2.54025,16.28289 0.75683,-0.29045 1.37607,-1.25395 1.37607,-2.14117 0,-2.82026 4.35968,-5.86894 10.38245,-7.26033 3.18827,-0.73655 6.00668,-1.12937 6.26311,-0.8729 0.2563,0.25646 -1.8781,2.81065 -4.74342,5.67601 -4.48758,4.48753 -5.70613,5.21174 -8.79059,5.22411 -5.58614,0.0226 -5.99994,0.6727 -6.86687,10.79109 -1.05348,12.29545 0.33079,25.07162 3.8596,35.62738 1.54838,4.63147 2.96687,8.57247 3.15221,8.75781 1.00085,1.00087 4.25204,-2.04862 4.25204,-3.98824 0,-4.28 5.7498,-7.6061 16.25234,-9.40144 3.25505,-0.55644 3.49849,-0.45692 2.66978,1.09152 -0.5015,0.93709 -3.50864,4.18071 -6.6825,7.20804 -5.13846,4.90126 -6.10253,5.45039 -8.80065,5.01256 -1.6665,-0.27046 -3.94345,-0.003 -5.05984,0.5946 -2.01485,1.07832 -2.00031,1.13466 1.97072,7.651 2.20029,3.61059 7.70794,11.61936 12.23927,17.7973 11.30674,15.41546 16.45943,26.19938 16.49536,34.52262 0.005,1.41958 0.46199,2.58105 1.01298,2.58105 0.55099,0 0.75479,-0.77834 0.45282,-1.72965 -0.32503,-1.02378 0.24698,-2.74173 1.40173,-4.20957 1.91349,-2.4326 11.5401,-8.27691 15.656,-9.50476 l 2.08739,-0.62271 -1.61813,4.41055 c -0.88994,2.42579 -3.12929,6.11892 -4.97625,8.20693 -2.83669,3.20688 -4.0755,3.87872 -7.97786,4.32673 l -4.61966,0.53035 -0.76282,4.69284 c -1.51684,9.33181 -4.4528,19.47945 -7.61784,26.32976 -2.22205,4.80937 -2.84097,6.98943 -1.98429,6.98943 0.68477,0 1.49946,-1.01369 1.81039,-2.25266 0.35783,-1.42624 1.65178,-2.63132 3.52681,-3.28497 3.00691,-1.04819 19.57555,-1.47352 19.57555,-0.50247 0,0.95534 -5.72378,5.52666 -9.61939,7.68262 -4.48344,2.48123 -7.91976,2.68228 -10.84348,0.63443 -3.71779,-2.60406 -6.73203,-0.98398 -11.91776,6.40545 -2.58104,3.67793 -9.24726,11.22013 -14.81376,16.76042 -5.5665,5.54033 -9.70568,10.32995 -9.19814,10.64363 0.50754,0.3135 1.3812,-0.28601 1.94147,-1.33314 1.6559,-3.09408 6.68027,-2.42186 16.43472,2.19887 4.76302,2.2563 8.93337,4.5446 9.26744,5.08512 0.92023,1.48896 -12.22229,4.2072 -16.94026,3.50372 -4.28254,-0.63853 -8.31915,-3.29185 -9.19201,-6.04202 -0.99787,-3.14401 -4.66459,-2.89029 -9.09528,0.62934 -6.91417,5.49249 -23.2392,16.50753 -35.04254,23.64439 -15.86051,9.58999 -15.61036,9.41426 -14.94112,10.49723 0.41637,0.67377 0.92333,0.66091 1.62548,-0.0399 3.01822,-3.01818 9.46277,0.76245 17.13644,10.05291 6.04494,7.31862 5.69526,7.70785 -4.82196,5.36798 -7.91448,-1.76082 -13.54669,-5.93051 -13.54669,-10.02901 0,-2.39833 -1.54434,-4.53512 -3.2777,-4.53512 -0.89075,0 -40.79693,22.8967 -53.27104,30.56497 -4.55666,2.80112 -5.55413,4.16209 -3.05036,4.16209 0.77429,0 1.40785,-0.42213 1.40785,-0.93858 0,-2.46984 14.44506,1.48935 16.28286,4.46291 0.32014,0.51841 -1.70171,1.3739 -4.64389,1.9648 -4.20378,0.84423 -5.83271,0.78693 -8.42516,-0.29621 -1.76761,-0.73855 -3.21381,-1.79718 -3.21381,-2.35251 0,-0.55534 -1.08212,-1.42112 -2.40475,-1.92394 -2.11449,-0.80398 -3.52248,-0.16762 -11.66554,5.27082 -16.89779,11.285838 -39.23538,30.416939 -35.51492,30.416939 0.81859,0 2.01413,-0.63355 2.65678,-1.40785 0.64261,-0.774338 2.27816,-1.397832 3.63452,-1.385598 2.73581,0.02659 11.91656,3.574627 15.76348,6.095229 3.03417,1.988065 2.11551,2.672844 -5.45914,4.069165 -6.7945,1.252483 -11.31266,0.07144 -13.96236,-3.649596 -1.08978,-1.530545 -2.75828,-2.782763 -3.70773,-2.782763 -4.01821,0 -19.01928,20.477099 -24.30828,33.181927 -3.2703,7.855553 -6.21066,19.55927 -7.18714,28.6074871 -0.63219,5.8580444 -0.60931,5.9400758 1.57152,5.6314129 1.7162,-0.2429935 2.14406,-0.8053811 1.90576,-2.5054471 -0.35207,-2.5121413 1.89073,-5.342791 5.85924,-7.3950199 3.49804,-1.808881 18.54672,-4.932098 23.84225,-4.948194 l 4.05284,-0.0133 -1.84418,2.589828 c -3.01821,4.238725 -11.34135,12.3365198 -14.19834,13.81390051 -4.4736,2.31340289 -9.85666,2.75881639 -13.19773,1.09209538 -2.6397,-1.31686343 -3.29508,-1.33180664 -5.62263,-0.12814747 -2.40279,1.24254678 -2.59364,1.71522978 -2.16863,5.37201208 2.78645,23.9744055 17.34267,45.2229735 46.76068,68.2591285 5.3036,4.153015 9.90132,7.55097 10.2172,7.55097 0.31573,0 0.57432,-0.84472 0.57432,-1.877174 0,-1.032405 -0.43144,-1.877112 -0.95871,-1.877112 -2.12455,0 -3.07923,-4.451388 -1.93189,-9.007832 1.3644,-5.418527 7.54987,-19.149232 8.6264,-19.149232 1.33982,0 4.00566,10.539473 4.03586,15.955643 0.031,5.823329 -2.16699,10.490083 -5.70325,12.101342 -1.45055,0.660903 -2.19128,1.796373 -2.19128,3.359059 0,2.837396 -0.92404,2.141491 35.97,27.088307 15.3957,10.41017 28.81275,19.51182 29.81562,20.22591 1.69493,1.20689 1.76561,1.14206 1.0028,-0.92001 -0.45136,-1.22007 -1.83122,-2.45508 -3.06642,-2.74441 -1.4976,-0.35074 -2.61895,-1.60765 -3.36599,-3.77282 -1.25634,-3.64126 -1.6503,-24.364602 -0.46319,-24.364602 1.22109,0 5.37495,4.775392 8.52791,9.804072 3.37321,5.37991 3.99875,12.62735 1.40901,16.32472 -1.03069,1.47147 -1.31593,3.13265 -0.90977,5.29769 0.49224,2.62402 2.30752,4.50486 10.80132,11.19152 26.85227,21.13926 47.03617,43.14465 58.80232,64.10889 2.39442,4.26613 4.75501,7.50845 5.24586,7.20511 0.50971,-0.31483 0.26251,-1.24761 -0.57662,-2.17474 -2.23185,-2.46621 -1.78826,-5.03591 1.78632,-10.34771 4.3286,-6.43227 11.74987,-15.06123 12.95332,-15.06123 0.62809,0 0.77305,2.93986 0.41637,8.44535 -0.68619,10.59144 -2.89522,15.0501 -8.89556,17.95484 -2.26954,1.09867 -4.33167,2.53241 -4.5825,3.18614 -0.25097,0.65374 1.24764,5.19167 3.33003,10.08423 7.87763,18.50859 12.06838,38.37966 12.96177,61.46022 l 0.55401,14.31319 h -2.34183 -2.34182 z"
       id="path2876"
       inkscape:connector-curvature="0" />
    <ellipse
       style="opacity:1;fill:#000000;fill-opacity:1;stroke:#050000;stroke-width:4.16499996;stroke-miterlimit:4;stroke-dasharray:none;stroke-opacity:1"
       id="path2878"
       cx="696.86841"
       cy="-170.68132"
       rx="27.970238"
       ry="41.199402" />
  </g>
</svg>
