<?xml version="1.0" encoding="UTF-8" standalone="no"?>
<!-- Created with Inkscape (http://www.inkscape.org/) -->

<svg
   xmlns:dc="http://purl.org/dc/elements/1.1/"
   xmlns:cc="http://creativecommons.org/ns#"
   xmlns:rdf="http://www.w3.org/1999/02/22-rdf-syntax-ns#"
   xmlns:svg="http://www.w3.org/2000/svg"
   xmlns="http://www.w3.org/2000/svg"
   xmlns:sodipodi="http://sodipodi.sourceforge.net/DTD/sodipodi-0.dtd"
   xmlns:inkscape="http://www.inkscape.org/namespaces/inkscape"
   width="210mm"
   height="297mm"
   viewBox="0 0 210 297"
   version="1.1"
   id="svg8"
   sodipodi:docname="stem1 with leafs.svg"
   inkscape:version="0.92.4 (5da689c313, 2019-01-14)">
  <defs
     id="defs2" />
  <sodipodi:namedview
     id="base"
     pagecolor="#ffffff"
     bordercolor="#666666"
     borderopacity="1.0"
     inkscape:pageopacity="0.0"
     inkscape:pageshadow="2"
     inkscape:zoom="0.98994949"
     inkscape:cx="460.28531"
     inkscape:cy="673.65289"
     inkscape:document-units="mm"
     inkscape:current-layer="layer1"
     showgrid="false"
     inkscape:window-width="1920"
     inkscape:window-height="1001"
     inkscape:window-x="-9"
     inkscape:window-y="-9"
     inkscape:window-maximized="1" />
  <metadata
     id="metadata5">
    <rdf:RDF>
      <cc:Work
         rdf:about="">
        <dc:format>image/svg+xml</dc:format>
        <dc:type
           rdf:resource="http://purl.org/dc/dcmitype/StillImage" />
        <dc:title></dc:title>
      </cc:Work>
    </rdf:RDF>
  </metadata>
  <g
     inkscape:label="Layer 1"
     inkscape:groupmode="layer"
     id="layer1">
    <path
       id="path817"
       d="m 185.77587,114.40076 c -0.27181,-1e-5 -0.61093,0.033 -0.85797,0.0848 -0.38346,0.0836 -0.9289,0.10435 -1.48213,0.0595 -2.57545,-0.19817 -6.71928,0.5654 -9.49706,1.77445 -2.19136,0.94541 -4.16731,2.04564 -5.63152,3.1439 -0.23484,0.1693 -1.84654,1.34553 -1.87358,1.35278 0.67943,-0.96769 0.14077,-0.66705 -0.10077,-0.42741 -0.0609,0.2394 -0.55581,0.9905 -2.72388,2.63515 -3.29233,2.49709 -5.3941,3.77604 -7.45286,4.53127 -1.24975,0.45686 -2.94828,0.98624 -3.54069,1.08493 -0.20415,0.0479 -0.44126,0.0963 -0.62033,0.1273 -0.0782,0.024 -0.83291,0.11319 -1.25174,0.15286 -0.33003,0.0306 -0.69444,0.0412 -0.81229,0.0342 -0.18822,-0.0172 0.6233,-0.64805 0.95312,-0.82351 0,0 -0.14982,-0.3005 -0.59121,0.0115 l -0.81229,0.43042 -0.81462,0.42153 -1.67437,0.0625 c -0.91866,0.0338 -2.52339,0.0682 -3.55572,0.0745 -6.5265,0.0596 -7.26414,0.0836 -9.53837,0.28781 -0.72561,0.069 -1.45548,0.15851 -1.60873,0.19962 -0.16228,0.0435 -0.30471,0.0527 -0.3168,0.008 -0.01,-0.0361 0.33186,-0.45615 0.75624,-0.92756 1.55283,-1.5255 0.48858,-1.933 0.16626,-1.39762 l -1.12841,1.2691 -1.13511,1.28059 -0.73368,0.25485 c -1.52817,0.53559 -3.64497,1.61557 -5.58941,2.83299 -0.79531,0.49361 -1.3093,0.88284 -4.60142,3.52483 -1.20827,0.97162 -2.48691,1.9331 -2.61313,1.96696 -0.018,0.005 0.0665,-0.61695 0.17775,-1.39093 0.60914,-1.99207 -0.14276,-3.83224 -0.80697,-0.45051 -0.10555,0.57916 -0.23022,1.37612 -0.28001,1.76638 l -0.0759,0.72574 -0.45707,0.27742 c -1.32217,0.79919 -2.12264,1.1298 -4.01582,1.63768 -0.24663,0.0673 -0.4761,0.12757 -0.69362,0.18253 v 1.26554 c 0.17656,-0.12724 0.39372,-0.22811 0.67803,-0.2807 1.59831,-0.27414 2.54642,-0.66731 4.27779,-1.6343 1.58765,-0.88977 3.19486,-2.10378 6.63387,-5.02677 l 0.90376,-0.77402 0.82228,0.14685 c 0.44746,0.0829 1.27548,0.17958 1.83529,0.21302 l 1.02217,0.064 c 0,0 1.01875,-0.53524 0.005,-0.8808 l -1.29945,-0.12497 c -0.71439,-0.0693 -1.3224,-0.13802 -1.34526,-0.15122 -0.14622,-0.0767 2.33593,-1.63175 3.53276,-2.21375 1.49784,-0.72072 2.47992,-1.02281 4.03864,-1.22835 1.7054,-0.23523 3.45524,-0.37607 5.83962,-0.49386 l 1.76707,-0.0778 1.19212,0.73354 1.1898,0.72452 c 0.31249,0.20013 0.50425,-0.52093 0.50425,-0.52093 0,0 -0.28984,-0.0487 -0.9266,-0.47705 -0.36412,-0.24055 -0.63258,-0.44882 -0.58752,-0.4609 0.0361,-0.01 1.17427,-0.0541 2.5162,-0.0952 2.47343,-0.074 4.79455,-0.17486 6.35768,-0.25596 0.47736,-0.0217 1.36535,-0.13448 1.98145,-0.25144 1.36085,-0.25876 4.40362,-1.20057 5.31746,-1.64865 1.68836,-0.26139 4.51994,-0.68327 1.30383,-0.54309 -0.10291,-0.0594 -0.0717,-0.0871 0.82282,-0.60734 1.21046,-0.71128 2.67288,-1.77998 5.48345,-3.98355 4.77194,-3.75411 6.13307,-4.66043 8.74617,-5.83497 0.8538,-0.38366 1.28534,-0.4319 1.79194,-0.20058 0.33091,0.15283 0.43078,0.16482 1.04337,0.10679 0.28254,-0.0275 0.98801,-0.35198 1.75694,-0.79986 l 0.37423,-0.22601 -0.80396,-0.007 c -1.33358,2.1e-4 -1.25075,-0.051 0.7803,-0.44121 3.04206,-0.58415 4.85784,-0.58802 7.09532,-0.0286 0.53893,0.13568 2.24376,0.6543 3.78488,1.13962 3.14602,0.99218 3.58989,1.13409 3.57296,1.07099 -0.005,-0.0181 -0.40361,-0.17199 -0.87943,-0.3246 -0.48726,-0.1592 -1.78555,-0.60327 -2.89725,-1.00084 -1.1183,-0.38614 -2.39107,-0.80823 -2.84161,-0.93863 l -0.80792,-0.2375 0.49701,-0.20099 0.497,-0.20099 -0.49919,-0.0593 c -0.0698,-0.008 -0.15278,-0.0116 -0.24337,-0.0116 z"
       style="fill:#000000;stroke:none;stroke-width:0.00933391"
       inkscape:connector-curvature="0" />
    <path
       id="path828"
       style="fill:#000000;stroke:none;stroke-width:0.00933392"
       d="m 131.09342,132.6704 c -0.25451,-0.0178 -0.48733,0.0241 -0.92872,0.10787 -1.09118,0.2069 -2.20684,0.69217 -2.70105,1.14439 l -0.3437,0.34947 c -0.12309,0.0937 -0.22234,0.54526 -0.24679,0.6984 -0.0604,0.40747 -0.057,0.70359 0.008,1.11444 0.16268,0.99197 0.38646,1.42751 1.14176,2.21477 0.75477,0.79938 2.17754,1.61616 3.51979,2.05258 0.8507,0.28089 1.27428,0.32419 3.80965,0.4488 4.5247,0.22509 6.83907,0.12088 9.1228,-0.38562 l 0.53985,-0.10982 -0.87209,-0.62211 c -0.48348,-0.33754 -1.61652,-1.1051 -2.52604,-1.70469 -0.90949,-0.59958 -2.042,-1.37937 -2.52493,-1.72906 -1.65968,-1.22856 -4.82625,-2.74275 -6.93968,-3.33497 -0.52824,-0.15103 -0.80456,-0.22725 -1.05907,-0.24467 z"
       inkscape:connector-curvature="0" />
    <path
       id="path837"
       style="fill:#000000;stroke:none;stroke-width:0.03527778"
       d="m 123.82471,116.46121 c -0.34807,0.33061 -1.11262,1.15906 -1.97367,2.14851 -3.03751,3.49627 -3.42547,3.97833 -4.41076,5.58112 -1.94701,3.12814 -2.81771,5.58251 -2.65623,7.45927 0.10859,1.36268 0.34541,1.93502 1.12708,2.82008 0.48025,0.68895 0.95098,0.79532 1.70099,0.90974 0.0812,0.0116 0.16244,0.0211 0.24378,0.031 l 0.4517,-0.0928 c 1.43971,-0.272 2.20542,-0.83339 3.16715,-2.35871 1.01325,-1.57189 1.53711,-3.5815 2.03094,-7.73658 0.27813,-2.40543 0.65617,-8.75946 0.51639,-8.91401 -0.0121,-0.0128 -0.0814,0.042 -0.19737,0.15218 z"
       inkscape:connector-curvature="0"
       sodipodi:nodetypes="ccccccccccsc" />
    <path
       inkscape:connector-curvature="0"
       d="m 132.48045,123.03759 c -0.089,0.23911 -0.11454,0.47429 -0.15886,0.92137 -0.10976,1.10518 0.0406,2.31248 0.33481,2.9143 l 0.23816,0.42842 c 0.0551,0.14455 0.46025,0.36731 0.60024,0.43402 0.37382,0.17304 0.65884,0.25342 1.07132,0.30712 0.99753,0.12415 1.47854,0.0325 2.44709,-0.46965 0.98003,-0.49823 2.16543,-1.63235 2.96323,-2.79666 0.50975,-0.73671 0.67093,-1.13081 1.50664,-3.52773 1.49402,-4.27685 2.04779,-6.52641 2.20701,-8.86021 l 0.0471,-0.54889 -0.84312,0.66085 c -0.46036,0.36845 -1.51671,1.23853 -2.3488,1.94165 -0.83206,0.70308 -1.9,1.56921 -2.37186,1.93369 -1.64734,1.24506 -3.99433,3.85496 -5.15941,5.71504 -0.2941,0.46406 -0.44526,0.7076 -0.53387,0.94683 z"
       style="fill:#000000;stroke:none;stroke-width:0.00933392"
       id="path843" />
    <path
       sodipodi:nodetypes="ccccccccccsc"
       inkscape:connector-curvature="0"
       d="m 156.8556,139.45249 c -0.2322,-0.33995 -0.82877,-1.10069 -1.54841,-1.96516 -2.54358,-3.05042 -2.89851,-3.44489 -4.12034,-4.49858 -2.38136,-2.07682 -4.3398,-3.15018 -5.95069,-3.27061 -1.16845,-0.0948 -1.6854,0.0273 -2.54175,0.56774 -0.64902,0.31216 -0.80356,0.69608 -1.00317,1.31533 -0.021,0.0672 -0.0402,0.13462 -0.0597,0.20211 l 0.0167,0.39511 c 0.033,1.25604 0.40334,1.98117 1.56282,3.0043 1.19186,1.07312 2.8213,1.79193 6.27111,2.77927 1.99821,0.56501 7.32537,1.7556 7.47535,1.65846 0.0125,-0.008 -0.0244,-0.0747 -0.10182,-0.18794 z"
       style="fill:#000000;stroke:none;stroke-width:0.03527778"
       id="path845" />
    <path
       id="path847"
       style="fill:#000000;stroke:none;stroke-width:0.03527778"
       d="m 160.66305,120.12276 c -0.17552,0.31475 -0.62646,1.01912 -1.17043,1.81955 -1.92264,2.82442 -2.19093,3.18966 -3.11448,4.16527 -1.80003,1.92297 -3.28038,2.91679 -4.49803,3.0283 -0.8832,0.0877 -1.27396,-0.0252 -1.92124,-0.52568 -0.49059,-0.28902 -0.60741,-0.6445 -0.75829,-1.21787 -0.016,-0.0623 -0.0304,-0.12458 -0.0452,-0.18715 l 0.0133,-0.36583 c 0.025,-1.16298 0.30489,-1.83437 1.18131,-2.78172 0.90092,-0.99359 2.13258,-1.65916 4.74023,-2.57334 1.5104,-0.52316 5.5371,-1.62553 5.65047,-1.53558 0.009,0.007 -0.0185,0.0691 -0.0769,0.17397 z"
       inkscape:connector-curvature="0"
       sodipodi:nodetypes="ccccccccccsc" />
    <path
       id="path849"
       style="fill:#000000;stroke:none;stroke-width:0.00933392"
       d="m 161.43813,125.78422 c -0.14208,0.002 -0.2693,0.0369 -0.51022,0.10467 -0.59556,0.16763 -1.1914,0.49052 -1.44389,0.76532 l -0.17389,0.21053 c -0.0638,0.0579 -0.0971,0.31333 -0.10328,0.39951 -0.0138,0.22907 0.002,0.39324 0.0582,0.61812 0.13809,0.5427 0.2833,0.77363 0.74043,1.17414 0.45743,0.40727 1.28643,0.79198 2.0524,0.96949 0.48567,0.1149 0.72285,0.11849 2.13596,0.0654 2.52202,-0.0932 3.80145,-0.2626 5.04449,-0.6538 l 0.29426,-0.0872 -0.51398,-0.30325 c -0.28463,-0.16395 -0.95043,-0.53538 -1.48411,-0.82431 -0.53367,-0.28891 -1.1998,-0.6671 -1.48467,-0.83789 -0.98033,-0.60184 -2.81075,-1.28955 -4.01224,-1.51631 -0.30047,-0.0583 -0.45748,-0.0873 -0.59958,-0.0847 z"
       inkscape:connector-curvature="0" />
    <path
       inkscape:connector-curvature="0"
       d="m 168.83463,119.26503 c -0.0806,0.11704 -0.17934,0.20406 -0.36784,0.36788 -0.46604,0.40492 -1.05751,0.7264 -1.41949,0.78827 l -0.26647,0.0311 c -0.0822,0.0219 -0.30676,-0.0881 -0.37974,-0.12942 -0.19251,-0.11197 -0.31621,-0.21359 -0.46646,-0.38152 -0.36123,-0.40731 -0.46694,-0.65252 -0.53624,-1.24851 -0.0746,-0.59989 0.0754,-1.49661 0.35756,-2.22925 0.17702,-0.4658 0.30584,-0.66497 1.13348,-1.81151 1.47588,-2.04708 2.3232,-3.01972 3.32924,-3.84259 l 0.23378,-0.19772 -0.0408,0.59085 c -0.0258,0.32505 -0.0958,1.0789 -0.15909,1.67842 -0.0633,0.59949 -0.12805,1.35726 -0.14844,1.6862 -0.0588,1.13958 -0.52047,3.03237 -1.00478,4.15372 -0.11981,0.2813 -0.18365,0.42748 -0.26465,0.54426 z"
       style="fill:#000000;stroke:none;stroke-width:0.00933392"
       id="path851" />
    <path
       inkscape:connector-curvature="0"
       d="m 176.84727,118.49688 c -0.11119,-0.0885 -0.19436,-0.1889 -0.35067,-0.38062 -0.38626,-0.47412 -0.69407,-1.0502 -0.75458,-1.38478 l -0.0309,-0.24438 c -0.0211,-0.077 0.082,-0.26481 0.12073,-0.32509 0.10517,-0.15862 0.20087,-0.25659 0.35929,-0.36966 0.38428,-0.27136 0.61619,-0.33397 1.18084,-0.31699 0.56831,0.0127 1.41918,0.26746 2.11517,0.61951 0.44248,0.22169 0.63198,0.36436 1.72313,1.26336 1.94823,1.60342 2.87465,2.49695 3.65991,3.51362 l 0.18866,0.23708 -0.56034,-0.1155 c -0.30828,-0.0666 -1.02329,-0.23023 -1.59197,-0.36716 -0.56864,-0.13695 -1.28734,-0.29637 -1.59928,-0.35861 -1.08064,-0.20493 -2.87738,-0.87344 -3.94291,-1.45954 -0.26728,-0.14554 -0.40618,-0.22257 -0.51733,-0.31113 z"
       style="fill:#000000;stroke:none;stroke-width:0.00933392"
       id="path853" />
    <path
       sodipodi:nodetypes="ccccccccccsc"
       inkscape:connector-curvature="0"
       d="m 192.70618,111.25516 c -0.20662,-0.008 -0.68359,0.005 -1.23353,0.0351 -1.94135,0.10875 -2.19734,0.1329 -2.93309,0.30354 -1.44505,0.32591 -2.33004,0.7765 -2.69344,1.36646 -0.26717,0.42577 -0.30692,0.66134 -0.21109,1.14885 0.026,0.34145 0.18025,0.51181 0.43842,0.76735 0.0283,0.0273 0.0566,0.0545 0.0853,0.0813 l 0.19204,0.10722 c 0.60681,0.34852 1.0238,0.41353 1.7331,0.25827 0.73934,-0.15343 1.39236,-0.57845 2.51936,-1.63204 0.6495,-0.61225 2.23008,-2.3353 2.2121,-2.42141 -0.002,-0.008 -0.0404,-0.0121 -0.10912,-0.0146 z"
       style="fill:#000000;stroke:none;stroke-width:0.03527778"
       id="path855" />
  </g>
</svg>
