<?xml version="1.0" encoding="UTF-8" standalone="no"?>
<!-- Created with Inkscape (http://www.inkscape.org/) -->

<svg viewBox="0 0 309.95642 105.99198">
  <defs />
  
  <path
     style="fill:#000000;stroke:none;stroke-width:0.03527778"
     d="M 282.83752,1.3630299e-8 C 281.81022,-4.7611369e-5 280.5285,0.12471137 279.59481,0.32039455 278.1455,0.63620386 276.084,0.71478246 273.99308,0.54518719 264.25909,-0.20379265 248.59734,2.6821183 238.09865,7.2517555 c -8.28231,3.5732115 -15.75046,7.7315585 -21.28449,11.8824775 -0.88757,0.639872 -6.97902,5.085445 -7.08123,5.112866 2.56792,-3.657417 0.53205,-2.521123 -0.38086,-1.615405 -0.2303,0.904803 -2.10072,3.743617 -10.29497,9.959599 -12.44348,9.437831 -20.38718,14.271655 -28.16831,17.126086 -4.72344,1.726707 -11.14311,3.727496 -13.38212,4.100525 -0.7716,0.181008 -1.66777,0.363978 -2.34458,0.481107 -0.29551,0.09056 -3.14798,0.427805 -4.73096,0.577743 -1.24735,0.115465 -2.62467,0.155794 -3.07009,0.129191 -0.71139,-0.06484 2.35577,-2.449333 3.60235,-3.112471 0,0 -0.56626,-1.135734 -2.23448,0.04341 l -3.0701,1.626774 -3.07887,1.593184 -6.32831,0.236161 c -3.47211,0.12789 -9.53722,0.257644 -13.43897,0.281637 -24.667053,0.225387 -27.455015,0.31598 -36.050516,1.087789 -2.742448,0.260875 -5.501018,0.599087 -6.080249,0.754476 -0.61332,0.164531 -1.151641,0.199296 -1.197343,0.02894 -0.0365,-0.136298 1.254266,-1.724014 2.858225,-3.50573 5.868969,-5.765692 1.846604,-7.30583 0.628386,-5.282364 l -4.264856,4.796606 -4.290179,4.840015 -2.772958,0.963248 c -5.775748,2.024262 -13.776285,6.106063 -21.125325,10.707357 -3.005889,1.865604 -4.948526,3.336702 -17.391184,13.322185 -4.566692,3.672261 -9.39936,7.306199 -9.876401,7.43417 -0.0681,0.01828 0.251235,-2.33177 0.671793,-5.257043 2.302261,-7.5291 -0.539573,-14.484068 -3.049942,-1.70274 -0.39896,2.188957 -0.870125,5.201116 -1.058333,6.676081 l -0.286806,2.742983 -1.727541,1.048514 C 12.80228,97.349838 9.7768753,98.599409 2.6215446,100.51893 1.6894175,100.77323 0.82210274,101.00108 0,101.20881 v 4.78317 c 0.66732149,-0.48094 1.488051,-0.86218 2.5626351,-1.06092 6.0408581,-1.03615 9.6242449,-2.52213 16.1680049,-6.176883 6.000559,-3.362936 12.075056,-7.95129 25.072887,-18.998839 l 3.415813,-2.925403 3.10782,0.555006 c 1.691169,0.313356 4.820698,0.678741 6.936528,0.805119 l 3.863329,0.241845 c 0,0 3.850368,-2.022938 0.01963,-3.328995 l -4.911329,-0.472324 c -2.700049,-0.26185 -4.998024,-0.521679 -5.084444,-0.57154 -0.552649,-0.290044 8.828727,-6.167279 13.352158,-8.366932 5.661128,-2.724012 9.372954,-3.865756 15.264182,-4.64261 6.44561,-0.889045 13.059156,-1.421353 22.071006,-1.866553 l 6.67866,-0.294039 4.50567,2.772441 4.49689,2.738334 c 1.18106,0.756395 1.90582,-1.968872 1.90582,-1.968872 0,0 -1.09546,-0.184056 -3.50211,-1.802991 -1.37619,-0.909196 -2.39085,-1.696325 -2.22054,-1.742013 0.1363,-0.03656 4.43816,-0.204399 9.51002,-0.359668 9.34842,-0.279816 18.12115,-0.660884 24.02903,-0.967382 1.80422,-0.08222 5.1604,-0.508291 7.48895,-0.95033 5.14337,-0.977996 16.64361,-4.537583 20.09748,-6.231144 6.3812,-0.987895 17.08325,-2.582428 4.92787,-2.052588 -0.38894,-0.224392 -0.27085,-0.329305 3.10989,-2.295467 4.57496,-2.688303 10.10221,-6.727497 20.72483,-15.055928 18.03567,-14.188765 23.18012,-17.614254 33.05638,-22.0534353 3.22697,-1.450078 4.85799,-1.632405 6.7727,-0.7580921 1.25069,0.5776039 1.62814,0.622935 3.94343,0.4035928 1.06789,-0.103849 3.73422,-1.3303065 6.64043,-3.0230709 l 1.41439,-0.8542126 -3.03858,-0.025321 c -5.04029,7.937e-4 -4.72723,-0.192704 2.94917,-1.6675973 11.49755,-2.20778123 18.36032,-2.2224021 26.81695,-0.1080056 2.0369,0.5128128 8.48035,2.4729652 14.30507,4.3072314 11.89048,3.7499766 13.5681,4.2863216 13.5041,4.0478156 -0.0183,-0.06819 -1.52546,-0.650012 -3.32383,-1.226799 -1.84158,-0.6017207 -6.74852,-2.280076 -10.95023,-3.7827161 -4.22664,-1.4594258 -9.03711,-3.0547336 -10.73992,-3.5475862 l -3.05355,-0.8976202 1.87843,-0.7596425 1.87844,-0.7596452 -1.88672,-0.22427406 C 283.49371,0.01420814 283.17994,1.588863e-5 282.83752,1.3630299e-8 Z"
      />
</svg>
